<?xml version="1.0" encoding="UTF-8" standalone="no" ?>
<!DOCTYPE svg PUBLIC "-//W3C//DTD SVG 1.1//EN" "http://www.w3.org/Graphics/SVG/1.1/DTD/svg11.dtd">
<svg xmlns="http://www.w3.org/2000/svg" xmlns:xlink="http://www.w3.org/1999/xlink" version="1.1" width="1080" height="1080" viewBox="0 0 1080 1080" xml:space="preserve">
<desc>Created with Fabric.js 5.2.4</desc>
<defs>
</defs>
<g transform="matrix(1 0 0 1 540 540)" id="4a13ff8b-722c-4948-a65d-0b5cb88c8eff"  >
<rect style="stroke: none; stroke-width: 1; stroke-dasharray: none; stroke-linecap: butt; stroke-dashoffset: 0; stroke-linejoin: miter; stroke-miterlimit: 4; fill: rgb(255,255,255); fill-rule: nonzero; opacity: 1; visibility: hidden;" vector-effect="non-scaling-stroke"  x="-540" y="-540" rx="0" ry="0" width="1080" height="1080" />
</g>
<g transform="matrix(1 0 0 1 540 540)" id="9ff77a14-c407-4b38-b8d3-f3433fdd307c"  >
</g>
<g transform="matrix(1 0 0 1 540 540)"  >
<g style="" vector-effect="non-scaling-stroke"   >
		<g transform="matrix(1 0 0 1 0 0)"  >
<path style="stroke: none; stroke-width: 1; stroke-dasharray: none; stroke-linecap: butt; stroke-dashoffset: 0; stroke-linejoin: miter; stroke-miterlimit: 4; fill: rgb(229,117,38); fill-rule: nonzero; opacity: 1;" vector-effect="non-scaling-stroke"  transform=" translate(-400.02, -399.98)" d="M 785.57 616.74 C 784.2900000000001 590.1 784.6600000000001 563.38 784.6500000000001 536.69 C 784.6500000000001 529.47 782.3600000000001 524.8100000000001 775.6300000000001 521.24 C 760.4800000000001 513.2 745.9300000000001 504.04 730.8700000000001 495.83 C 725.8600000000001 493.09999999999997 725.3400000000001 491.05 728.0700000000002 486.02 C 743.9300000000002 456.76 751.1000000000001 425.33 750.5300000000002 392.07 C 750.3600000000002 381.94 747.8000000000002 372.05 747.5300000000002 361.98 C 746.8100000000002 335.69 746.5100000000002 309.39 746.0100000000002 283.09000000000003 C 745.8600000000002 275.1 743.6400000000002 267.90000000000003 736.7200000000003 263.17 C 724.7600000000002 255.01000000000002 712.9100000000003 246.61 700.4900000000002 239.19000000000003 C 676.9200000000002 225.11 652.9200000000002 211.77000000000004 629.2400000000002 197.88000000000002 C 621.2500000000002 193.19000000000003 612.8100000000003 190.99000000000004 603.6700000000002 190.83 C 593.8600000000002 190.66000000000003 584.3800000000002 193.06 574.7400000000002 194.26000000000002 C 568.1800000000003 195.08 561.7800000000002 197.21 554.9500000000003 195.42000000000002 C 529.0800000000003 188.62 502.8000000000003 184.25000000000003 476.15000000000026 181.9 C 411.7600000000003 176.23000000000002 348.54000000000025 181.93 286.8100000000003 201.38 C 269.2600000000003 206.91 253.54000000000028 205.23 237.5900000000003 195.79 C 199.2100000000003 173.06 160.3600000000003 151.10999999999999 121.66000000000028 128.91 C 112.32000000000028 123.55 104.49000000000028 128 104.10000000000028 138.87 C 103.80000000000028 147.06 103.72000000000028 155.26 103.67000000000027 163.46 C 103.60000000000028 174.96 103.65000000000028 186.46 103.65000000000028 197.82 C 100.35000000000028 198.13 99.23000000000027 196.97 97.95000000000027 196.23 C 88.19000000000027 190.64 78.49000000000026 184.94 68.67000000000027 179.45999999999998 C 60.56000000000027 174.93999999999997 54.800000000000274 178.40999999999997 54.78000000000027 187.71999999999997 C 54.74000000000027 204.68999999999997 54.78000000000027 221.65999999999997 54.75000000000027 238.62999999999997 C 54.75000000000027 240.30999999999997 55.50000000000027 242.56999999999996 54.13000000000027 243.56999999999996 C 47.730000000000274 248.19999999999996 49.67000000000027 253.84999999999997 51.96000000000027 259.45 C 53.31000000000027 262.75 51.97000000000027 264.18 49.20000000000027 265.65 C 42.46000000000027 269.21999999999997 35.790000000000276 272.91999999999996 29.26000000000027 276.85999999999996 C 22.970000000000272 280.65999999999997 17.42000000000027 285.21 15.560000000000272 292.91999999999996 C 12.210000000000273 306.81999999999994 16.320000000000274 319.12999999999994 25.980000000000274 328.55999999999995 C 36.290000000000276 338.62999999999994 47.52000000000027 341.72999999999996 61.230000000000274 333.40999999999997 C 67.91000000000028 329.35999999999996 74.92000000000027 325.82 81.45000000000027 321.54999999999995 C 85.11000000000027 319.15999999999997 87.72000000000027 318.99999999999994 90.76000000000028 322.25999999999993 C 94.01000000000028 325.74999999999994 98.43000000000028 326.8499999999999 102.10000000000028 323.7899999999999 C 109.62000000000027 317.50999999999993 116.35000000000028 318.8599999999999 123.34000000000027 324.3299999999999 C 125.12000000000027 325.7199999999999 127.21000000000028 326.7899999999999 129.29000000000028 327.7299999999999 C 132.28000000000029 329.0799999999999 132.79000000000028 330.9199999999999 131.99000000000026 334.1099999999999 C 130.24000000000026 341.1399999999999 129.44000000000025 348.3699999999999 129.42000000000027 355.6299999999999 C 129.35000000000028 388.03999999999985 129.33000000000027 420.45999999999987 129.42000000000027 452.8699999999999 C 129.46000000000026 467.7399999999999 131.50000000000028 482.82999999999987 139.04000000000028 495.3799999999999 C 148.3100000000003 510.7999999999999 149.0600000000003 526.7899999999998 148.3400000000003 543.5699999999999 C 148.3300000000003 543.76 148.3600000000003 543.9499999999999 148.3400000000003 544.14 C 146.75000000000028 557.34 153.28000000000029 565.68 164.28000000000029 571.84 C 185.5600000000003 583.77 206.94000000000028 595.5600000000001 227.7400000000003 608.3000000000001 C 242.63000000000028 617.4300000000001 257.9400000000003 619.5600000000001 274.8600000000003 616.6 C 287.4600000000003 614.4 299.9400000000003 611.5400000000001 313.2200000000003 614.91 C 354.8300000000003 625.4699999999999 397.2400000000003 629.55 440.1800000000003 628.8199999999999 C 479.8600000000003 628.14 518.8700000000003 623.0699999999999 557.2200000000003 612.9 C 563.9800000000002 611.11 570.6900000000003 609.09 577.6300000000002 607.12 C 578.2500000000002 617.11 580.9500000000003 625.96 586.6600000000002 633.66 C 595.5700000000002 645.68 609.4200000000002 648.66 622.2500000000002 641.51 C 625.2500000000002 639.84 628.2600000000002 638.1899999999999 631.2600000000002 636.52 C 642.1200000000002 630.51 642.1900000000002 630.42 651.4700000000003 638.67 C 655.6700000000003 642.41 659.8300000000003 643.0899999999999 664.2500000000002 639.4599999999999 C 666.2500000000002 637.8199999999999 667.8600000000002 638.03 669.8400000000003 639.41 C 671.7100000000003 640.7199999999999 673.8000000000003 641.6999999999999 675.7800000000003 642.85 C 692.1200000000003 652.2900000000001 708.4200000000003 661.8100000000001 724.8200000000003 671.16 C 734.0300000000003 676.41 742.3200000000003 671.6899999999999 742.7200000000003 661.15 C 742.7800000000002 659.4399999999999 742.6300000000002 657.72 742.6200000000002 656.01 C 742.6100000000002 642.68 742.6100000000002 629.35 742.6100000000002 615.7 C 742.9600000000003 615.7 743.4000000000002 615.57 743.6800000000003 615.72 C 751.4600000000003 619.76 759.5800000000003 623.27 766.9100000000003 628.01 C 779.57 636.25 786.29 631.66 785.57 616.74 z M 302.98 320.81 C 363.25 301.98 424.90000000000003 298.14 487.42 305.45 C 507.14 307.76 526.59 311.52 545.73 316.78999999999996 C 558.74 320.36999999999995 571.48 317.45 584.29 315.59 C 584.8499999999999 315.51 585.42 315.36999999999995 585.9699999999999 315.21999999999997 C 598.2199999999999 311.78 608.7699999999999 314.27 619.79 321.21 C 643.64 336.25 668.42 349.82 692.8499999999999 363.92999999999995 C 694.9699999999999 365.15 696.93 366.18999999999994 696.0999999999999 368.5799999999999 C 693.4799999999999 385.48999999999995 686.8999999999999 400.13999999999993 677.0199999999999 413.30999999999995 C 673.1399999999999 418.47999999999996 669.0099999999999 423.53 664.4899999999999 428.1499999999999 C 656.5899999999999 436.2399999999999 652.81 445.49999999999994 653.0999999999999 456.94999999999993 C 653.55 474.85999999999996 653.1099999999999 492.78999999999996 653.29 510.7099999999999 C 653.3399999999999 515.28 652.74 516.7599999999999 648.2099999999999 513.8299999999999 C 642.6199999999999 510.19999999999993 636.4899999999999 507.3999999999999 630.9499999999999 503.7099999999999 C 611.93 491.0299999999999 591.6299999999999 490.5399999999999 570.66 497.2099999999999 C 528.73 510.5499999999999 485.72999999999996 516.91 441.81999999999994 517.8799999999999 C 397.5299999999999 518.8599999999999 353.87999999999994 514.2699999999999 311.04999999999995 502.8699999999999 C 300.52 500.0699999999999 290.63999999999993 503.32999999999987 280.48999999999995 504.4099999999999 C 272.54999999999995 505.25999999999993 264.78 507.6199999999999 256.67999999999995 507.0899999999999 C 250.65999999999994 506.69999999999993 245.19999999999996 504.7399999999999 239.98999999999995 501.7099999999999 C 217.24999999999994 488.4899999999999 194.42999999999995 475.38999999999993 171.65999999999997 462.2199999999999 C 163.99999999999997 457.7899999999999 164.15999999999997 457.7699999999999 167.83999999999997 450.0899999999999 C 176.11999999999998 432.7999999999999 185.87999999999997 416.5299999999999 199.52999999999997 402.8499999999999 C 206.41999999999996 395.9399999999999 208.91999999999996 387.44999999999993 208.86999999999998 377.88999999999993 C 208.75999999999996 356.7299999999999 208.82999999999998 335.55999999999995 208.83999999999997 314.3999999999999 C 208.83999999999997 308.4599999999999 209.04999999999998 308.19999999999993 214.14999999999998 311.4899999999999 C 242.23 329.54 271.8 330.55 302.98 320.81 z" stroke-linecap="round" />
</g>
		<g transform="matrix(1 0 0 1 -252.64 59.63)"  >
<path style="stroke: none; stroke-width: 1; stroke-dasharray: none; stroke-linecap: butt; stroke-dashoffset: 0; stroke-linejoin: miter; stroke-miterlimit: 4; fill: rgb(229,117,38); fill-rule: nonzero; opacity: 1;" vector-effect="non-scaling-stroke"  transform=" translate(-147.38, -459.61)" d="M 146.34 462.46 C 149.91 461.60999999999996 146.76 458.31 148.42000000000002 456.76 C 146.83 458.33 148.8 461.2 146.34 462.46 z" stroke-linecap="round" />
</g>
		<g transform="matrix(1 0 0 1 243.78 157.44)"  >
<path style="stroke: none; stroke-width: 1; stroke-dasharray: none; stroke-linecap: butt; stroke-dashoffset: 0; stroke-linejoin: miter; stroke-miterlimit: 4; fill: rgb(229,117,38); fill-rule: nonzero; opacity: 1;" vector-effect="non-scaling-stroke"  transform=" translate(-643.79, -557.42)" d="M 640.9 556.32 C 641.66 560.13 645.09 556.9100000000001 646.6899999999999 558.5200000000001 C 645.27 556.46 642.29 558.49 640.9 556.32 z" stroke-linecap="round" />
</g>
		<g transform="matrix(1 0 0 1 -262.75 -160.43)"  >
<path style="stroke: none; stroke-width: 1; stroke-dasharray: none; stroke-linecap: butt; stroke-dashoffset: 0; stroke-linejoin: miter; stroke-miterlimit: 4; fill: rgb(229,117,38); fill-rule: nonzero; opacity: 1;" vector-effect="non-scaling-stroke"  transform=" translate(-137.26, -239.54)" d="M 137.09 240.57 C 137.38 239.89 137.67000000000002 239.2 137.96 238.51999999999998 C 136 238.49 136.5 239.51 137.09 240.57 z" stroke-linecap="round" />
</g>
		<g transform="matrix(1 0 0 1 -197.99 136.45)"  >
<path style="stroke: none; stroke-width: 1; stroke-dasharray: none; stroke-linecap: butt; stroke-dashoffset: 0; stroke-linejoin: miter; stroke-miterlimit: 4; fill: rgb(229,117,38); fill-rule: nonzero; opacity: 1;" vector-effect="non-scaling-stroke"  transform=" translate(-202.02, -536.42)" d="M 225.14 517.98 C 212.45 510.64000000000004 199.81 503.20000000000005 186.98 496.1 C 180.73999999999998 492.65000000000003 174.85 496.08000000000004 174.54999999999998 503.21000000000004 C 174.24999999999997 510.62000000000006 174.48 518.0500000000001 174.48 525.47 C 174.48 532.51 174.57 539.5600000000001 174.44 546.59 C 174.37 550.64 175.97 553.44 179.49 555.44 C 191.58 562.3000000000001 203.57 569.34 215.68 576.1700000000001 C 223.48000000000002 580.57 229.47 577.23 229.57 568.3600000000001 C 229.73 554.4600000000002 229.6 540.5500000000002 229.62 526.6500000000001 C 229.63 522.95 228.43 519.89 225.14 517.98 z M 213.28 555.87 C 205.78 551.57 199.4 547.83 192.93 544.23 C 191.12 543.22 190.78 541.84 190.79000000000002 540 C 190.84000000000003 532.78 190.81000000000003 525.55 190.81000000000003 517.27 C 198.27000000000004 521.55 205.12000000000003 525.4499999999999 211.94000000000003 529.41 C 213.01000000000002 530.03 213.29000000000002 531.18 213.29000000000002 532.39 C 213.28 539.77 213.28 547.16 213.28 555.87 z" stroke-linecap="round" />
</g>
		<g transform="matrix(1 0 0 1 246.41 -119.73)"  >
<path style="stroke: none; stroke-width: 1; stroke-dasharray: none; stroke-linecap: butt; stroke-dashoffset: 0; stroke-linejoin: miter; stroke-miterlimit: 4; fill: rgb(229,117,38); fill-rule: nonzero; opacity: 1;" vector-effect="non-scaling-stroke"  transform=" translate(-646.42, -280.25)" d="M 624.02 299.28 C 636.27 306.23999999999995 648.39 313.41999999999996 660.67 320.32 C 667.6999999999999 324.27 673.86 320.7 673.9499999999999 312.62 C 674.1099999999999 298.53000000000003 673.9599999999999 284.44 674.02 270.35 C 674.04 266.33000000000004 672.42 263.45000000000005 668.9499999999999 261.45000000000005 C 656.5699999999999 254.34000000000003 644.27 247.08000000000004 631.81 240.10000000000005 C 625.01 236.29000000000005 619.0899999999999 239.83000000000004 618.9 247.64000000000004 C 618.73 254.68000000000004 618.87 261.73 618.86 268.77000000000004 C 618.86 275.82000000000005 618.97 282.86 618.82 289.90000000000003 C 618.73 294.17 620.29 297.16 624.02 299.28 z M 635.17 260.99 C 642.5699999999999 265.25 648.9799999999999 268.98 655.42 272.62 C 657.13 273.59000000000003 657.74 274.91 657.7199999999999 276.82 C 657.6499999999999 283.11 657.5799999999999 289.40999999999997 657.7499999999999 295.7 C 657.8399999999999 299.19 656.5699999999999 299.07 654.1299999999999 297.64 C 648.7099999999999 294.44 643.2599999999999 291.31 637.7599999999999 288.25 C 635.8799999999999 287.2 635.0899999999999 285.89 635.1299999999999 283.69 C 635.24 276.47 635.17 269.24 635.17 260.99 z" stroke-linecap="round" />
</g>
		<g transform="matrix(1 0 0 1 0 0)"  >
<path style="stroke: none; stroke-width: 1; stroke-dasharray: none; stroke-linecap: butt; stroke-dashoffset: 0; stroke-linejoin: miter; stroke-miterlimit: 4; fill: rgb(0,41,63); fill-rule: nonzero; opacity: 1;" vector-effect="non-scaling-stroke"  transform=" translate(-400.02, -399.98)" d="M 785.57 616.74 C 784.2900000000001 590.1 784.6600000000001 563.38 784.6500000000001 536.69 C 784.6500000000001 529.47 782.3600000000001 524.8100000000001 775.6300000000001 521.24 C 760.4800000000001 513.2 745.9300000000001 504.04 730.8700000000001 495.83 C 725.8600000000001 493.09999999999997 725.3400000000001 491.05 728.0700000000002 486.02 C 743.9300000000002 456.76 751.1000000000001 425.33 750.5300000000002 392.07 C 750.3600000000002 381.94 747.8000000000002 372.05 747.5300000000002 361.98 C 746.8100000000002 335.69 746.5100000000002 309.39 746.0100000000002 283.09000000000003 C 745.8600000000002 275.1 743.6400000000002 267.90000000000003 736.7200000000003 263.17 C 724.7600000000002 255.01000000000002 712.9100000000003 246.61 700.4900000000002 239.19000000000003 C 676.9200000000002 225.11 652.9200000000002 211.77000000000004 629.2400000000002 197.88000000000002 C 621.2500000000002 193.19000000000003 612.8100000000003 190.99000000000004 603.6700000000002 190.83 C 593.8600000000002 190.66000000000003 584.3800000000002 193.06 574.7400000000002 194.26000000000002 C 568.1800000000003 195.08 561.7800000000002 197.21 554.9500000000003 195.42000000000002 C 529.0800000000003 188.62 502.8000000000003 184.25000000000003 476.15000000000026 181.9 C 411.7600000000003 176.23000000000002 348.54000000000025 181.93 286.8100000000003 201.38 C 269.2600000000003 206.91 253.54000000000028 205.23 237.5900000000003 195.79 C 199.2100000000003 173.06 160.3600000000003 151.10999999999999 121.66000000000028 128.91 C 112.32000000000028 123.55 104.49000000000028 128 104.10000000000028 138.87 C 103.80000000000028 147.06 103.72000000000028 155.26 103.67000000000027 163.46 C 103.60000000000028 174.96 103.65000000000028 186.46 103.65000000000028 197.82 C 100.35000000000028 198.13 99.23000000000027 196.97 97.95000000000027 196.23 C 88.19000000000027 190.64 78.49000000000026 184.94 68.67000000000027 179.45999999999998 C 60.56000000000027 174.93999999999997 54.800000000000274 178.40999999999997 54.78000000000027 187.71999999999997 C 54.74000000000027 204.68999999999997 54.78000000000027 221.65999999999997 54.75000000000027 238.62999999999997 C 54.75000000000027 240.30999999999997 55.50000000000027 242.56999999999996 54.13000000000027 243.56999999999996 C 47.730000000000274 248.19999999999996 49.67000000000027 253.84999999999997 51.96000000000027 259.45 C 53.31000000000027 262.75 51.97000000000027 264.18 49.20000000000027 265.65 C 42.46000000000027 269.21999999999997 35.790000000000276 272.91999999999996 29.26000000000027 276.85999999999996 C 22.970000000000272 280.65999999999997 17.42000000000027 285.21 15.560000000000272 292.91999999999996 C 12.210000000000273 306.81999999999994 16.320000000000274 319.12999999999994 25.980000000000274 328.55999999999995 C 36.290000000000276 338.62999999999994 47.52000000000027 341.72999999999996 61.230000000000274 333.40999999999997 C 67.91000000000028 329.35999999999996 74.92000000000027 325.82 81.45000000000027 321.54999999999995 C 85.11000000000027 319.15999999999997 87.72000000000027 318.99999999999994 90.76000000000028 322.25999999999993 C 94.01000000000028 325.74999999999994 98.43000000000028 326.8499999999999 102.10000000000028 323.7899999999999 C 109.62000000000027 317.50999999999993 116.35000000000028 318.8599999999999 123.34000000000027 324.3299999999999 C 125.12000000000027 325.7199999999999 127.21000000000028 326.7899999999999 129.29000000000028 327.7299999999999 C 132.28000000000029 329.0799999999999 132.79000000000028 330.9199999999999 131.99000000000026 334.1099999999999 C 130.24000000000026 341.1399999999999 129.44000000000025 348.3699999999999 129.42000000000027 355.6299999999999 C 129.35000000000028 388.03999999999985 129.33000000000027 420.45999999999987 129.42000000000027 452.8699999999999 C 129.46000000000026 467.7399999999999 131.50000000000028 482.82999999999987 139.04000000000028 495.3799999999999 C 148.3100000000003 510.7999999999999 149.0600000000003 526.7899999999998 148.3400000000003 543.5699999999999 C 148.3300000000003 543.76 148.3600000000003 543.9499999999999 148.3400000000003 544.14 C 146.75000000000028 557.34 153.28000000000029 565.68 164.28000000000029 571.84 C 185.5600000000003 583.77 206.94000000000028 595.5600000000001 227.7400000000003 608.3000000000001 C 242.63000000000028 617.4300000000001 257.9400000000003 619.5600000000001 274.8600000000003 616.6 C 287.4600000000003 614.4 299.9400000000003 611.5400000000001 313.2200000000003 614.91 C 354.8300000000003 625.4699999999999 397.2400000000003 629.55 440.1800000000003 628.8199999999999 C 479.8600000000003 628.14 518.8700000000003 623.0699999999999 557.2200000000003 612.9 C 563.9800000000002 611.11 570.6900000000003 609.09 577.6300000000002 607.12 C 578.2500000000002 617.11 580.9500000000003 625.96 586.6600000000002 633.66 C 595.5700000000002 645.68 609.4200000000002 648.66 622.2500000000002 641.51 C 625.2500000000002 639.84 628.2600000000002 638.1899999999999 631.2600000000002 636.52 C 642.1200000000002 630.51 642.1900000000002 630.42 651.4700000000003 638.67 C 655.6700000000003 642.41 659.8300000000003 643.0899999999999 664.2500000000002 639.4599999999999 C 666.2500000000002 637.8199999999999 667.8600000000002 638.03 669.8400000000003 639.41 C 671.7100000000003 640.7199999999999 673.8000000000003 641.6999999999999 675.7800000000003 642.85 C 692.1200000000003 652.2900000000001 708.4200000000003 661.8100000000001 724.8200000000003 671.16 C 734.0300000000003 676.41 742.3200000000003 671.6899999999999 742.7200000000003 661.15 C 742.7800000000002 659.4399999999999 742.6300000000002 657.72 742.6200000000002 656.01 C 742.6100000000002 642.68 742.6100000000002 629.35 742.6100000000002 615.7 C 742.9600000000003 615.7 743.4000000000002 615.57 743.6800000000003 615.72 C 751.4600000000003 619.76 759.5800000000003 623.27 766.9100000000003 628.01 C 779.57 636.25 786.29 631.66 785.57 616.74 z M 731.03 319.62 C 731.03 331.38 731.29 343.15 730.9599999999999 354.9 C 730.5899999999999 368.10999999999996 733.9399999999999 380.95 734.0899999999999 394.12 C 734.43 424.7 727.2099999999999 453.27 712.8299999999999 480.16 C 711.43 482.77000000000004 710.3399999999999 483.97 707.27 482.09000000000003 C 698.34 476.62 689.1999999999999 471.51000000000005 680.23 466.1 C 677.98 464.74 675.85 463.01000000000005 674.04 461.09000000000003 C 668.4599999999999 455.17 668.2199999999999 449.59000000000003 673.37 443.24 C 677.8100000000001 437.77 682.74 432.71000000000004 687.11 427.19 C 702.25 408.07 711.91 386.71 713.0600000000001 362.01 C 713.22 358.65999999999997 714.72 355.78999999999996 715.9100000000001 352.8 C 720.3100000000001 341.68 724.7700000000001 330.58000000000004 729.2 319.48 C 729.8 319.55 730.41 319.59 731.03 319.62 z M 572.02 211.29 C 580.14 210.20999999999998 588.1899999999999 208.60999999999999 596.3 207.51999999999998 C 605.43 206.29 613.92 207.85999999999999 622.0699999999999 212.7 C 643.04 225.16 664.41 236.94 685.3399999999999 249.47 C 698.8999999999999 257.59 711.9699999999999 266.51 725.1999999999999 275.16 C 727.52 276.68 730.0699999999999 278.12 727.9799999999999 281.94 C 717.1399999999999 301.7 710.4799999999999 323.26 701.8 343.95 C 700.14 347.92 699.1099999999999 348.71999999999997 695.06 346.33 C 668.9699999999999 330.91999999999996 642.6199999999999 315.94 616.5 300.57 C 610.57 297.08 604.48 296 597.9 296.93 C 589.41 298.13 580.89 299.28000000000003 572.48 300.93 C 568.09 301.79 567.39 300.28000000000003 567.44 296.36 C 567.6400000000001 283.21000000000004 567.5200000000001 270.06 567.5200000000001 256.90000000000003 C 567.5200000000001 243.56000000000003 567.6400000000001 230.21000000000004 567.44 216.87000000000003 C 567.4 213.33 568.42 211.77 572.02 211.29 z M 270.25 224.61 C 270.25 222.81 270.24 221.27 272.74 221.03 C 287.69 219.63 301.44 213.51 315.85 209.99 C 373.93 195.81 432.6 192.68 491.87 199.99 C 510.22 202.25 528.39 205.62 546.35 210.11 C 550.2900000000001 211.09 551.4200000000001 212.75 551.34 216.71 C 551.08 230.05 551.24 243.4 551.24 256.74 C 551.24 269.89 551.03 283.05 551.35 296.2 C 551.46 300.82 549.91 300.97999999999996 546.19 300 C 507.61000000000007 289.81 468.2900000000001 285.32 428.46000000000004 285.58 C 382.44000000000005 285.89 337.30000000000007 292.34 293.37 306.43 C 287.19 308.41 280.9 309.84000000000003 274.4 310.41 C 271.66999999999996 310.65000000000003 270.17999999999995 310.33000000000004 270.19 306.97 C 270.3 279.52 270.26 252.07 270.25 224.61 z M 302.98 320.81 C 363.25 301.98 424.90000000000003 298.14 487.42 305.45 C 507.14 307.76 526.59 311.52 545.73 316.78999999999996 C 558.74 320.36999999999995 571.48 317.45 584.29 315.59 C 584.8499999999999 315.51 585.42 315.36999999999995 585.9699999999999 315.21999999999997 C 598.2199999999999 311.78 608.7699999999999 314.27 619.79 321.21 C 643.64 336.25 668.42 349.82 692.8499999999999 363.92999999999995 C 694.9699999999999 365.15 696.93 366.18999999999994 696.0999999999999 368.5799999999999 C 693.4799999999999 385.48999999999995 686.8999999999999 400.13999999999993 677.0199999999999 413.30999999999995 C 673.1399999999999 418.47999999999996 669.0099999999999 423.53 664.4899999999999 428.1499999999999 C 656.5899999999999 436.2399999999999 652.81 445.49999999999994 653.0999999999999 456.94999999999993 C 653.55 474.85999999999996 653.1099999999999 492.78999999999996 653.29 510.7099999999999 C 653.3399999999999 515.28 652.74 516.7599999999999 648.2099999999999 513.8299999999999 C 642.6199999999999 510.19999999999993 636.4899999999999 507.3999999999999 630.9499999999999 503.7099999999999 C 611.93 491.0299999999999 591.6299999999999 490.5399999999999 570.66 497.2099999999999 C 528.73 510.5499999999999 485.72999999999996 516.91 441.81999999999994 517.8799999999999 C 397.5299999999999 518.8599999999999 353.87999999999994 514.2699999999999 311.04999999999995 502.8699999999999 C 300.52 500.0699999999999 290.63999999999993 503.32999999999987 280.48999999999995 504.4099999999999 C 272.54999999999995 505.25999999999993 264.78 507.6199999999999 256.67999999999995 507.0899999999999 C 250.65999999999994 506.69999999999993 245.19999999999996 504.7399999999999 239.98999999999995 501.7099999999999 C 217.24999999999994 488.4899999999999 194.42999999999995 475.38999999999993 171.65999999999997 462.2199999999999 C 163.99999999999997 457.7899999999999 164.15999999999997 457.7699999999999 167.83999999999997 450.0899999999999 C 176.11999999999998 432.7999999999999 185.87999999999997 416.5299999999999 199.52999999999997 402.8499999999999 C 206.41999999999996 395.9399999999999 208.91999999999996 387.44999999999993 208.86999999999998 377.88999999999993 C 208.75999999999996 356.7299999999999 208.82999999999998 335.55999999999995 208.83999999999997 314.3999999999999 C 208.83999999999997 308.4599999999999 209.04999999999998 308.19999999999993 214.14999999999998 311.4899999999999 C 242.23 329.54 271.8 330.55 302.98 320.81 z M 120.08 152.53 C 120.14 147.87 121.13 147.36 125.12 149.68 C 155.46 167.3 185.84 184.85000000000002 216.32 202.21 C 227.7 208.69 238.35999999999999 216.74 251.53 219.64000000000001 C 254.58 220.31 253.96 222.60000000000002 253.96 224.59 C 253.99 237.94 253.98000000000002 251.29 253.97 264.64 C 253.97 278.18 253.84 291.71999999999997 254.05 305.26 C 254.11 309.18 252.69 309.75 249.32000000000002 309.03999999999996 C 234.75000000000003 306.01 223.04000000000002 297.12999999999994 210.36 290.23999999999995 C 208.77 289.37999999999994 208.64000000000001 287.7699999999999 208.58 286.2699999999999 C 208.12 274.5199999999999 201.71 266.4099999999999 192.51000000000002 260.0299999999999 C 190.45000000000002 258.5999999999999 188.60000000000002 257.1699999999999 187.69000000000003 254.6299999999999 C 184.92000000000002 246.8899999999999 178.45000000000002 242.70999999999992 171.82000000000002 238.8499999999999 C 155.51000000000002 229.3599999999999 139.16000000000003 219.9099999999999 122.70000000000002 210.6699999999999 C 119.53000000000002 208.8899999999999 118.71000000000002 206.8099999999999 118.83000000000001 203.3999999999999 C 119.4 186.44 119.86 169.48 120.08 152.53 z M 168.74 269.08 C 165.68 272.27 163.22 278.28999999999996 159.32000000000002 277.72999999999996 C 156.57000000000002 277.33 154.63000000000002 270.96999999999997 152.44000000000003 267.2 C 147.29000000000002 258.34 142.21000000000004 249.45 137.09000000000003 240.57 C 136.01000000000002 239.82999999999998 134.85000000000002 238.66 135.64000000000004 237.57 C 136.45000000000005 236.44 137.51000000000005 237.35 137.97000000000006 238.51999999999998 C 147.64000000000004 244.08999999999997 157.46000000000006 249.40999999999997 166.93000000000006 255.30999999999997 C 174.44 259.98 174.69 262.87 168.74 269.08 z M 70.99 203.74 C 70.97999999999999 201.44 71.13 199.81 74.05999999999999 201.52 C 83.72999999999999 207.15 93.42999999999999 212.70000000000002 104.24999999999999 218.92000000000002 C 93.48999999999998 224.39000000000001 83.94999999999999 229.15 74.49999999999999 234.08 C 71.52999999999999 235.63000000000002 70.93999999999998 234.67000000000002 70.96999999999998 231.76000000000002 C 71.07 222.42 71.03 213.08 70.99 203.74 z M 45.94 321.13 C 35.349999999999994 319.55 32.17 310.05 30.709999999999997 301.8 C 30.169999999999998 298.75 31.58 297.56 34.69 299.22 C 41.46 302.84 46.99 313.47 45.94 321.13 z M 95.59 294.45 C 85.51 300.21 75.47 306.03 65.48 311.94 C 63.220000000000006 313.27 62.290000000000006 313.03 61.57000000000001 310.36 C 59.27000000000001 301.91 54.92000000000001 294.62 48.220000000000006 288.90000000000003 C 45.7 286.75000000000006 46.650000000000006 285.8 49.00000000000001 284.50000000000006 C 58.82000000000001 279.06000000000006 68.60000000000001 273.55000000000007 78.30000000000001 267.9100000000001 C 80.21000000000001 266.80000000000007 81.74000000000001 266.8200000000001 83.62 267.6500000000001 C 90.4 270.6200000000001 98.06 282.2700000000001 98.03 289.7200000000001 C 98.09 291.75 97.55 293.33 95.59 294.45 z M 114.32 297.82 C 113.39999999999999 270.08 102.47999999999999 254.42 81.63 250.23 C 81.19 248.23 83.08999999999999 248.25 84.03999999999999 247.75 C 92.63 243.25 101.32999999999998 238.95 109.89999999999999 234.4 C 112.3 233.13 113.71999999999998 232.84 115.3 235.63 C 123.55 250.19 131.96 264.65999999999997 140.41 279.11 C 141.67 281.27000000000004 141.32999999999998 282.36 139.18 283.56 C 131.08 288.1 123.06 292.79 114.32 297.82 z M 141.99 306.31 C 137.71 314.62 137.71 314.62 129.02 308.37 C 134.27 305.33 139.3 302.42 144.32000000000002 299.52 C 144.56000000000003 299.77 144.8 300.02 145.04000000000002 300.28 C 144.03 302.28 143.02 304.3 141.99 306.31 z M 156.25 436.83 C 153.52 443.41999999999996 148.01 448.93 148.42 456.76 C 149.05999999999997 461.03999999999996 148.95999999999998 465.3 148.29999999999998 470.43 C 146.14 467.56 145.98999999999998 465.08 146.33999999999997 462.47 C 145.10999999999999 447.31 145.47999999999996 432.14000000000004 145.53999999999996 415.59000000000003 C 149.88999999999996 421.64000000000004 153.44999999999996 426.66 157.07999999999996 431.62 C 158.61 433.7 156.94 435.15 156.25 436.83 z M 153.11 321.47 C 159.89000000000001 304.52000000000004 171.08 290.68 183.28000000000003 277.48 C 185.00000000000003 275.62 186.20000000000002 275.49 187.83000000000004 277.40000000000003 C 190.50000000000003 280.52000000000004 192.26000000000005 283.85 192.22000000000003 288.18 C 192.08000000000004 303.6 192.16000000000003 319.02 192.17000000000002 334.44 C 192.17000000000002 349.86 192.13000000000002 365.28 192.20000000000002 380.7 C 192.22000000000003 384.33 191.13000000000002 387.4 188.78000000000003 390.09999999999997 C 181.80000000000004 398.15 174.36000000000004 405.82 168.58000000000004 414.84999999999997 C 166.63000000000005 417.89 165.68000000000004 415.73999999999995 164.62000000000003 414.15 C 145.32 385.18 139.89 354.52 153.11 321.47 z M 501.28 607.7 C 460.9 613.5500000000001 420.35999999999996 614.24 379.78999999999996 610.08 C 355.49999999999994 607.59 331.49999999999994 603.24 307.89 596.9100000000001 C 300.53999999999996 594.94 293.53999999999996 597.4000000000001 286.4 598.1700000000001 C 276.01 599.2900000000001 265.84999999999997 602.44 255.21999999999997 601.5100000000001 C 250.17999999999998 601.07 245.55999999999997 599.5000000000001 241.19999999999996 596.9800000000001 C 217.76999999999995 583.4300000000002 194.35999999999996 569.8500000000001 170.85999999999996 556.4300000000002 C 166.67999999999995 554.0400000000002 164.46999999999997 551.2600000000002 164.52999999999994 546.0900000000001 C 164.77999999999994 523.4600000000002 164.63999999999996 500.82000000000016 164.63999999999996 478.13000000000017 C 167.09999999999997 477.8700000000002 168.48999999999995 479.39000000000016 170.04999999999995 480.2900000000002 C 190.53999999999996 492.0600000000002 211.09999999999997 503.7300000000002 231.42999999999995 515.7800000000002 C 243.16999999999996 522.7400000000002 255.60999999999996 524.6200000000002 268.84999999999997 522.7200000000003 C 278.28 521.3700000000002 287.73999999999995 520.1100000000002 297.10999999999996 518.4000000000002 C 300.84 517.7200000000003 304.24999999999994 518.1000000000003 307.77 519.0000000000002 C 366.01 533.8800000000002 424.99 537.9500000000003 484.76 531.5500000000002 C 516.33 528.1700000000002 547.27 521.9800000000001 577.51 512.3300000000002 C 593.06 507.3700000000002 607.8 508.25000000000017 621.85 517.3700000000001 C 629.83 522.5500000000001 638.2900000000001 526.9800000000001 647.59 532.3600000000001 C 635.01 540.3100000000002 623.3100000000001 547.7400000000001 611.58 555.1200000000001 C 601.13 561.6900000000002 600.83 562.1300000000001 605.64 573.6800000000001 C 607.04 577.0300000000001 605.22 577.4200000000001 603.04 578.48 C 570.83 594.16 536.52 602.59 501.28 607.7 z M 609.55 629.33 C 598.76 627.09 596.05 618.3000000000001 594.3199999999999 610.44 C 594.04 609.1800000000001 594.1899999999999 607.6700000000001 595.43 606.83 C 596.56 606.0600000000001 597.56 606.97 598.53 607.49 C 605.12 610.99 610.34 621.2 609.55 629.33 z M 658.55 602.74 C 648.51 608.16 638.56 613.75 628.5899999999999 619.3100000000001 C 627.0699999999999 620.1600000000001 625.8599999999999 620.6300000000001 625.1999999999999 618.35 C 622.4899999999999 608.97 617.2299999999999 601.2 609.3599999999999 594.64 C 620.8299999999999 588.04 631.8199999999999 581.71 642.8199999999999 575.41 C 645.03 574.15 646.9399999999999 575.42 648.64 576.55 C 655.86 581.3299999999999 659.93 588.1999999999999 661.4499999999999 596.63 C 661.93 599.28 661.21 601.3 658.55 602.74 z M 675.62 609.19 C 680.27 598.36 677.75 588.4000000000001 672.61 579.12 C 666.92 568.83 659.03 560.74 646.69 558.53 C 643.5 558.53 640.3000000000001 558.39 636.75 560.2099999999999 C 637.55 557.42 639.13 556.7599999999999 640.91 556.3199999999999 C 647.15 552.3 653.4399999999999 548.3799999999999 659.5799999999999 544.2199999999999 C 661.7399999999999 542.7599999999999 662.9699999999999 542.7299999999999 664.6899999999999 544.8999999999999 C 676.27 559.5399999999998 687.9899999999999 574.0699999999998 699.66 588.6399999999999 C 700.6999999999999 589.9299999999998 702.11 591.0799999999999 699.8199999999999 592.7199999999999 C 692.55 597.9399999999999 685.3799999999999 603.3199999999999 678.14 608.5799999999999 C 677.6 608.98 676.75 608.94 675.62 609.19 z M 725.19 652.42 C 713.12 645.4699999999999 701.2600000000001 638.68 689.4300000000001 631.8299999999999 C 681.1400000000001 627.03 681.1600000000001 626.9999999999999 688.84 621.31 C 698.1800000000001 614.38 707.5600000000001 607.5 716.85 600.5 C 722.74 596.06 723.24 591.77 718.64 585.96 C 713.11 578.96 707.47 572.0300000000001 702.55 564.0400000000001 C 709.6999999999999 568.1800000000001 716.8499999999999 572.32 723.99 576.4800000000001 C 725.36 577.2800000000001 725.3 578.6700000000002 725.3100000000001 580.0200000000001 C 725.5000000000001 603.4600000000002 725.7 626.9100000000001 725.86 650.3500000000001 C 725.88 650.84 725.56 651.33 725.19 652.42 z M 768.56 610.14 C 759.93 605.5699999999999 751.5999999999999 601.14 743.2399999999999 596.76 C 741.2399999999999 595.71 741.6699999999998 593.91 741.6599999999999 592.27 C 741.5999999999999 586.75 741.3899999999999 581.21 741.6499999999999 575.6999999999999 C 741.9199999999998 569.8399999999999 739.3899999999999 566.16 734.3699999999999 563.31 C 714.6599999999999 552.13 695.1499999999999 540.5999999999999 675.4099999999999 529.4699999999999 C 671.0599999999998 527.0199999999999 669.2999999999998 524.2199999999999 669.4499999999998 519.1299999999999 C 669.8299999999998 506.0999999999999 669.5799999999998 493.0399999999999 669.5799999999998 479.26999999999987 C 689.7599999999998 490.8899999999999 709.1699999999998 502.0699999999999 728.5699999999998 513.2599999999999 C 740.6099999999998 520.2099999999999 752.6199999999998 527.2099999999999 764.6899999999998 534.1099999999999 C 766.7999999999998 535.31 768.2099999999998 536.4199999999998 768.2299999999998 539.2599999999999 C 768.3899999999998 562.0999999999999 768.7499999999998 584.9399999999998 769.0199999999998 607.7799999999999 C 769.01 608.3 768.82 608.82 768.56 610.14 z" stroke-linecap="round" />
</g>
		<g transform="matrix(1 0 0 1 -252.64 59.63)"  >
<path style="stroke: none; stroke-width: 1; stroke-dasharray: none; stroke-linecap: butt; stroke-dashoffset: 0; stroke-linejoin: miter; stroke-miterlimit: 4; fill: rgb(0,41,63); fill-rule: nonzero; opacity: 1;" vector-effect="non-scaling-stroke"  transform=" translate(-147.38, -459.61)" d="M 146.34 462.46 C 149.91 461.60999999999996 146.76 458.31 148.42000000000002 456.76 C 146.83 458.33 148.8 461.2 146.34 462.46 z" stroke-linecap="round" />
</g>
		<g transform="matrix(1 0 0 1 243.78 157.44)"  >
<path style="stroke: none; stroke-width: 1; stroke-dasharray: none; stroke-linecap: butt; stroke-dashoffset: 0; stroke-linejoin: miter; stroke-miterlimit: 4; fill: rgb(0,41,63); fill-rule: nonzero; opacity: 1;" vector-effect="non-scaling-stroke"  transform=" translate(-643.79, -557.42)" d="M 640.9 556.32 C 641.66 560.13 645.09 556.9100000000001 646.6899999999999 558.5200000000001 C 645.27 556.46 642.29 558.49 640.9 556.32 z" stroke-linecap="round" />
</g>
		<g transform="matrix(1 0 0 1 -262.75 -160.43)"  >
<path style="stroke: none; stroke-width: 1; stroke-dasharray: none; stroke-linecap: butt; stroke-dashoffset: 0; stroke-linejoin: miter; stroke-miterlimit: 4; fill: rgb(0,41,63); fill-rule: nonzero; opacity: 1;" vector-effect="non-scaling-stroke"  transform=" translate(-137.26, -239.54)" d="M 137.09 240.57 C 137.38 239.89 137.67000000000002 239.2 137.96 238.51999999999998 C 136 238.49 136.5 239.51 137.09 240.57 z" stroke-linecap="round" />
</g>
		<g transform="matrix(1 0 0 1 -197.99 136.45)"  >
<path style="stroke: none; stroke-width: 1; stroke-dasharray: none; stroke-linecap: butt; stroke-dashoffset: 0; stroke-linejoin: miter; stroke-miterlimit: 4; fill: rgb(0,41,63); fill-rule: nonzero; opacity: 1;" vector-effect="non-scaling-stroke"  transform=" translate(-202.02, -536.42)" d="M 225.14 517.98 C 212.45 510.64000000000004 199.81 503.20000000000005 186.98 496.1 C 180.73999999999998 492.65000000000003 174.85 496.08000000000004 174.54999999999998 503.21000000000004 C 174.24999999999997 510.62000000000006 174.48 518.0500000000001 174.48 525.47 C 174.48 532.51 174.57 539.5600000000001 174.44 546.59 C 174.37 550.64 175.97 553.44 179.49 555.44 C 191.58 562.3000000000001 203.57 569.34 215.68 576.1700000000001 C 223.48000000000002 580.57 229.47 577.23 229.57 568.3600000000001 C 229.73 554.4600000000002 229.6 540.5500000000002 229.62 526.6500000000001 C 229.63 522.95 228.43 519.89 225.14 517.98 z M 213.28 555.87 C 205.78 551.57 199.4 547.83 192.93 544.23 C 191.12 543.22 190.78 541.84 190.79000000000002 540 C 190.84000000000003 532.78 190.81000000000003 525.55 190.81000000000003 517.27 C 198.27000000000004 521.55 205.12000000000003 525.4499999999999 211.94000000000003 529.41 C 213.01000000000002 530.03 213.29000000000002 531.18 213.29000000000002 532.39 C 213.28 539.77 213.28 547.16 213.28 555.87 z" stroke-linecap="round" />
</g>
		<g transform="matrix(1 0 0 1 246.41 -119.73)"  >
<path style="stroke: none; stroke-width: 1; stroke-dasharray: none; stroke-linecap: butt; stroke-dashoffset: 0; stroke-linejoin: miter; stroke-miterlimit: 4; fill: rgb(0,41,63); fill-rule: nonzero; opacity: 1;" vector-effect="non-scaling-stroke"  transform=" translate(-646.42, -280.25)" d="M 624.02 299.28 C 636.27 306.23999999999995 648.39 313.41999999999996 660.67 320.32 C 667.6999999999999 324.27 673.86 320.7 673.9499999999999 312.62 C 674.1099999999999 298.53000000000003 673.9599999999999 284.44 674.02 270.35 C 674.04 266.33000000000004 672.42 263.45000000000005 668.9499999999999 261.45000000000005 C 656.5699999999999 254.34000000000003 644.27 247.08000000000004 631.81 240.10000000000005 C 625.01 236.29000000000005 619.0899999999999 239.83000000000004 618.9 247.64000000000004 C 618.73 254.68000000000004 618.87 261.73 618.86 268.77000000000004 C 618.86 275.82000000000005 618.97 282.86 618.82 289.90000000000003 C 618.73 294.17 620.29 297.16 624.02 299.28 z M 635.17 260.99 C 642.5699999999999 265.25 648.9799999999999 268.98 655.42 272.62 C 657.13 273.59000000000003 657.74 274.91 657.7199999999999 276.82 C 657.6499999999999 283.11 657.5799999999999 289.40999999999997 657.7499999999999 295.7 C 657.8399999999999 299.19 656.5699999999999 299.07 654.1299999999999 297.64 C 648.7099999999999 294.44 643.2599999999999 291.31 637.7599999999999 288.25 C 635.8799999999999 287.2 635.0899999999999 285.89 635.1299999999999 283.69 C 635.24 276.47 635.17 269.24 635.17 260.99 z" stroke-linecap="round" />
</g>
</g>
</g>
</svg>