<?xml version="1.0" encoding="UTF-8" standalone="no" ?>
<!DOCTYPE svg PUBLIC "-//W3C//DTD SVG 1.1//EN" "http://www.w3.org/Graphics/SVG/1.1/DTD/svg11.dtd">
<svg xmlns="http://www.w3.org/2000/svg" xmlns:xlink="http://www.w3.org/1999/xlink" version="1.1" width="1080" height="1080" viewBox="0 0 1080 1080" xml:space="preserve">
<desc>Created with Fabric.js 5.2.4</desc>
<defs>
</defs>
<rect x="0" y="0" width="100%" height="100%" fill="transparent"></rect>
<g transform="matrix(1 0 0 1 540 540)" id="4a13ff8b-722c-4948-a65d-0b5cb88c8eff"  >
<rect style="stroke: none; stroke-width: 1; stroke-dasharray: none; stroke-linecap: butt; stroke-dashoffset: 0; stroke-linejoin: miter; stroke-miterlimit: 4; fill: rgb(255,255,255); fill-rule: nonzero; opacity: 1; visibility: hidden;" vector-effect="non-scaling-stroke"  x="-540" y="-540" rx="0" ry="0" width="1080" height="1080" />
</g>
<g transform="matrix(1 0 0 1 540 540)" id="9ff77a14-c407-4b38-b8d3-f3433fdd307c"  >
</g>
<g transform="matrix(1 0 0 1 540 540)"  >
<g style="" vector-effect="non-scaling-stroke"   >
		<g transform="matrix(1 0 0 1 -165.67 123.33)"  >
<path style="stroke: none; stroke-width: 1; stroke-dasharray: none; stroke-linecap: butt; stroke-dashoffset: 0; stroke-linejoin: miter; stroke-miterlimit: 4; fill: rgb(229,117,38); fill-rule: nonzero; opacity: 1;" vector-effect="non-scaling-stroke"  transform=" translate(-234.33, -523.33)" d="M 373.22 473.05 C 369.88000000000005 469.22 368.36 465.24 368.01000000000005 460.31 C 367.13000000000005 447.72 362.26000000000005 436.68 353.7300000000001 427.46 C 346.8400000000001 420.02 339.63000000000005 412.88 332.3300000000001 405.84 C 322.1900000000001 396.06 310.1600000000001 389.98999999999995 295.9400000000001 389.22999999999996 C 291.7200000000001 388.99999999999994 288.6400000000001 387.59 285.5600000000001 384.84 C 276.3300000000001 376.60999999999996 265.41000000000014 371.83 253.05000000000013 371.29999999999995 C 241.28000000000011 370.79999999999995 229.47000000000014 370.84 217.68000000000012 371.12999999999994 C 204.17000000000013 371.4599999999999 192.33000000000013 376.4699999999999 182.34000000000012 385.55999999999995 C 179.74000000000012 387.91999999999996 177.0700000000001 388.9599999999999 173.55000000000013 389.15999999999997 C 161.6900000000001 389.80999999999995 151.03000000000011 393.86999999999995 141.74000000000012 401.38 C 132.53000000000011 408.82 124.70000000000013 417.68 116.33000000000013 425.98 C 109.14000000000013 433.11 103.57000000000012 441.63 102.18000000000012 451.61 C 100.66000000000012 462.48 97.51000000000012 472.11 90.25000000000011 480.48 C 85.60000000000011 485.84000000000003 85.46000000000011 493.42 82.0700000000001 499.48 C 82.0700000000001 515.21 82.0700000000001 530.95 82.0700000000001 546.6800000000001 C 85.3700000000001 554.1200000000001 86.5900000000001 562.6400000000001 91.99000000000011 568.95 C 97.55000000000011 575.46 101.05000000000011 582.1500000000001 101.14000000000011 591.0500000000001 C 101.19000000000011 595.96 103.52000000000011 600.97 105.92000000000012 605.6300000000001 C 113.91000000000011 621.1400000000001 127.48000000000012 631.6400000000001 139.71000000000012 643.2700000000001 C 149.30000000000013 652.4000000000001 161.1600000000001 657.0500000000001 174.52000000000012 657.2800000000001 C 177.4400000000001 657.33 179.58000000000013 658.4300000000001 181.64000000000013 660.34 C 193.28000000000014 671.12 207.23000000000013 675.8100000000001 222.9400000000001 675.73 C 231.43000000000012 675.69 239.9100000000001 675.8000000000001 248.40000000000012 675.69 C 260.73000000000013 675.5200000000001 272.2600000000001 672.12 281.8900000000001 664.5200000000001 C 287.6200000000001 660.0000000000001 292.8900000000001 656.7400000000001 300.5700000000001 656.7900000000001 C 305.7500000000001 656.82 310.98000000000013 654.57 315.8600000000001 652.1800000000001 C 330.96000000000015 644.7700000000001 341.1200000000001 631.6500000000001 352.6100000000001 620.1500000000001 C 362.1100000000001 610.6500000000001 367.34000000000015 598.8100000000001 368.09000000000015 585.2700000000001 C 368.35000000000014 580.7100000000002 370.03000000000014 577.2 373.02000000000015 573.7300000000001 C 381.51000000000016 563.8800000000001 386.19000000000017 552.3300000000002 386.45000000000016 539.2500000000001 C 386.66000000000014 528.7000000000002 386.63000000000017 518.1400000000001 386.47000000000014 507.5800000000001 C 386.27 494.5 381.77 482.86 373.22 473.05 z M 329.48 525.02 C 328.06 578.11 284.24 620.28 232.27000000000004 618.5699999999999 C 178.36000000000004 616.79 137.65000000000003 573.2399999999999 139.22000000000003 519 C 140.67000000000002 468.82 185.27000000000004 426.48 235.19000000000003 427.89 C 289.01 429.41 330.88 472.55 329.48 525.02 z" stroke-linecap="round" />
</g>
		<g transform="matrix(1 0 0 1 18.6 -0.08)"  >
<path style="stroke: none; stroke-width: 1; stroke-dasharray: none; stroke-linecap: butt; stroke-dashoffset: 0; stroke-linejoin: miter; stroke-miterlimit: 4; fill: rgb(229,117,38); fill-rule: nonzero; opacity: 1;" vector-effect="non-scaling-stroke"  transform=" translate(-418.6, -399.91)" d="M 717.84 379.36 C 716.0600000000001 364.86 705 353.49 690.48 351.35 C 682.23 350.14000000000004 673.95 350.88 665.6800000000001 350.75 C 662.83 350.71 661.1500000000001 350.51 661.1500000000001 346.84 C 661.1400000000001 310.83 660.8800000000001 274.82 660.8900000000001 238.79999999999995 C 660.8900000000001 231.97999999999996 664.3800000000001 227.16999999999996 671.1200000000001 224.84999999999997 C 676.2800000000001 223.06999999999996 681.5500000000001 222.55999999999997 686.9500000000002 222.30999999999997 C 696.8700000000001 221.84999999999997 703.6500000000002 214.95999999999998 703.4800000000001 205.87999999999997 C 703.3000000000002 196.91999999999996 695.9500000000002 190.16999999999996 686.1600000000001 190.32999999999996 C 681.6300000000001 190.39999999999995 677.0500000000001 190.73999999999995 672.58 191.49999999999994 C 651.7900000000001 195.00999999999993 636.63 205.44999999999993 630.4100000000001 226.54999999999995 C 627.71 235.69999999999996 629.2400000000001 244.99999999999994 629.3000000000001 254.27999999999994 C 629.4900000000001 284.28999999999996 629.2400000000001 314.30999999999995 629.5000000000001 344.31999999999994 C 629.5400000000001 349.4099999999999 628.3400000000001 350.87999999999994 623.1100000000001 350.85999999999996 C 573.0200000000001 350.65999999999997 522.9300000000001 350.67999999999995 472.84000000000015 350.84999999999997 C 468.67000000000013 350.85999999999996 466.72000000000014 349.65999999999997 465.10000000000014 345.80999999999995 C 448.9400000000001 307.17999999999995 432.73000000000013 268.5799999999999 416.22000000000014 230.09999999999997 C 406.3000000000001 206.98999999999995 397.98000000000013 183.13999999999996 385.6800000000001 161.10999999999996 C 372.1100000000001 136.79999999999995 352.2600000000001 123.75999999999996 323.2500000000001 124.26999999999995 C 275.4500000000001 125.10999999999996 227.62000000000012 124.49999999999996 179.81000000000012 124.49999999999996 C 173.80000000000013 124.49999999999996 167.7900000000001 124.88999999999996 162.02000000000012 126.51999999999995 C 134.79000000000013 134.22999999999996 119.40000000000012 154.91999999999996 119.37000000000012 183.87999999999994 C 119.32000000000012 249.69999999999993 119.35000000000012 315.53 119.40000000000012 381.3499999999999 C 119.40000000000012 382.8499999999999 118.62000000000012 384.5999999999999 120.88000000000012 386.6099999999999 C 122.01000000000012 385.1299999999999 123.02000000000012 383.5699999999999 124.25000000000013 382.2199999999999 C 137.42000000000013 367.8499999999999 153.42000000000013 359.37999999999994 173.23000000000013 359.1599999999999 C 175.94000000000014 359.12999999999994 177.28000000000014 357.44999999999993 178.90000000000012 355.94999999999993 C 187.7600000000001 347.7299999999999 198.06000000000012 342.30999999999995 209.98000000000013 340.2699999999999 C 224.98000000000013 337.69999999999993 240.13000000000014 339.2199999999999 255.21000000000012 339.11999999999995 C 271.85000000000014 339.0199999999999 286.2700000000001 345.0799999999999 298.3700000000001 356.47999999999996 C 300.29000000000013 358.28999999999996 302.22000000000014 359.09 304.9000000000001 359.17999999999995 C 320.5700000000001 359.71999999999997 334.4200000000001 365.13999999999993 345.86000000000007 375.90999999999997 C 354.75000000000006 384.27 363.37000000000006 392.93999999999994 371.7900000000001 401.78 C 382.7700000000001 413.30999999999995 388.56000000000006 427.2 388.94000000000005 443.16999999999996 C 389.01000000000005 446.09 389.9100000000001 448.18999999999994 391.90000000000003 450.27 C 400.52000000000004 459.33 406.06000000000006 470.10999999999996 408.24 482.4 C 410.28000000000003 493.87 409.41 505.53 409.26 517.1 C 409.2 521.78 410.2 523.36 415.27 523.3100000000001 C 444.65999999999997 523.0400000000001 474.04999999999995 523.1600000000001 503.45 523.22 C 505.15 523.22 507.08 522.44 508.67 523.9 C 471.73 566.5899999999999 481.90000000000003 623.21 515.94 653.0799999999999 C 550.7700000000001 683.6399999999999 602.4100000000001 683.15 637.4200000000001 651.06 C 669.7600000000001 621.42 679.2900000000001 566.27 641.98 523.1299999999999 C 643.5500000000001 522.7199999999999 644.53 522.4199999999998 645.52 522.2099999999999 C 667.3 517.56 683.14 508.0199999999999 688.8199999999999 483.5299999999999 C 696.27 451.4299999999999 707.1099999999999 420.1099999999999 716.4399999999999 388.44999999999993 C 717.3 385.51 718.24 382.62 717.84 379.36 z M 393.19 312.31 C 356.36 312.18 319.53 312.23 282.7 312.23 C 282.7 312.13 282.7 312.02000000000004 282.7 311.92 C 246.29 311.92 209.87 311.82 173.45999999999998 312.04 C 168.70999999999998 312.07 167.74999999999997 310.76000000000005 167.77999999999997 306.22 C 167.97999999999996 271.46000000000004 167.83999999999997 236.70000000000005 167.90999999999997 201.94000000000003 C 167.95999999999998 177.22000000000003 183.53999999999996 161.64000000000004 208.18999999999997 161.61 C 239.63999999999996 161.56 271.09999999999997 162.12 302.53 161.41000000000003 C 322.28 160.96000000000004 335.78999999999996 169.63000000000002 344.77 186.24 C 354.29999999999995 203.86 360.85999999999996 222.84 368.76 241.20000000000002 C 378.21 263.17 387.15999999999997 285.35 396.59999999999997 307.32000000000005 C 398.5 311.73 397.52 312.32 393.19 312.31 z M 617.97 585.69 C 617.3000000000001 609.4300000000001 598.01 628.0400000000001 574.6600000000001 627.45 C 551.5100000000001 626.87 532.4300000000001 607.11 533.09 584.4300000000001 C 533.7800000000001 560.8100000000001 553.1700000000001 542.23 576.5500000000001 542.7800000000001 C 599.83 543.33 618.61 562.78 617.97 585.69 z" stroke-linecap="round" />
</g>
		<g transform="matrix(1 0 0 1 -165.57 123.25)"  >
<path style="stroke: none; stroke-width: 1; stroke-dasharray: none; stroke-linecap: butt; stroke-dashoffset: 0; stroke-linejoin: miter; stroke-miterlimit: 4; fill: rgb(229,117,38); fill-rule: nonzero; opacity: 1;" vector-effect="non-scaling-stroke"  transform=" translate(-234.43, -523.25)" d="M 235.75 470.89 C 206.84 469.97999999999996 182.53 492.64 181.96 522.48 C 181.41 551.08 203.65 574.94 233.57 575.61 C 262.03999999999996 576.38 285.89 553.3000000000001 286.89 524.03 C 287.84 496.11 264.44 471.79 235.75 470.89 z" stroke-linecap="round" />
</g>
		<g transform="matrix(1 0 0 1 -165.67 123.33)"  >
<path style="stroke: rgb(0,41,63); stroke-width: 15; stroke-dasharray: none; stroke-linecap: butt; stroke-dashoffset: 0; stroke-linejoin: miter; stroke-miterlimit: 10; fill: none; fill-rule: nonzero; opacity: 1;" vector-effect="non-scaling-stroke"  transform=" translate(-234.33, -523.33)" d="M 373.22 473.05 C 369.88000000000005 469.22 368.36 465.24 368.01000000000005 460.31 C 367.13000000000005 447.72 362.26000000000005 436.68 353.7300000000001 427.46 C 346.8400000000001 420.02 339.63000000000005 412.88 332.3300000000001 405.84 C 322.1900000000001 396.06 310.1600000000001 389.98999999999995 295.9400000000001 389.22999999999996 C 291.7200000000001 388.99999999999994 288.6400000000001 387.59 285.5600000000001 384.84 C 276.3300000000001 376.60999999999996 265.41000000000014 371.83 253.05000000000013 371.29999999999995 C 241.28000000000011 370.79999999999995 229.47000000000014 370.84 217.68000000000012 371.12999999999994 C 204.17000000000013 371.4599999999999 192.33000000000013 376.4699999999999 182.34000000000012 385.55999999999995 C 179.74000000000012 387.91999999999996 177.0700000000001 388.9599999999999 173.55000000000013 389.15999999999997 C 161.6900000000001 389.80999999999995 151.03000000000011 393.86999999999995 141.74000000000012 401.38 C 132.53000000000011 408.82 124.70000000000013 417.68 116.33000000000013 425.98 C 109.14000000000013 433.11 103.57000000000012 441.63 102.18000000000012 451.61 C 100.66000000000012 462.48 97.51000000000012 472.11 90.25000000000011 480.48 C 85.60000000000011 485.84000000000003 85.46000000000011 493.42 82.0700000000001 499.48 C 82.0700000000001 515.21 82.0700000000001 530.95 82.0700000000001 546.6800000000001 C 85.3700000000001 554.1200000000001 86.5900000000001 562.6400000000001 91.99000000000011 568.95 C 97.55000000000011 575.46 101.05000000000011 582.1500000000001 101.14000000000011 591.0500000000001 C 101.19000000000011 595.96 103.52000000000011 600.97 105.92000000000012 605.6300000000001 C 113.91000000000011 621.1400000000001 127.48000000000012 631.6400000000001 139.71000000000012 643.2700000000001 C 149.30000000000013 652.4000000000001 161.1600000000001 657.0500000000001 174.52000000000012 657.2800000000001 C 177.4400000000001 657.33 179.58000000000013 658.4300000000001 181.64000000000013 660.34 C 193.28000000000014 671.12 207.23000000000013 675.8100000000001 222.9400000000001 675.73 C 231.43000000000012 675.69 239.9100000000001 675.8000000000001 248.40000000000012 675.69 C 260.73000000000013 675.5200000000001 272.2600000000001 672.12 281.8900000000001 664.5200000000001 C 287.6200000000001 660.0000000000001 292.8900000000001 656.7400000000001 300.5700000000001 656.7900000000001 C 305.7500000000001 656.82 310.98000000000013 654.57 315.8600000000001 652.1800000000001 C 330.96000000000015 644.7700000000001 341.1200000000001 631.6500000000001 352.6100000000001 620.1500000000001 C 362.1100000000001 610.6500000000001 367.34000000000015 598.8100000000001 368.09000000000015 585.2700000000001 C 368.35000000000014 580.7100000000002 370.03000000000014 577.2 373.02000000000015 573.7300000000001 C 381.51000000000016 563.8800000000001 386.19000000000017 552.3300000000002 386.45000000000016 539.2500000000001 C 386.66000000000014 528.7000000000002 386.63000000000017 518.1400000000001 386.47000000000014 507.5800000000001 C 386.27 494.5 381.77 482.86 373.22 473.05 z M 329.48 525.02 C 328.06 578.11 284.24 620.28 232.27000000000004 618.5699999999999 C 178.36000000000004 616.79 137.65000000000003 573.2399999999999 139.22000000000003 519 C 140.67000000000002 468.82 185.27000000000004 426.48 235.19000000000003 427.89 C 289.01 429.41 330.88 472.55 329.48 525.02 z" stroke-linecap="round" />
</g>
		<g transform="matrix(1 0 0 1 18.6 -0.08)"  >
<path style="stroke: rgb(0,41,63); stroke-width: 15; stroke-dasharray: none; stroke-linecap: butt; stroke-dashoffset: 0; stroke-linejoin: miter; stroke-miterlimit: 10; fill: none; fill-rule: nonzero; opacity: 1;" vector-effect="non-scaling-stroke"  transform=" translate(-418.6, -399.91)" d="M 717.84 379.36 C 716.0600000000001 364.86 705 353.49 690.48 351.35 C 682.23 350.14000000000004 673.95 350.88 665.6800000000001 350.75 C 662.83 350.71 661.1500000000001 350.51 661.1500000000001 346.84 C 661.1400000000001 310.83 660.8800000000001 274.82 660.8900000000001 238.79999999999995 C 660.8900000000001 231.97999999999996 664.3800000000001 227.16999999999996 671.1200000000001 224.84999999999997 C 676.2800000000001 223.06999999999996 681.5500000000001 222.55999999999997 686.9500000000002 222.30999999999997 C 696.8700000000001 221.84999999999997 703.6500000000002 214.95999999999998 703.4800000000001 205.87999999999997 C 703.3000000000002 196.91999999999996 695.9500000000002 190.16999999999996 686.1600000000001 190.32999999999996 C 681.6300000000001 190.39999999999995 677.0500000000001 190.73999999999995 672.58 191.49999999999994 C 651.7900000000001 195.00999999999993 636.63 205.44999999999993 630.4100000000001 226.54999999999995 C 627.71 235.69999999999996 629.2400000000001 244.99999999999994 629.3000000000001 254.27999999999994 C 629.4900000000001 284.28999999999996 629.2400000000001 314.30999999999995 629.5000000000001 344.31999999999994 C 629.5400000000001 349.4099999999999 628.3400000000001 350.87999999999994 623.1100000000001 350.85999999999996 C 573.0200000000001 350.65999999999997 522.9300000000001 350.67999999999995 472.84000000000015 350.84999999999997 C 468.67000000000013 350.85999999999996 466.72000000000014 349.65999999999997 465.10000000000014 345.80999999999995 C 448.9400000000001 307.17999999999995 432.73000000000013 268.5799999999999 416.22000000000014 230.09999999999997 C 406.3000000000001 206.98999999999995 397.98000000000013 183.13999999999996 385.6800000000001 161.10999999999996 C 372.1100000000001 136.79999999999995 352.2600000000001 123.75999999999996 323.2500000000001 124.26999999999995 C 275.4500000000001 125.10999999999996 227.62000000000012 124.49999999999996 179.81000000000012 124.49999999999996 C 173.80000000000013 124.49999999999996 167.7900000000001 124.88999999999996 162.02000000000012 126.51999999999995 C 134.79000000000013 134.22999999999996 119.40000000000012 154.91999999999996 119.37000000000012 183.87999999999994 C 119.32000000000012 249.69999999999993 119.35000000000012 315.53 119.40000000000012 381.3499999999999 C 119.40000000000012 382.8499999999999 118.62000000000012 384.5999999999999 120.88000000000012 386.6099999999999 C 122.01000000000012 385.1299999999999 123.02000000000012 383.5699999999999 124.25000000000013 382.2199999999999 C 137.42000000000013 367.8499999999999 153.42000000000013 359.37999999999994 173.23000000000013 359.1599999999999 C 175.94000000000014 359.12999999999994 177.28000000000014 357.44999999999993 178.90000000000012 355.94999999999993 C 187.7600000000001 347.7299999999999 198.06000000000012 342.30999999999995 209.98000000000013 340.2699999999999 C 224.98000000000013 337.69999999999993 240.13000000000014 339.2199999999999 255.21000000000012 339.11999999999995 C 271.85000000000014 339.0199999999999 286.2700000000001 345.0799999999999 298.3700000000001 356.47999999999996 C 300.29000000000013 358.28999999999996 302.22000000000014 359.09 304.9000000000001 359.17999999999995 C 320.5700000000001 359.71999999999997 334.4200000000001 365.13999999999993 345.86000000000007 375.90999999999997 C 354.75000000000006 384.27 363.37000000000006 392.93999999999994 371.7900000000001 401.78 C 382.7700000000001 413.30999999999995 388.56000000000006 427.2 388.94000000000005 443.16999999999996 C 389.01000000000005 446.09 389.9100000000001 448.18999999999994 391.90000000000003 450.27 C 400.52000000000004 459.33 406.06000000000006 470.10999999999996 408.24 482.4 C 410.28000000000003 493.87 409.41 505.53 409.26 517.1 C 409.2 521.78 410.2 523.36 415.27 523.3100000000001 C 444.65999999999997 523.0400000000001 474.04999999999995 523.1600000000001 503.45 523.22 C 505.15 523.22 507.08 522.44 508.67 523.9 C 471.73 566.5899999999999 481.90000000000003 623.21 515.94 653.0799999999999 C 550.7700000000001 683.6399999999999 602.4100000000001 683.15 637.4200000000001 651.06 C 669.7600000000001 621.42 679.2900000000001 566.27 641.98 523.1299999999999 C 643.5500000000001 522.7199999999999 644.53 522.4199999999998 645.52 522.2099999999999 C 667.3 517.56 683.14 508.0199999999999 688.8199999999999 483.5299999999999 C 696.27 451.4299999999999 707.1099999999999 420.1099999999999 716.4399999999999 388.44999999999993 C 717.3 385.51 718.24 382.62 717.84 379.36 z M 393.19 312.31 C 356.36 312.18 319.53 312.23 282.7 312.23 C 282.7 312.13 282.7 312.02000000000004 282.7 311.92 C 246.29 311.92 209.87 311.82 173.45999999999998 312.04 C 168.70999999999998 312.07 167.74999999999997 310.76000000000005 167.77999999999997 306.22 C 167.97999999999996 271.46000000000004 167.83999999999997 236.70000000000005 167.90999999999997 201.94000000000003 C 167.95999999999998 177.22000000000003 183.53999999999996 161.64000000000004 208.18999999999997 161.61 C 239.63999999999996 161.56 271.09999999999997 162.12 302.53 161.41000000000003 C 322.28 160.96000000000004 335.78999999999996 169.63000000000002 344.77 186.24 C 354.29999999999995 203.86 360.85999999999996 222.84 368.76 241.20000000000002 C 378.21 263.17 387.15999999999997 285.35 396.59999999999997 307.32000000000005 C 398.5 311.73 397.52 312.32 393.19 312.31 z M 617.97 585.69 C 617.3000000000001 609.4300000000001 598.01 628.0400000000001 574.6600000000001 627.45 C 551.5100000000001 626.87 532.4300000000001 607.11 533.09 584.4300000000001 C 533.7800000000001 560.8100000000001 553.1700000000001 542.23 576.5500000000001 542.7800000000001 C 599.83 543.33 618.61 562.78 617.97 585.69 z" stroke-linecap="round" />
</g>
		<g transform="matrix(1 0 0 1 -165.57 123.25)"  >
<path style="stroke: rgb(0,41,63); stroke-width: 15; stroke-dasharray: none; stroke-linecap: butt; stroke-dashoffset: 0; stroke-linejoin: miter; stroke-miterlimit: 10; fill: none; fill-rule: nonzero; opacity: 1;" vector-effect="non-scaling-stroke"  transform=" translate(-234.43, -523.25)" d="M 235.75 470.89 C 206.84 469.97999999999996 182.53 492.64 181.96 522.48 C 181.41 551.08 203.65 574.94 233.57 575.61 C 262.03999999999996 576.38 285.89 553.3000000000001 286.89 524.03 C 287.84 496.11 264.44 471.79 235.75 470.89 z" stroke-linecap="round" />
</g>
</g>
</g>
</svg>