<?xml version="1.0" encoding="UTF-8" standalone="no" ?>
<!DOCTYPE svg PUBLIC "-//W3C//DTD SVG 1.1//EN" "http://www.w3.org/Graphics/SVG/1.1/DTD/svg11.dtd">
<svg xmlns="http://www.w3.org/2000/svg" xmlns:xlink="http://www.w3.org/1999/xlink" version="1.1" width="1080" height="1080" viewBox="0 0 1080 1080" xml:space="preserve">
<desc>Created with Fabric.js 5.2.4</desc>
<defs>
</defs>
<rect x="0" y="0" width="100%" height="100%" fill="transparent"></rect>
<g transform="matrix(1 0 0 1 540 540)" id="4a13ff8b-722c-4948-a65d-0b5cb88c8eff"  >
<rect style="stroke: none; stroke-width: 1; stroke-dasharray: none; stroke-linecap: butt; stroke-dashoffset: 0; stroke-linejoin: miter; stroke-miterlimit: 4; fill: rgb(255,255,255); fill-rule: nonzero; opacity: 1; visibility: hidden;" vector-effect="non-scaling-stroke"  x="-540" y="-540" rx="0" ry="0" width="1080" height="1080" />
</g>
<g transform="matrix(1 0 0 1 540 540)" id="9ff77a14-c407-4b38-b8d3-f3433fdd307c"  >
</g>
<g transform="matrix(1 0 0 1 540 540)"  >
<g style="" vector-effect="non-scaling-stroke"   >
		<g transform="matrix(1 0 0 1 0 0)"  >
<path style="stroke: none; stroke-width: 1; stroke-dasharray: none; stroke-linecap: butt; stroke-dashoffset: 0; stroke-linejoin: miter; stroke-miterlimit: 4; fill: rgb(229,117,38); fill-rule: nonzero; opacity: 1;" vector-effect="non-scaling-stroke"  transform=" translate(-399.99, -400)" d="M 682.81 464.93 C 679.1899999999999 463.22 677.89 460.51 677.9 456.65000000000003 C 677.9399999999999 447.81000000000006 678.11 438.96000000000004 677.84 430.12 C 677.5600000000001 420.94 674.23 412.7 666.15 408.2 C 659.4599999999999 404.46999999999997 658.17 399.71 658.18 392.76 C 658.3599999999999 307.77 658.25 222.78 658.3499999999999 137.79 C 658.3599999999999 124.99 656.2699999999999 117.63999999999999 638.3999999999999 117.67999999999999 C 479.7599999999999 118.00999999999999 321.1199999999999 117.86999999999999 162.47999999999985 117.86999999999999 C 160.35999999999984 117.86999999999999 158.24999999999986 117.82999999999998 156.12999999999985 117.91 C 148.18999999999986 118.22 143.73999999999984 122.22 142.61999999999986 130.07 C 142.20999999999987 132.93 142.30999999999986 135.82999999999998 142.30999999999986 138.70999999999998 C 142.29999999999987 177.73999999999998 142.30999999999986 216.77999999999997 142.30999999999986 255.80999999999997 C 142.30999999999986 302.34 142.28999999999985 348.88 142.33999999999986 395.40999999999997 C 142.34999999999985 400.04999999999995 141.90999999999985 403.89 137.03999999999985 406.43999999999994 C 127.05999999999985 411.67999999999995 122.80999999999985 420.56999999999994 122.70999999999985 431.60999999999996 C 122.63999999999986 439.29999999999995 122.49999999999986 446.99999999999994 122.74999999999986 454.67999999999995 C 122.91999999999986 459.81999999999994 121.48999999999985 463.30999999999995 116.49999999999986 465.7099999999999 C 108.10999999999986 469.7399999999999 104.24999999999986 476.75999999999993 104.28999999999985 486.19999999999993 C 104.41999999999985 517.3499999999999 104.39999999999985 548.4999999999999 104.29999999999986 579.65 C 104.26999999999985 587.85 107.58999999999986 594.09 114.07999999999986 598.8299999999999 C 118.05999999999986 601.7399999999999 122.51999999999985 603.4999999999999 127.43999999999986 603.7099999999999 C 131.60999999999984 603.8799999999999 133.09999999999985 605.8799999999999 133.07999999999984 609.9 C 133.00999999999985 624.3199999999999 133.02999999999983 638.74 133.06999999999985 653.16 C 133.07999999999984 657.31 131.31999999999985 659.05 127.18999999999986 659.01 C 122.77999999999986 658.97 118.32999999999986 658.64 113.95999999999985 659.53 C 107.16999999999985 660.91 103.88999999999984 665.16 104.37999999999985 671.76 C 104.85999999999986 678.17 108.37999999999985 681.58 115.22999999999985 682.16 C 118.10999999999984 682.4 120.99999999999984 682.29 123.87999999999985 682.29 C 308.28999999999985 682.29 492.6999999999998 682.29 677.1099999999999 682.29 C 679.2299999999999 682.29 681.3399999999999 682.3199999999999 683.4599999999999 682.26 C 691.2399999999999 682.02 693.15 680.65 695.6999999999999 673.53 C 695.6999999999999 671.61 695.6999999999999 669.68 695.6999999999999 667.76 C 692.2099999999999 661.56 686.56 660.71 680.0699999999999 660.83 C 666.0999999999999 661.1 666.0999999999999 660.9100000000001 666.0999999999999 647.13 C 666.0999999999999 633.53 666.0999999999999 619.9399999999999 666.0999999999999 606.34 C 666.0999999999999 604.07 665.55 601.7 669.3299999999999 601.9 C 682.8299999999999 602.62 691.0999999999999 595.66 695.6999999999999 583.52 C 695.6999999999999 549.67 695.6999999999999 515.8299999999999 695.6999999999999 481.97999999999996 C 694.9 473.67 690.04 468.34 682.81 464.93 z M 478.96 367.39 C 478.88 359.55 475.52 355.90999999999997 467.78999999999996 355.9 C 422.79999999999995 355.79999999999995 377.79999999999995 355.79999999999995 332.80999999999995 355.9 C 325.06999999999994 355.91999999999996 321.73999999999995 359.54999999999995 321.66999999999996 367.40999999999997 C 321.56999999999994 378.36999999999995 321.46 389.33 321.73999999999995 400.28999999999996 C 321.84 404.21999999999997 320.54999999999995 405.03 316.86999999999995 405.01 C 287.06999999999994 404.87 257.25999999999993 404.87 227.45999999999995 405.01 C 223.93999999999994 405.03 222.91999999999996 404.11 222.91999999999996 400.52 C 223.02999999999997 334.57 223.02999999999997 268.62 222.91999999999996 202.67 C 222.90999999999997 199.17 223.75999999999996 198.11999999999998 227.36999999999995 198.13 C 257.36999999999995 198.28 287.35999999999996 198.29 317.35999999999996 198.12 C 321.12999999999994 198.1 321.78 199.37 321.71 202.74 C 321.51 212.93 321.52 223.12 321.7 233.31 C 321.76 236.46 321.05 238.09 317.62 237.55 C 316.87 237.43 316.08 237.54000000000002 315.32 237.53 C 311.28 237.51 306.62 238.75 303.38 237.14000000000001 C 299.83 235.38000000000002 302.55 230.26000000000002 301.64 226.68 C 300.3 221.43 296.49 217.82 291.72999999999996 217.98000000000002 C 286.53 218.15 282.47999999999996 221.94000000000003 282.36999999999995 227.76000000000002 C 282.10999999999996 240.83 282.10999999999996 253.91000000000003 282.34 266.97 C 282.45 272.97 286.21 276.57000000000005 291.53 276.79 C 297.05999999999995 277.02000000000004 300.86999999999995 273.46000000000004 301.80999999999995 267.31 C 302.29999999999995 264.12 300.34999999999997 259.84 302.73999999999995 257.97 C 305.43999999999994 255.86 309.7699999999999 257.33000000000004 313.37999999999994 257.28000000000003 C 321.61999999999995 257.17 321.62999999999994 257.25000000000006 321.62999999999994 265.39000000000004 C 321.62999999999994 271.93000000000006 321.55999999999995 278.47 321.6499999999999 285.00000000000006 C 321.75999999999993 293.1000000000001 325.0899999999999 296.4700000000001 333.2899999999999 296.62000000000006 C 340.7899999999999 296.76000000000005 348.2999999999999 296.95000000000005 355.7799999999999 296.5400000000001 C 360.3099999999999 296.2900000000001 361.25999999999993 297.87000000000006 361.06999999999994 302.06000000000006 C 360.72999999999996 309.5400000000001 360.8999999999999 317.05000000000007 360.98999999999995 324.55000000000007 C 361.09 332.2100000000001 364.50999999999993 335.9800000000001 372.22999999999996 336.06000000000006 C 390.87999999999994 336.26000000000005 409.53 336.25000000000006 428.17999999999995 336.07000000000005 C 436.16999999999996 335.99000000000007 439.49999999999994 332.24000000000007 439.56999999999994 324.13000000000005 C 439.63999999999993 316.25000000000006 439.7199999999999 308.36000000000007 439.5199999999999 300.4800000000001 C 439.43999999999994 297.4000000000001 440.48999999999995 296.5300000000001 443.4699999999999 296.6000000000001 C 451.3499999999999 296.7700000000001 459.2399999999999 296.75000000000006 467.1199999999999 296.63000000000005 C 475.57999999999987 296.50000000000006 478.8599999999999 293.13000000000005 478.9399999999999 284.6000000000001 C 479.01999999999987 276.9100000000001 479.08999999999986 269.2100000000001 478.89999999999986 261.5300000000001 C 478.8199999999999 258.3900000000001 479.57999999999987 256.74000000000007 483.0099999999999 257.24000000000007 C 483.9499999999999 257.38000000000005 484.9299999999999 257.25000000000006 485.8899999999999 257.26000000000005 C 489.72999999999985 257.29 494.1899999999999 256.11000000000007 497.2599999999999 257.6700000000001 C 500.7299999999999 259.44000000000005 498.0499999999999 264.32000000000005 498.78999999999985 267.7800000000001 C 500.03999999999985 273.62000000000006 503.53999999999985 276.9700000000001 508.89999999999986 276.81000000000006 C 514.2299999999999 276.65000000000003 518.0799999999998 273.05000000000007 518.1999999999998 267.1000000000001 C 518.4499999999998 254.0300000000001 518.4399999999998 240.95000000000007 518.2099999999998 227.88000000000008 C 518.1099999999998 222.05000000000007 514.1299999999998 218.23000000000008 508.9499999999998 217.99000000000007 C 504.0299999999998 217.76000000000008 499.8299999999998 221.57000000000008 498.85999999999984 227.15000000000006 C 498.78999999999985 227.53000000000006 498.76999999999987 227.91000000000005 498.67999999999984 228.29000000000005 C 497.99999999999983 231.32000000000005 500.33999999999986 236.42000000000004 497.3799999999998 237.11000000000004 C 491.91999999999985 238.39000000000004 485.92999999999984 237.57000000000005 480.17999999999984 237.30000000000004 C 478.33999999999986 237.21000000000004 478.98999999999984 235.18000000000004 478.98999999999984 233.96000000000004 C 478.9399999999998 223.19000000000003 479.05999999999983 212.42000000000004 478.89999999999986 201.66000000000003 C 478.85999999999984 198.76000000000002 479.9499999999999 198.16000000000003 482.59999999999985 198.17000000000002 C 512.9799999999999 198.24 543.3599999999999 198.31 573.7399999999999 198.12 C 578.1599999999999 198.09 577.5799999999999 200.54 577.5799999999999 203.22 C 577.5699999999999 236.1 577.5699999999999 268.98 577.5699999999999 301.86 C 577.5699999999999 334.35 577.4799999999999 366.85 577.68 399.34000000000003 C 577.7099999999999 403.86 576.55 405.08000000000004 571.9899999999999 405.05 C 542.7599999999999 404.83 513.5399999999998 404.85 484.3099999999999 405.04 C 480.07999999999987 405.07 478.6899999999999 404.17 478.8499999999999 399.71000000000004 C 479.24 388.93 479.08 378.15 478.96 367.39 z M 582.02 661.02 C 521.4499999999999 660.88 460.89 660.92 400.32 660.92 C 339.95 660.92 279.57 660.87 219.2 661.03 C 214.60999999999999 661.04 213.04 660.26 213.16 655.24 C 213.54 639.1 213.38 622.94 213.24 606.79 C 213.21 603.39 213.57000000000002 601.8399999999999 217.73000000000002 601.8499999999999 C 339.44 601.9799999999999 461.15 601.9799999999999 582.86 601.8499999999999 C 586.95 601.8499999999999 587.42 603.3 587.39 606.7599999999999 C 587.24 623.0999999999999 587.13 639.4499999999998 587.4499999999999 655.7899999999998 C 587.52 660.28 586.17 661.03 582.02 661.02 z" stroke-linecap="round" />
</g>
		<g transform="matrix(1 0 0 1 -117.91 133.12)"  >
<path style="stroke: none; stroke-width: 1; stroke-dasharray: none; stroke-linecap: butt; stroke-dashoffset: 0; stroke-linejoin: miter; stroke-miterlimit: 4; fill: rgb(229,117,38); fill-rule: nonzero; opacity: 1;" vector-effect="non-scaling-stroke"  transform=" translate(-282.08, -533.11)" d="M 282.98 503.65 C 266.59000000000003 503.16999999999996 252.97000000000003 516.11 252.65000000000003 532.47 C 252.33000000000004 548.64 265.65000000000003 562.36 281.90000000000003 562.59 C 297.57000000000005 562.8100000000001 311.08000000000004 549.83 311.51000000000005 534.13 C 311.97 517.44 299.52 504.14 282.98 503.65 z M 281.98 542.83 C 276.97 542.73 272.42 538.14 272.34000000000003 533.13 C 272.26000000000005 528.04 276.58000000000004 523.56 281.74 523.37 C 287.28000000000003 523.17 291.79 527.41 291.86 532.9 C 291.92 538.26 287.28 542.94 281.98 542.83 z" stroke-linecap="round" />
</g>
		<g transform="matrix(1 0 0 1 118.52 133.1)"  >
<path style="stroke: none; stroke-width: 1; stroke-dasharray: none; stroke-linecap: butt; stroke-dashoffset: 0; stroke-linejoin: miter; stroke-miterlimit: 4; fill: rgb(229,117,38); fill-rule: nonzero; opacity: 1;" vector-effect="non-scaling-stroke"  transform=" translate(-518.52, -533.1)" d="M 518.66 503.6 C 502.46 503.49 489.26 516.4 489.07 532.53 C 488.88 548.92 501.95 562.39 518.26 562.5899999999999 C 534.1 562.79 547.66 549.5099999999999 547.96 533.4999999999999 C 548.27 517.23 535.03 503.72 518.66 503.6 z M 518.17 542.78 C 512.9799999999999 542.5899999999999 508.72999999999996 538.18 508.74999999999994 532.99 C 508.75999999999993 527.51 513.25 523.2 518.78 523.35 C 523.9399999999999 523.49 528.29 527.9200000000001 528.28 533.02 C 528.26 538.3 523.42 542.98 518.17 542.78 z" stroke-linecap="round" />
</g>
		<g transform="matrix(1 0 0 1 -196.53 133.1)"  >
<path style="stroke: none; stroke-width: 1; stroke-dasharray: none; stroke-linecap: butt; stroke-dashoffset: 0; stroke-linejoin: miter; stroke-miterlimit: 4; fill: rgb(229,117,38); fill-rule: nonzero; opacity: 1;" vector-effect="non-scaling-stroke"  transform=" translate(-203.47, -533.1)" d="M 203.72 503.61 C 187.24 503.42 174.03 516.48 174.01 532.96 C 173.98999999999998 549.3100000000001 187.45999999999998 562.8000000000001 203.60999999999999 562.59 C 219.60999999999999 562.39 232.86999999999998 549.0300000000001 232.92 533.0600000000001 C 232.96 517.02 219.85 503.8 203.72 503.61 z M 203.39 542.82 C 198.29 542.82 193.82999999999998 538.45 193.7 533.3000000000001 C 193.54999999999998 527.7800000000001 197.86999999999998 523.35 203.39 523.35 C 208.57 523.35 213 527.58 213.19 532.73 C 213.38 537.9 208.61 542.81 203.39 542.82 z" stroke-linecap="round" />
</g>
		<g transform="matrix(1 0 0 1 197.15 133.11)"  >
<path style="stroke: none; stroke-width: 1; stroke-dasharray: none; stroke-linecap: butt; stroke-dashoffset: 0; stroke-linejoin: miter; stroke-miterlimit: 4; fill: rgb(229,117,38); fill-rule: nonzero; opacity: 1;" vector-effect="non-scaling-stroke"  transform=" translate(-597.15, -533.11)" d="M 598.04 503.65 C 581.66 503.19 568.06 516.11 567.6999999999999 532.49 C 567.3499999999999 548.39 580.1899999999999 561.82 596.4399999999999 562.55 C 612.16 563.26 626.1099999999999 550.0899999999999 626.5899999999999 534.0999999999999 C 627.08 517.45 614.58 504.12 598.04 503.65 z M 597.35 542.8 C 592.12 542.88 587.3100000000001 538.0699999999999 587.41 532.8499999999999 C 587.51 527.7399999999999 591.93 523.3899999999999 597.0899999999999 523.3299999999999 C 602.6199999999999 523.27 606.9899999999999 527.6399999999999 606.91 533.16 C 606.84 538.37 602.53 542.72 597.35 542.8 z" stroke-linecap="round" />
</g>
		<g transform="matrix(1 0 0 1 39.8 133.12)"  >
<path style="stroke: none; stroke-width: 1; stroke-dasharray: none; stroke-linecap: butt; stroke-dashoffset: 0; stroke-linejoin: miter; stroke-miterlimit: 4; fill: rgb(229,117,38); fill-rule: nonzero; opacity: 1;" vector-effect="non-scaling-stroke"  transform=" translate(-439.79, -533.12)" d="M 438.55 503.68 C 422.3 504.29 409.77 517.7 410.33000000000004 533.87 C 410.89000000000004 550.07 424.49000000000007 563.11 440.27000000000004 562.57 C 456.43000000000006 562.0200000000001 469.56000000000006 548.5 469.27000000000004 532.72 C 468.97 516.1 455.16 503.05 438.55 503.68 z M 439.24 542.76 C 434.02 542.47 429.98 538.11 430.06 532.84 C 430.14 527.26 434.54 523.13 440.16 523.36 C 445.36 523.57 449.57000000000005 528.01 449.46000000000004 533.1800000000001 C 449.36 538.52 444.52 543.05 439.24 542.76 z" stroke-linecap="round" />
</g>
		<g transform="matrix(1 0 0 1 -39.16 133.1)"  >
<path style="stroke: none; stroke-width: 1; stroke-dasharray: none; stroke-linecap: butt; stroke-dashoffset: 0; stroke-linejoin: miter; stroke-miterlimit: 4; fill: rgb(229,117,38); fill-rule: nonzero; opacity: 1;" vector-effect="non-scaling-stroke"  transform=" translate(-360.84, -533.1)" d="M 360.44 503.62 C 344.34 503.9 331.15 517.32 331.36 533.2 C 331.57 549.21 344.89 562.49 360.84000000000003 562.58 C 377.03000000000003 562.6700000000001 390.45000000000005 549.11 390.32000000000005 532.8100000000001 C 390.18 516.34 376.87 503.34 360.44 503.62 z M 361.06 542.78 C 355.77 542.88 351.09 538.1999999999999 351.17 532.89 C 351.25 527.46 355.83000000000004 523.18 361.34000000000003 523.38 C 366.67 523.58 370.63000000000005 527.78 370.56000000000006 533.16 C 370.49 538.38 366.24 542.69 361.06 542.78 z" stroke-linecap="round" />
</g>
		<g transform="matrix(1 0 0 1 0 0)"  >
<path style="stroke: none; stroke-width: 1; stroke-dasharray: none; stroke-linecap: butt; stroke-dashoffset: 0; stroke-linejoin: miter; stroke-miterlimit: 4; fill: rgb(0,41,63); fill-rule: nonzero; opacity: 1;" vector-effect="non-scaling-stroke"  transform=" translate(-399.99, -400)" d="M 682.81 464.93 C 679.1899999999999 463.22 677.89 460.51 677.9 456.65000000000003 C 677.9399999999999 447.81000000000006 678.11 438.96000000000004 677.84 430.12 C 677.5600000000001 420.94 674.23 412.7 666.15 408.2 C 659.4599999999999 404.46999999999997 658.17 399.71 658.18 392.76 C 658.3599999999999 307.77 658.25 222.78 658.3499999999999 137.79 C 658.3599999999999 124.99 656.2699999999999 117.63999999999999 638.3999999999999 117.67999999999999 C 479.7599999999999 118.00999999999999 321.1199999999999 117.86999999999999 162.47999999999985 117.86999999999999 C 160.35999999999984 117.86999999999999 158.24999999999986 117.82999999999998 156.12999999999985 117.91 C 148.18999999999986 118.22 143.73999999999984 122.22 142.61999999999986 130.07 C 142.20999999999987 132.93 142.30999999999986 135.82999999999998 142.30999999999986 138.70999999999998 C 142.29999999999987 177.73999999999998 142.30999999999986 216.77999999999997 142.30999999999986 255.80999999999997 C 142.30999999999986 302.34 142.28999999999985 348.88 142.33999999999986 395.40999999999997 C 142.34999999999985 400.04999999999995 141.90999999999985 403.89 137.03999999999985 406.43999999999994 C 127.05999999999985 411.67999999999995 122.80999999999985 420.56999999999994 122.70999999999985 431.60999999999996 C 122.63999999999986 439.29999999999995 122.49999999999986 446.99999999999994 122.74999999999986 454.67999999999995 C 122.91999999999986 459.81999999999994 121.48999999999985 463.30999999999995 116.49999999999986 465.7099999999999 C 108.10999999999986 469.7399999999999 104.24999999999986 476.75999999999993 104.28999999999985 486.19999999999993 C 104.41999999999985 517.3499999999999 104.39999999999985 548.4999999999999 104.29999999999986 579.65 C 104.26999999999985 587.85 107.58999999999986 594.09 114.07999999999986 598.8299999999999 C 118.05999999999986 601.7399999999999 122.51999999999985 603.4999999999999 127.43999999999986 603.7099999999999 C 131.60999999999984 603.8799999999999 133.09999999999985 605.8799999999999 133.07999999999984 609.9 C 133.00999999999985 624.3199999999999 133.02999999999983 638.74 133.06999999999985 653.16 C 133.07999999999984 657.31 131.31999999999985 659.05 127.18999999999986 659.01 C 122.77999999999986 658.97 118.32999999999986 658.64 113.95999999999985 659.53 C 107.16999999999985 660.91 103.88999999999984 665.16 104.37999999999985 671.76 C 104.85999999999986 678.17 108.37999999999985 681.58 115.22999999999985 682.16 C 118.10999999999984 682.4 120.99999999999984 682.29 123.87999999999985 682.29 C 308.28999999999985 682.29 492.6999999999998 682.29 677.1099999999999 682.29 C 679.2299999999999 682.29 681.3399999999999 682.3199999999999 683.4599999999999 682.26 C 691.2399999999999 682.02 693.15 680.65 695.6999999999999 673.53 C 695.6999999999999 671.61 695.6999999999999 669.68 695.6999999999999 667.76 C 692.2099999999999 661.56 686.56 660.71 680.0699999999999 660.83 C 666.0999999999999 661.1 666.0999999999999 660.9100000000001 666.0999999999999 647.13 C 666.0999999999999 633.53 666.0999999999999 619.9399999999999 666.0999999999999 606.34 C 666.0999999999999 604.07 665.55 601.7 669.3299999999999 601.9 C 682.8299999999999 602.62 691.0999999999999 595.66 695.6999999999999 583.52 C 695.6999999999999 549.67 695.6999999999999 515.8299999999999 695.6999999999999 481.97999999999996 C 694.9 473.67 690.04 468.34 682.81 464.93 z M 169.57 139.25 C 246.47 139.24 323.37 139.24 400.28 139.24 C 476.98999999999995 139.24 553.6999999999999 139.31 630.41 139.10000000000002 C 635.86 139.09000000000003 636.8399999999999 140.69000000000003 636.8299999999999 145.74 C 636.67 229.94 636.65 314.15 636.8699999999999 398.35 C 636.8899999999999 404.16 635.1999999999999 405.32000000000005 629.8699999999999 405.05 C 620.8599999999999 404.59000000000003 611.7899999999998 404.63 602.7699999999999 405.05 C 598.0699999999998 405.27000000000004 597.2199999999999 403.68 597.2199999999999 399.33 C 597.3599999999999 337.22999999999996 597.3199999999999 275.14 597.3199999999999 213.04 C 597.3199999999999 206.12 597.3399999999999 199.2 597.31 192.28 C 597.26 181.84 593.9599999999999 178.56 583.4599999999999 178.56 C 467.3399999999999 178.55 351.2199999999999 178.56 235.08999999999992 178.56 C 228.54999999999993 178.56 222.01999999999992 178.5 215.4799999999999 178.57 C 207.1999999999999 178.66 203.52999999999992 182.20999999999998 203.3199999999999 190.48999999999998 C 203.1599999999999 196.82999999999998 203.2899999999999 203.17999999999998 203.2899999999999 209.51999999999998 C 203.2899999999999 272.77 203.24999999999991 336.02 203.3799999999999 399.27 C 203.3899999999999 403.51 202.70999999999992 405.27 197.89999999999992 405.06 C 188.10999999999993 404.63 178.2899999999999 404.82 168.48999999999992 404.99 C 165.24999999999991 405.05 163.79999999999993 404.59000000000003 163.79999999999993 400.72 C 163.91999999999993 314.98 163.94999999999993 229.23000000000002 163.75999999999993 143.49 C 163.75 138.19 166.69 139.25 169.57 139.25 z M 478.96 367.39 C 478.88 359.55 475.52 355.90999999999997 467.78999999999996 355.9 C 422.79999999999995 355.79999999999995 377.79999999999995 355.79999999999995 332.80999999999995 355.9 C 325.06999999999994 355.91999999999996 321.73999999999995 359.54999999999995 321.66999999999996 367.40999999999997 C 321.56999999999994 378.36999999999995 321.46 389.33 321.73999999999995 400.28999999999996 C 321.84 404.21999999999997 320.54999999999995 405.03 316.86999999999995 405.01 C 287.06999999999994 404.87 257.25999999999993 404.87 227.45999999999995 405.01 C 223.93999999999994 405.03 222.91999999999996 404.11 222.91999999999996 400.52 C 223.02999999999997 334.57 223.02999999999997 268.62 222.91999999999996 202.67 C 222.90999999999997 199.17 223.75999999999996 198.11999999999998 227.36999999999995 198.13 C 257.36999999999995 198.28 287.35999999999996 198.29 317.35999999999996 198.12 C 321.12999999999994 198.1 321.78 199.37 321.71 202.74 C 321.51 212.93 321.52 223.12 321.7 233.31 C 321.76 236.46 321.05 238.09 317.62 237.55 C 316.87 237.43 316.08 237.54000000000002 315.32 237.53 C 311.28 237.51 306.62 238.75 303.38 237.14000000000001 C 299.83 235.38000000000002 302.55 230.26000000000002 301.64 226.68 C 300.3 221.43 296.49 217.82 291.72999999999996 217.98000000000002 C 286.53 218.15 282.47999999999996 221.94000000000003 282.36999999999995 227.76000000000002 C 282.10999999999996 240.83 282.10999999999996 253.91000000000003 282.34 266.97 C 282.45 272.97 286.21 276.57000000000005 291.53 276.79 C 297.05999999999995 277.02000000000004 300.86999999999995 273.46000000000004 301.80999999999995 267.31 C 302.29999999999995 264.12 300.34999999999997 259.84 302.73999999999995 257.97 C 305.43999999999994 255.86 309.7699999999999 257.33000000000004 313.37999999999994 257.28000000000003 C 321.61999999999995 257.17 321.62999999999994 257.25000000000006 321.62999999999994 265.39000000000004 C 321.62999999999994 271.93000000000006 321.55999999999995 278.47 321.6499999999999 285.00000000000006 C 321.75999999999993 293.1000000000001 325.0899999999999 296.4700000000001 333.2899999999999 296.62000000000006 C 340.7899999999999 296.76000000000005 348.2999999999999 296.95000000000005 355.7799999999999 296.5400000000001 C 360.3099999999999 296.2900000000001 361.25999999999993 297.87000000000006 361.06999999999994 302.06000000000006 C 360.72999999999996 309.5400000000001 360.8999999999999 317.05000000000007 360.98999999999995 324.55000000000007 C 361.09 332.2100000000001 364.50999999999993 335.9800000000001 372.22999999999996 336.06000000000006 C 390.87999999999994 336.26000000000005 409.53 336.25000000000006 428.17999999999995 336.07000000000005 C 436.16999999999996 335.99000000000007 439.49999999999994 332.24000000000007 439.56999999999994 324.13000000000005 C 439.63999999999993 316.25000000000006 439.7199999999999 308.36000000000007 439.5199999999999 300.4800000000001 C 439.43999999999994 297.4000000000001 440.48999999999995 296.5300000000001 443.4699999999999 296.6000000000001 C 451.3499999999999 296.7700000000001 459.2399999999999 296.75000000000006 467.1199999999999 296.63000000000005 C 475.57999999999987 296.50000000000006 478.8599999999999 293.13000000000005 478.9399999999999 284.6000000000001 C 479.01999999999987 276.9100000000001 479.08999999999986 269.2100000000001 478.89999999999986 261.5300000000001 C 478.8199999999999 258.3900000000001 479.57999999999987 256.74000000000007 483.0099999999999 257.24000000000007 C 483.9499999999999 257.38000000000005 484.9299999999999 257.25000000000006 485.8899999999999 257.26000000000005 C 489.72999999999985 257.29 494.1899999999999 256.11000000000007 497.2599999999999 257.6700000000001 C 500.7299999999999 259.44000000000005 498.0499999999999 264.32000000000005 498.78999999999985 267.7800000000001 C 500.03999999999985 273.62000000000006 503.53999999999985 276.9700000000001 508.89999999999986 276.81000000000006 C 514.2299999999999 276.65000000000003 518.0799999999998 273.05000000000007 518.1999999999998 267.1000000000001 C 518.4499999999998 254.0300000000001 518.4399999999998 240.95000000000007 518.2099999999998 227.88000000000008 C 518.1099999999998 222.05000000000007 514.1299999999998 218.23000000000008 508.9499999999998 217.99000000000007 C 504.0299999999998 217.76000000000008 499.8299999999998 221.57000000000008 498.85999999999984 227.15000000000006 C 498.78999999999985 227.53000000000006 498.76999999999987 227.91000000000005 498.67999999999984 228.29000000000005 C 497.99999999999983 231.32000000000005 500.33999999999986 236.42000000000004 497.3799999999998 237.11000000000004 C 491.91999999999985 238.39000000000004 485.92999999999984 237.57000000000005 480.17999999999984 237.30000000000004 C 478.33999999999986 237.21000000000004 478.98999999999984 235.18000000000004 478.98999999999984 233.96000000000004 C 478.9399999999998 223.19000000000003 479.05999999999983 212.42000000000004 478.89999999999986 201.66000000000003 C 478.85999999999984 198.76000000000002 479.9499999999999 198.16000000000003 482.59999999999985 198.17000000000002 C 512.9799999999999 198.24 543.3599999999999 198.31 573.7399999999999 198.12 C 578.1599999999999 198.09 577.5799999999999 200.54 577.5799999999999 203.22 C 577.5699999999999 236.1 577.5699999999999 268.98 577.5699999999999 301.86 C 577.5699999999999 334.35 577.4799999999999 366.85 577.68 399.34000000000003 C 577.7099999999999 403.86 576.55 405.08000000000004 571.9899999999999 405.05 C 542.7599999999999 404.83 513.5399999999998 404.85 484.3099999999999 405.04 C 480.07999999999987 405.07 478.6899999999999 404.17 478.8499999999999 399.71000000000004 C 479.24 388.93 479.08 378.15 478.96 367.39 z M 341.27 379.02 C 341.2 376.21999999999997 342.10999999999996 375.49 344.84999999999997 375.5 C 381.90999999999997 375.58 418.96999999999997 375.57 456.03 375.51 C 458.46999999999997 375.51 459.39 376.13 459.34 378.71 C 459.19 386.39 459.09999999999997 394.08 459.36999999999995 401.75 C 459.49999999999994 405.64 457.11999999999995 404.92 454.90999999999997 404.92 C 436.66999999999996 404.93 418.41999999999996 404.92 400.17999999999995 404.92 C 382.12999999999994 404.92 364.0799999999999 404.82 346.03 405 C 342.36999999999995 405.04 341.04999999999995 404.22 341.23999999999995 400.33 C 341.57 393.24 341.45 386.12 341.27 379.02 z M 341.2 203.27 C 341.14 198.67000000000002 342.68 198.09 346.7 198.11 C 382.43 198.26000000000002 418.16999999999996 198.26000000000002 453.9 198.11 C 457.9 198.09 459.46999999999997 198.63000000000002 459.40999999999997 203.26000000000002 C 459.11999999999995 226.12 459.11999999999995 248.98000000000002 459.40999999999997 271.84000000000003 C 459.46999999999997 276.48 457.91999999999996 277.05 453.90999999999997 277.01000000000005 C 436.03999999999996 276.80000000000007 418.17999999999995 276.9200000000001 400.30999999999995 276.9200000000001 C 382.43999999999994 276.9200000000001 364.56999999999994 276.81000000000006 346.7099999999999 277.01000000000005 C 342.7199999999999 277.05000000000007 341.12999999999994 276.52000000000004 341.18999999999994 271.86000000000007 C 341.49 249 341.48 226.13 341.2 203.27 z M 419.09 315.31 C 416.52 318.5 409.78999999999996 316.06 404.88 316.34 C 403.35 316.42999999999995 401.81 316.34999999999997 400.27 316.34999999999997 C 394.89 316.34999999999997 389.5 316.18999999999994 384.13 316.40999999999997 C 381.3 316.52 380.69 315.59 380.57 312.84999999999997 C 379.9 296.61999999999995 379.82 296.61999999999995 395.73 296.61999999999995 C 402.46000000000004 296.61999999999995 409.19 296.79999999999995 415.91 296.53999999999996 C 419.3 296.40999999999997 420.23 297.59999999999997 420.02000000000004 300.79999999999995 C 419.69 305.78 421.56 312.24 419.09 315.31 z M 144.1 457.57 C 144.54999999999998 448.94 144.32 440.27 144.19 431.62 C 144.10999999999999 426.75 146.28 424.47 151.1 424.6 C 152.25 424.63 153.41 424.6 154.56 424.6 C 318.36 424.6 482.16 424.6 645.96 424.6 C 655.87 424.6 656.38 425.11 656.38 434.97 C 656.38 442.08000000000004 656.38 449.20000000000005 656.38 456.31 C 656.38 464.03000000000003 656.38 464.03000000000003 648.9399999999999 464.03000000000003 C 613.3699999999999 464.03000000000003 577.81 464.03000000000003 542.2399999999999 464.03000000000003 C 494.9499999999999 464.03000000000003 447.64999999999986 464.03000000000003 400.3599999999999 464.03000000000003 C 317.1099999999999 464.03000000000003 233.8699999999999 463.98 150.6199999999999 464.16 C 145.3 464.19 143.83 462.8 144.1 457.57 z M 193.7 656.75 C 193.73 659.91 193.04 661.08 189.63 661.01 C 179.07999999999998 660.79 168.51 660.81 157.95999999999998 661 C 154.85999999999999 661.06 154.10999999999999 660.06 154.17 657.1 C 154.35 648.47 154.23999999999998 639.82 154.23999999999998 631.19 C 154.23999999999998 622.94 154.39 614.6800000000001 154.15999999999997 606.4300000000001 C 154.06999999999996 603.07 154.70999999999998 601.7600000000001 158.46999999999997 601.8700000000001 C 168.82999999999998 602.1600000000001 179.19999999999996 602.1000000000001 189.55999999999997 601.9000000000001 C 192.83999999999997 601.8400000000001 193.72999999999996 602.8400000000001 193.69999999999996 606.08 C 193.55 622.96 193.55 639.85 193.7 656.75 z M 582.02 661.02 C 521.4499999999999 660.88 460.89 660.92 400.32 660.92 C 339.95 660.92 279.57 660.87 219.2 661.03 C 214.60999999999999 661.04 213.04 660.26 213.16 655.24 C 213.54 639.1 213.38 622.94 213.24 606.79 C 213.21 603.39 213.57000000000002 601.8399999999999 217.73000000000002 601.8499999999999 C 339.44 601.9799999999999 461.15 601.9799999999999 582.86 601.8499999999999 C 586.95 601.8499999999999 587.42 603.3 587.39 606.7599999999999 C 587.24 623.0999999999999 587.13 639.4499999999998 587.4499999999999 655.7899999999998 C 587.52 660.28 586.17 661.03 582.02 661.02 z M 646.45 657.17 C 646.48 660.2299999999999 645.59 661.05 642.59 661 C 632.0300000000001 660.82 621.47 660.79 610.9200000000001 661.01 C 607.4300000000001 661.08 606.8600000000001 659.72 606.9300000000001 656.68 C 607.1 648.2399999999999 606.99 639.79 606.99 631.3399999999999 C 606.99 622.8899999999999 607.15 614.4399999999999 606.91 605.9999999999999 C 606.8199999999999 602.6499999999999 607.93 601.8399999999999 611.12 601.8899999999999 C 621.48 602.0799999999999 631.85 602.0599999999998 642.22 601.8899999999999 C 645.3100000000001 601.8399999999999 646.5 602.4799999999999 646.47 605.9099999999999 C 646.28 623 646.3 640.09 646.45 657.17 z M 667.33 582.3 C 578.11 582.3 488.90000000000003 582.3 399.68000000000006 582.3 C 311.0400000000001 582.3 222.40000000000006 582.3 133.76000000000005 582.3 C 124.93000000000005 582.3 124.57000000000005 581.9499999999999 124.56000000000004 573.3399999999999 C 124.56000000000004 546.04 124.55000000000004 518.7299999999999 124.57000000000005 491.42999999999995 C 124.57000000000005 484.53 125.26000000000005 483.80999999999995 132.12000000000006 483.80999999999995 C 310.94000000000005 483.79999999999995 489.76000000000005 483.79999999999995 668.5800000000002 483.80999999999995 C 675.3800000000001 483.80999999999995 676.0400000000002 484.53 676.0400000000002 491.5199999999999 C 676.0500000000002 518.8199999999999 676.0500000000002 546.1299999999999 676.0400000000002 573.43 C 676.04 581.85 675.6 582.3 667.33 582.3 z" stroke-linecap="round" />
</g>
		<g transform="matrix(1 0 0 1 -117.91 133.12)"  >
<path style="stroke: none; stroke-width: 1; stroke-dasharray: none; stroke-linecap: butt; stroke-dashoffset: 0; stroke-linejoin: miter; stroke-miterlimit: 4; fill: rgb(0,41,63); fill-rule: nonzero; opacity: 1;" vector-effect="non-scaling-stroke"  transform=" translate(-282.08, -533.11)" d="M 282.98 503.65 C 266.59000000000003 503.16999999999996 252.97000000000003 516.11 252.65000000000003 532.47 C 252.33000000000004 548.64 265.65000000000003 562.36 281.90000000000003 562.59 C 297.57000000000005 562.8100000000001 311.08000000000004 549.83 311.51000000000005 534.13 C 311.97 517.44 299.52 504.14 282.98 503.65 z M 281.98 542.83 C 276.97 542.73 272.42 538.14 272.34000000000003 533.13 C 272.26000000000005 528.04 276.58000000000004 523.56 281.74 523.37 C 287.28000000000003 523.17 291.79 527.41 291.86 532.9 C 291.92 538.26 287.28 542.94 281.98 542.83 z" stroke-linecap="round" />
</g>
		<g transform="matrix(1 0 0 1 118.52 133.1)"  >
<path style="stroke: none; stroke-width: 1; stroke-dasharray: none; stroke-linecap: butt; stroke-dashoffset: 0; stroke-linejoin: miter; stroke-miterlimit: 4; fill: rgb(0,41,63); fill-rule: nonzero; opacity: 1;" vector-effect="non-scaling-stroke"  transform=" translate(-518.52, -533.1)" d="M 518.66 503.6 C 502.46 503.49 489.26 516.4 489.07 532.53 C 488.88 548.92 501.95 562.39 518.26 562.5899999999999 C 534.1 562.79 547.66 549.5099999999999 547.96 533.4999999999999 C 548.27 517.23 535.03 503.72 518.66 503.6 z M 518.17 542.78 C 512.9799999999999 542.5899999999999 508.72999999999996 538.18 508.74999999999994 532.99 C 508.75999999999993 527.51 513.25 523.2 518.78 523.35 C 523.9399999999999 523.49 528.29 527.9200000000001 528.28 533.02 C 528.26 538.3 523.42 542.98 518.17 542.78 z" stroke-linecap="round" />
</g>
		<g transform="matrix(1 0 0 1 -196.53 133.1)"  >
<path style="stroke: none; stroke-width: 1; stroke-dasharray: none; stroke-linecap: butt; stroke-dashoffset: 0; stroke-linejoin: miter; stroke-miterlimit: 4; fill: rgb(0,41,63); fill-rule: nonzero; opacity: 1;" vector-effect="non-scaling-stroke"  transform=" translate(-203.47, -533.1)" d="M 203.72 503.61 C 187.24 503.42 174.03 516.48 174.01 532.96 C 173.98999999999998 549.3100000000001 187.45999999999998 562.8000000000001 203.60999999999999 562.59 C 219.60999999999999 562.39 232.86999999999998 549.0300000000001 232.92 533.0600000000001 C 232.96 517.02 219.85 503.8 203.72 503.61 z M 203.39 542.82 C 198.29 542.82 193.82999999999998 538.45 193.7 533.3000000000001 C 193.54999999999998 527.7800000000001 197.86999999999998 523.35 203.39 523.35 C 208.57 523.35 213 527.58 213.19 532.73 C 213.38 537.9 208.61 542.81 203.39 542.82 z" stroke-linecap="round" />
</g>
		<g transform="matrix(1 0 0 1 197.15 133.11)"  >
<path style="stroke: none; stroke-width: 1; stroke-dasharray: none; stroke-linecap: butt; stroke-dashoffset: 0; stroke-linejoin: miter; stroke-miterlimit: 4; fill: rgb(0,41,63); fill-rule: nonzero; opacity: 1;" vector-effect="non-scaling-stroke"  transform=" translate(-597.15, -533.11)" d="M 598.04 503.65 C 581.66 503.19 568.06 516.11 567.6999999999999 532.49 C 567.3499999999999 548.39 580.1899999999999 561.82 596.4399999999999 562.55 C 612.16 563.26 626.1099999999999 550.0899999999999 626.5899999999999 534.0999999999999 C 627.08 517.45 614.58 504.12 598.04 503.65 z M 597.35 542.8 C 592.12 542.88 587.3100000000001 538.0699999999999 587.41 532.8499999999999 C 587.51 527.7399999999999 591.93 523.3899999999999 597.0899999999999 523.3299999999999 C 602.6199999999999 523.27 606.9899999999999 527.6399999999999 606.91 533.16 C 606.84 538.37 602.53 542.72 597.35 542.8 z" stroke-linecap="round" />
</g>
		<g transform="matrix(1 0 0 1 39.8 133.12)"  >
<path style="stroke: none; stroke-width: 1; stroke-dasharray: none; stroke-linecap: butt; stroke-dashoffset: 0; stroke-linejoin: miter; stroke-miterlimit: 4; fill: rgb(0,41,63); fill-rule: nonzero; opacity: 1;" vector-effect="non-scaling-stroke"  transform=" translate(-439.79, -533.12)" d="M 438.55 503.68 C 422.3 504.29 409.77 517.7 410.33000000000004 533.87 C 410.89000000000004 550.07 424.49000000000007 563.11 440.27000000000004 562.57 C 456.43000000000006 562.0200000000001 469.56000000000006 548.5 469.27000000000004 532.72 C 468.97 516.1 455.16 503.05 438.55 503.68 z M 439.24 542.76 C 434.02 542.47 429.98 538.11 430.06 532.84 C 430.14 527.26 434.54 523.13 440.16 523.36 C 445.36 523.57 449.57000000000005 528.01 449.46000000000004 533.1800000000001 C 449.36 538.52 444.52 543.05 439.24 542.76 z" stroke-linecap="round" />
</g>
		<g transform="matrix(1 0 0 1 -39.16 133.1)"  >
<path style="stroke: none; stroke-width: 1; stroke-dasharray: none; stroke-linecap: butt; stroke-dashoffset: 0; stroke-linejoin: miter; stroke-miterlimit: 4; fill: rgb(0,41,63); fill-rule: nonzero; opacity: 1;" vector-effect="non-scaling-stroke"  transform=" translate(-360.84, -533.1)" d="M 360.44 503.62 C 344.34 503.9 331.15 517.32 331.36 533.2 C 331.57 549.21 344.89 562.49 360.84000000000003 562.58 C 377.03000000000003 562.6700000000001 390.45000000000005 549.11 390.32000000000005 532.8100000000001 C 390.18 516.34 376.87 503.34 360.44 503.62 z M 361.06 542.78 C 355.77 542.88 351.09 538.1999999999999 351.17 532.89 C 351.25 527.46 355.83000000000004 523.18 361.34000000000003 523.38 C 366.67 523.58 370.63000000000005 527.78 370.56000000000006 533.16 C 370.49 538.38 366.24 542.69 361.06 542.78 z" stroke-linecap="round" />
</g>
</g>
</g>
</svg>