<?xml version="1.0" encoding="UTF-8" standalone="no" ?>
<!DOCTYPE svg PUBLIC "-//W3C//DTD SVG 1.1//EN" "http://www.w3.org/Graphics/SVG/1.1/DTD/svg11.dtd">
<svg xmlns="http://www.w3.org/2000/svg" xmlns:xlink="http://www.w3.org/1999/xlink" version="1.1" width="1080" height="1080" viewBox="0 0 1080 1080" xml:space="preserve">
<desc>Created with Fabric.js 5.2.4</desc>
<defs>
</defs>
<rect x="0" y="0" width="100%" height="100%" fill="transparent"></rect>
<g transform="matrix(1 0 0 1 540 540)" id="4a13ff8b-722c-4948-a65d-0b5cb88c8eff"  >
<rect style="stroke: none; stroke-width: 1; stroke-dasharray: none; stroke-linecap: butt; stroke-dashoffset: 0; stroke-linejoin: miter; stroke-miterlimit: 4; fill: rgb(255,255,255); fill-rule: nonzero; opacity: 1; visibility: hidden;" vector-effect="non-scaling-stroke"  x="-540" y="-540" rx="0" ry="0" width="1080" height="1080" />
</g>
<g transform="matrix(1 0 0 1 540 540)" id="9ff77a14-c407-4b38-b8d3-f3433fdd307c"  >
</g>
<g transform="matrix(1 0 0 1 557.45 540)"  >
<g style="" vector-effect="non-scaling-stroke"   >
		<g transform="matrix(1 0 0 1 0 0)"  >
<path style="stroke: none; stroke-width: 1; stroke-dasharray: none; stroke-linecap: butt; stroke-dashoffset: 0; stroke-linejoin: miter; stroke-miterlimit: 4; fill: rgb(229,117,38); fill-rule: nonzero; opacity: 1;" vector-effect="non-scaling-stroke"  transform=" translate(-399.98, -400.01)" d="M 717.72 272.15 C 727.97 266.66999999999996 738.37 261.48999999999995 748.72 256.21999999999997 C 752.09 254.50999999999996 755.28 252.69999999999996 756.95 249.06999999999996 C 756.95 217.86999999999998 756.95 186.65999999999997 756.95 155.45999999999998 C 740.38 146.82 723.85 138.10999999999999 707.24 129.55999999999997 C 698.9300000000001 125.27999999999997 694.46 128.11999999999998 694.4 137.61999999999998 C 694.3199999999999 150.18999999999997 693.39 162.86999999999998 694.66 175.30999999999997 C 695.89 187.32999999999998 691.54 193.12999999999997 680.85 198.34999999999997 C 670.71 203.30999999999997 662.44 205.46999999999997 653.07 198.23999999999995 C 650.73 196.42999999999995 647.85 195.17999999999995 645.0400000000001 194.13999999999996 C 640.0500000000001 192.29999999999995 638.2300000000001 189.31999999999996 638.4300000000001 183.69999999999996 C 638.94 169.27999999999997 638.6 154.83999999999997 638.6 140.39999999999998 C 638.6 126.84999999999998 635.24 124.71999999999997 623.44 130.78999999999996 C 610.25 137.57999999999996 597.1800000000001 144.59999999999997 583.82 151.02999999999997 C 578.0200000000001 153.81999999999996 575.62 157.44999999999996 575.73 163.98999999999998 C 576.07 184.01 575.75 204.02999999999997 575.94 224.05999999999997 C 575.98 228.03999999999996 575.34 229.46999999999997 570.8000000000001 229.70999999999998 C 482.4100000000001 234.39999999999998 408.8800000000001 270.03999999999996 350.7300000000001 336.95 C 337.32000000000005 352.38 324.88000000000005 368.66999999999996 312.20000000000005 384.73 C 309.79 387.78000000000003 307.32000000000005 388.91 303.49000000000007 388.88 C 282.58000000000004 388.7 261.6700000000001 388.89 240.76000000000008 388.76 C 227.48000000000008 388.68 214.27000000000007 389.73 201.25000000000009 392.08 C 149.5900000000001 401.4 106.68000000000009 426.34999999999997 71.76000000000008 465.46 C 69.08000000000007 468.46 68.01000000000008 471.5 68.06000000000007 475.47999999999996 C 68.24000000000008 490.15 68.13000000000007 504.81999999999994 68.13000000000007 519.48 C 68.13000000000007 533.99 68.13000000000007 533.99 53.430000000000064 534.11 C 45.01000000000006 534.17 43.05000000000006 536.01 43.04000000000006 544.19 C 43.000000000000064 566.3100000000001 43.01000000000006 588.4300000000001 43.04000000000006 610.5500000000001 C 43.05000000000006 618.7600000000001 45.04000000000006 620.72 53.34000000000006 620.73 C 77.97000000000006 620.76 102.60000000000005 620.87 127.23000000000006 620.61 C 131.51000000000005 620.5600000000001 133.54000000000005 621.9 135.76000000000005 625.52 C 154.07000000000005 655.1999999999999 180.69000000000005 671.66 215.59000000000003 672.21 C 251.92000000000002 672.7900000000001 279.67 656.37 299.01000000000005 625.59 C 300.51000000000005 623.2 301.11000000000007 620.52 305.35 620.57 C 332.07000000000005 620.88 358.79 620.8000000000001 385.51 620.6600000000001 C 388.65 620.6400000000001 390.49 621.8700000000001 392.52 623.9800000000001 C 401.21999999999997 633.0400000000001 410.08 641.9400000000002 418.95 650.8300000000002 C 424.4 656.3000000000002 427.34999999999997 656.2500000000001 432.97999999999996 650.7500000000001 C 435.80999999999995 647.9900000000001 438.56999999999994 645.1600000000001 441.34 642.3400000000001 C 442.69 640.9600000000002 443.71999999999997 640.3300000000002 446.07 641.1700000000002 C 461.09999999999997 646.5700000000002 461.14 646.4500000000002 461.26 662.0300000000002 C 461.27 662.7300000000002 461.27 663.4300000000002 461.26 664.1300000000002 C 461.15999999999997 669.5400000000002 463.73 672.4200000000002 469.2 672.4300000000002 C 482.44 672.4600000000002 495.69 672.4500000000002 508.93 672.4300000000002 C 514.39 672.4200000000002 516.96 669.4800000000001 517.02 664.1600000000002 C 517.06 660.2000000000002 517.22 656.2300000000002 516.97 652.2900000000002 C 516.76 648.8500000000001 518.1 647.5400000000002 521.1700000000001 645.6300000000002 C 531.2500000000001 639.3800000000002 538.8900000000001 641.0900000000003 545.23 650.7700000000002 C 545.6 651.3400000000003 546.1800000000001 651.7900000000002 546.69 652.2600000000002 C 550.36 655.6100000000002 554.1300000000001 655.8900000000002 557.75 652.3000000000002 C 561.43 648.6500000000002 565.1 644.9800000000001 568.76 641.3200000000002 L 595.6 655.0900000000001 C 595.6 655.0900000000001 597.3000000000001 656.0800000000002 600.01 657.2100000000002 C 608.73 661.4900000000001 617.25 666.2100000000002 625.93 670.5900000000001 C 633.88 674.6000000000001 638.3599999999999 671.7600000000001 638.4 662.7000000000002 C 638.4599999999999 650.8400000000001 638.52 638.9800000000001 638.4499999999999 627.1200000000001 C 638.6199999999999 623.3300000000002 638.5899999999999 619.1500000000001 638.3199999999999 614.5100000000001 C 638.26 610.4500000000002 639.4499999999999 608.2800000000001 643.1899999999999 606.6200000000001 C 650.9999999999999 603.1600000000001 658.5799999999999 596.2400000000001 666.26 596.2300000000001 C 673.9399999999999 596.2200000000001 681.54 603.1000000000001 689.34 606.5800000000002 C 693.01 608.2200000000001 694.37 610.2900000000002 694.3000000000001 614.4200000000002 C 694.0400000000001 630.4800000000001 694.1500000000001 646.5500000000002 694.21 662.6100000000001 C 694.25 671.6300000000001 698.8100000000001 674.6800000000002 706.63 670.7400000000001 C 721.53 663.2500000000001 736.32 655.5100000000001 751.2 647.9700000000001 C 753.5600000000001 646.7800000000001 755.1800000000001 644.9100000000002 756.94 643.1000000000001 C 756.94 612.8300000000002 756.94 582.5600000000002 756.94 552.2800000000002 C 755.86 548.1000000000003 752.9100000000001 545.7900000000002 749.2 543.9700000000003 C 739.3900000000001 539.1600000000003 729.8100000000001 533.8500000000003 719.82 529.4600000000003 C 712.6700000000001 526.3100000000003 709.83 521.8800000000002 710.0400000000001 513.9200000000003 C 710.5500000000001 494.6100000000003 710.21 475.2800000000003 710.21 455.9600000000003 C 710.21 399.1500000000003 710.27 342.3500000000003 710.12 285.5400000000003 C 710.12 279.26 711.9 275.26 717.72 272.15 z M 124.7 465.6 C 114.52000000000001 465.74 104.33 465.63 94.07000000000001 465.63 C 101.75 454.54 129.66000000000003 445 150.43 446.45 C 145.84 459.08 137.24 465.43 124.7 465.6 z M 589.7 238.8 C 589.6 238.29000000000002 589.5400000000001 237.75 589.5400000000001 237.11 L 589.7 238.8 z M 419.46 388.79 C 411.82 388.8 404.18 388.79 396.53999999999996 388.79 C 387.51 388.79 378.47999999999996 388.67 369.45 388.85 C 366.28999999999996 388.91 365.17 388.24 365.03999999999996 384.73 C 364.52 370.09000000000003 367.78999999999996 366.43 382.28999999999996 366.43 C 394.78999999999996 366.43 407.29999999999995 366.42 419.79999999999995 366.43 C 429.65 366.44 434.93999999999994 370.45 434.81999999999994 377.77 C 434.7 385.08 429.54 388.78 419.46 388.79 z M 673.17 217.63 C 682.3299999999999 212.65 691.55 207.75 700.99 203.35 L 673.17 217.63 z" stroke-linecap="round" />
</g>
		<g transform="matrix(1 0 0 1 0 0)"  >
<path style="stroke: none; stroke-width: 1; stroke-dasharray: none; stroke-linecap: butt; stroke-dashoffset: 0; stroke-linejoin: miter; stroke-miterlimit: 4; fill: rgb(0,41,63); fill-rule: nonzero; opacity: 1;" vector-effect="non-scaling-stroke"  transform=" translate(-399.99, -400.01)" d="M 717.72 272.15 C 727.97 266.66999999999996 738.37 261.48999999999995 748.72 256.21999999999997 C 752.09 254.50999999999996 755.28 252.69999999999996 756.95 249.06999999999996 C 756.95 217.86999999999998 756.95 186.65999999999997 756.95 155.45999999999998 C 740.38 146.82 723.85 138.10999999999999 707.24 129.55999999999997 C 698.9300000000001 125.27999999999997 694.46 128.11999999999998 694.4 137.61999999999998 C 694.3199999999999 150.18999999999997 693.39 162.86999999999998 694.66 175.30999999999997 C 695.89 187.32999999999998 691.54 193.12999999999997 680.85 198.34999999999997 C 670.71 203.30999999999997 662.44 205.46999999999997 653.07 198.23999999999995 C 650.73 196.42999999999995 647.85 195.17999999999995 645.0400000000001 194.13999999999996 C 640.0500000000001 192.29999999999995 638.2300000000001 189.31999999999996 638.4300000000001 183.69999999999996 C 638.94 169.27999999999997 638.6 154.83999999999997 638.6 140.39999999999998 C 638.6 126.84999999999998 635.24 124.71999999999997 623.44 130.78999999999996 C 610.25 137.57999999999996 597.1800000000001 144.59999999999997 583.82 151.02999999999997 C 578.0200000000001 153.81999999999996 575.62 157.44999999999996 575.73 163.98999999999998 C 576.07 184.01 575.75 204.02999999999997 575.94 224.05999999999997 C 575.98 228.03999999999996 575.34 229.46999999999997 570.8100000000001 229.70999999999998 C 482.4200000000001 234.39999999999998 408.8900000000001 270.03999999999996 350.74000000000007 336.95 C 337.33000000000004 352.38 324.89000000000004 368.66999999999996 312.21000000000004 384.73 C 309.8 387.78000000000003 307.33000000000004 388.91 303.50000000000006 388.88 C 282.59000000000003 388.7 261.68000000000006 388.89 240.77000000000007 388.76 C 227.49000000000007 388.68 214.28000000000006 389.73 201.26000000000008 392.08 C 149.60000000000008 401.4 106.69000000000008 426.34999999999997 71.77000000000007 465.46 C 69.09000000000006 468.46 68.02000000000007 471.5 68.07000000000006 475.47999999999996 C 68.25000000000007 490.15 68.14000000000006 504.81999999999994 68.14000000000006 519.48 C 68.14000000000006 533.99 68.14000000000006 533.99 53.440000000000055 534.11 C 45.02000000000005 534.17 43.06000000000005 536.01 43.050000000000054 544.19 C 43.010000000000055 566.3100000000001 43.02000000000005 588.4300000000001 43.050000000000054 610.5500000000001 C 43.06000000000005 618.7600000000001 45.050000000000054 620.72 53.35000000000005 620.73 C 77.98000000000005 620.76 102.61000000000004 620.87 127.24000000000005 620.61 C 131.52000000000004 620.5600000000001 133.55000000000004 621.9 135.77000000000004 625.52 C 154.08000000000004 655.1999999999999 180.70000000000005 671.66 215.60000000000002 672.21 C 251.93 672.7900000000001 279.69000000000005 656.37 299.02000000000004 625.59 C 300.52000000000004 623.2 301.12000000000006 620.52 305.36 620.57 C 332.08000000000004 620.88 358.8 620.8000000000001 385.52 620.6600000000001 C 388.65999999999997 620.6400000000001 390.5 621.8700000000001 392.53 623.9800000000001 C 401.22999999999996 633.0400000000001 410.09 641.9400000000002 418.96 650.8300000000002 C 424.40999999999997 656.3000000000002 427.35999999999996 656.2500000000001 432.98999999999995 650.7500000000001 C 435.81999999999994 647.9900000000001 438.5799999999999 645.1600000000001 441.34999999999997 642.3400000000001 C 442.7 640.9600000000002 443.72999999999996 640.3300000000002 446.08 641.1700000000002 C 461.10999999999996 646.5700000000002 461.15 646.4500000000002 461.27 662.0300000000002 C 461.28 662.7300000000002 461.28 663.4300000000002 461.27 664.1300000000002 C 461.16999999999996 669.5400000000002 463.74 672.4200000000002 469.21 672.4300000000002 C 482.45 672.4600000000002 495.7 672.4500000000002 508.94 672.4300000000002 C 514.4 672.4200000000002 516.97 669.4800000000001 517.03 664.1600000000002 C 517.0699999999999 660.2000000000002 517.23 656.2300000000002 516.98 652.2900000000002 C 516.77 648.8500000000001 518.11 647.5400000000002 521.1800000000001 645.6300000000002 C 531.2600000000001 639.3800000000002 538.9000000000001 641.0900000000003 545.24 650.7700000000002 C 545.61 651.3400000000003 546.19 651.7900000000002 546.7 652.2600000000002 C 550.37 655.6100000000002 554.1400000000001 655.8900000000002 557.76 652.3000000000002 C 567.33 642.8000000000002 576.86 633.2500000000002 586.35 623.6700000000002 C 589.71 620.2800000000002 589.64 616.6000000000001 586.48 613.1700000000002 C 583.33 609.7500000000002 579.9200000000001 606.5800000000002 576.69 603.2400000000002 C 575.6300000000001 602.1500000000002 573.4300000000001 600.9700000000003 574.72 599.3100000000003 C 579 593.8100000000003 577.2 584.4300000000003 586.14 581.8300000000003 C 588.71 581.0800000000003 589.64 578.3100000000003 589.62 575.5200000000003 C 589.59 571.7900000000003 589.92 568.0400000000003 589.55 564.3500000000004 C 589.13 560.2200000000004 590.78 558.2000000000004 594.4499999999999 556.4300000000004 C 606.7599999999999 550.5000000000005 618.8 544.0000000000005 631.0999999999999 538.0200000000004 C 636.29 535.4900000000005 638.5699999999999 532.1400000000004 638.55 526.1100000000005 C 638.38 442.06000000000046 638.39 358.01000000000045 638.53 273.9600000000005 C 638.54 268.30000000000047 636.61 264.9700000000005 631.56 262.5000000000005 C 618.8599999999999 256.3000000000005 606.39 249.6300000000005 593.76 243.2900000000005 C 591.05 241.9300000000005 589.51 240.59000000000052 589.54 237.12000000000052 C 589.73 214.0700000000005 589.63 191.02000000000052 589.65 167.9700000000005 C 589.65 166.18000000000052 589.11 164.15000000000052 591.26 163.05000000000052 C 602.1 157.5300000000005 612.9399999999999 152.02000000000052 624.5699999999999 146.11000000000053 C 624.5699999999999 162.16000000000054 624.7299999999999 177.03000000000054 624.4799999999999 191.88000000000054 C 624.3899999999999 197.22000000000054 626.2399999999999 200.57000000000053 631.05 202.90000000000055 C 640.8499999999999 207.64000000000055 650.5999999999999 212.51000000000056 660.12 217.77000000000055 C 664.76 220.33000000000055 668.67 220.07000000000056 673.16 217.63000000000056 C 682.3199999999999 212.65000000000057 691.53 207.75000000000057 700.98 203.35000000000056 C 706.37 200.84000000000057 708.47 197.38000000000056 708.34 191.43000000000058 C 708.01 176.63000000000056 708.23 161.82000000000056 708.23 145.99000000000058 C 718.97 151.46000000000058 728.76 156.63000000000056 738.73 161.42000000000058 C 742.1800000000001 163.08000000000058 743.22 165.15000000000057 743.19 168.93000000000058 C 742.99 191.28000000000057 742.99 213.63000000000056 743.19 235.9800000000006 C 743.22 239.80000000000058 742.0500000000001 241.77000000000058 738.6400000000001 243.4400000000006 C 726.1600000000001 249.5600000000006 713.9200000000001 256.1600000000006 701.4300000000001 262.2600000000006 C 696.48 264.68000000000063 694.1800000000001 267.8400000000006 694.19 273.5900000000006 C 694.33 357.8700000000006 694.32 442.1600000000006 694.2 526.4400000000006 C 694.19 531.7900000000006 696.0500000000001 535.0300000000007 700.86 537.3900000000007 C 713.34 543.5000000000007 725.5500000000001 550.1800000000006 738.0600000000001 556.2200000000007 C 742.0200000000001 558.1300000000007 743.23 560.4400000000007 743.1800000000001 564.7300000000007 C 742.94 584.2800000000007 742.47 603.8700000000007 743.33 623.3900000000007 C 743.76 633.0600000000006 741.44 638.7700000000007 731.95 642.1900000000006 C 723.9200000000001 645.0800000000006 716.5600000000001 649.8300000000006 708.21 654.1100000000006 C 708.21 637.5700000000006 708.07 622.4400000000006 708.2900000000001 607.3200000000006 C 708.3600000000001 602.4700000000006 706.5300000000001 599.5400000000006 702.2800000000001 597.4400000000006 C 692.1100000000001 592.4000000000007 682.0200000000001 587.1900000000006 671.9900000000001 581.8700000000006 C 668.1300000000001 579.8200000000006 664.6500000000001 579.8700000000006 660.8100000000002 581.9100000000005 C 651.4100000000002 586.9300000000005 642.0400000000002 592.0600000000005 632.3700000000001 596.5100000000006 C 626.4200000000001 599.2400000000006 624.2700000000001 603.0800000000006 624.4400000000002 609.5400000000005 C 624.8200000000002 624.0600000000005 624.5600000000002 638.5900000000005 624.5600000000002 653.9900000000006 C 616.3700000000001 649.8300000000006 608.9900000000001 646.5000000000006 602.0400000000002 642.4300000000006 C 596.0600000000002 638.9300000000006 596.2800000000002 644.4200000000006 594.7400000000002 646.9900000000006 C 593.1500000000002 649.6400000000006 589.9900000000002 652.4600000000006 595.6100000000002 655.0900000000006 C 605.8900000000002 659.9000000000005 615.8000000000003 665.4700000000006 625.9400000000003 670.5900000000006 C 633.8900000000003 674.6000000000006 638.3700000000002 671.7600000000006 638.4100000000003 662.7000000000006 C 638.4900000000004 646.6400000000007 638.5700000000003 630.5700000000006 638.3300000000003 614.5100000000007 C 638.2700000000003 610.4500000000007 639.4600000000003 608.2800000000007 643.2000000000003 606.6200000000007 C 651.0100000000002 603.1600000000007 658.5900000000003 596.2400000000007 666.2700000000003 596.2300000000007 C 673.9500000000003 596.2200000000007 681.5500000000003 603.1000000000007 689.3500000000004 606.5800000000007 C 693.0200000000003 608.2200000000007 694.3800000000003 610.2900000000008 694.3100000000004 614.4200000000008 C 694.0500000000004 630.4800000000007 694.1600000000004 646.5500000000008 694.2200000000004 662.6100000000008 C 694.2600000000003 671.6300000000008 698.8200000000004 674.6800000000009 706.6400000000003 670.7400000000008 C 721.5500000000003 663.2500000000008 736.3300000000004 655.5100000000008 751.2100000000004 647.9700000000008 C 753.5700000000004 646.7800000000008 755.1900000000004 644.9100000000009 756.9500000000004 643.1000000000008 C 756.9500000000004 612.8300000000008 756.9500000000004 582.5600000000009 756.9500000000004 552.2800000000009 C 755.8700000000003 548.1000000000009 752.9200000000004 545.7900000000009 749.2100000000004 543.9700000000009 C 739.4000000000004 539.160000000001 729.8200000000004 533.8500000000009 719.8300000000004 529.460000000001 C 712.6800000000004 526.310000000001 709.8400000000004 521.8800000000009 710.0500000000004 513.920000000001 C 710.5600000000004 494.610000000001 710.2200000000004 475.280000000001 710.2200000000004 455.960000000001 C 710.2200000000004 399.150000000001 710.2800000000003 342.350000000001 710.1300000000003 285.540000000001 C 710.12 279.26 711.9 275.26 717.72 272.15 z M 150.43 446.45 C 145.84 459.08 137.25 465.41999999999996 124.7 465.59999999999997 C 114.52000000000001 465.73999999999995 104.33 465.62999999999994 94.07000000000001 465.62999999999994 C 101.75 454.55 129.66 445 150.43 446.45 z M 117.48 606.83 C 108.43 606.59 99.36 606.75 90.30000000000001 606.75 C 81.01000000000002 606.75 71.71000000000001 606.57 62.420000000000016 606.83 C 58.45000000000002 606.94 56.77000000000002 606.34 56.87000000000002 601.6800000000001 C 57.20000000000002 585.3900000000001 57.15000000000002 569.09 56.89000000000002 552.8000000000001 C 56.82000000000002 548.59 58.35000000000002 547.95 62.050000000000026 547.9900000000001 C 80.63000000000002 548.1600000000001 99.22000000000003 548.2100000000002 117.81000000000003 547.9600000000002 C 122.01000000000003 547.9100000000002 122.66000000000003 549.4200000000002 122.62000000000003 553.1300000000001 C 122.44000000000003 569.4200000000001 122.39000000000003 585.7200000000001 122.65000000000003 602.0100000000001 C 122.7 606.23 121.18 606.93 117.48 606.83 z M 216.7 658.45 C 172.51999999999998 658.21 136.39 621.58 136.49 577.11 C 136.59 532.51 173.32 496.13 218.01 496.38 C 262.23 496.62 298.33 533.23 298.21999999999997 577.72 C 298.1 622.35 261.41 658.69 216.7 658.45 z M 394.36 606.73 C 381.36 606.8000000000001 368.37 606.75 355.37 606.75 C 342.61 606.75 329.84000000000003 606.6 317.08 606.84 C 313.19 606.9100000000001 312.02 605.88 312.07 601.88 C 312.3 585.6 312.28 569.3199999999999 312.08 553.05 C 312.03 549.24 312.88 547.91 316.96 547.9699999999999 C 333.66999999999996 548.2099999999999 350.38 548.2699999999999 367.08 547.9399999999999 C 371.74 547.8499999999999 372.35999999999996 549.55 372.2 553.51 C 371.90999999999997 560.47 372.15 567.46 372.11 574.4399999999999 C 372.08000000000004 580.2499999999999 375 582.9599999999999 380.69 582.9 C 381.39 582.89 382.08 582.9 382.78 582.9 C 398.64 583 398.64 583 403.35999999999996 598.34 C 404.51 602.06 399.68 606.7 394.36 606.73 z M 587.64 544.13 C 577.67 547.23 573.6 553.82 575.48 564.16 C 575.95 566.74 575.6800000000001 569.1899999999999 572.47 570.2199999999999 C 570.58 570.8299999999999 569.49 572.6099999999999 569.0400000000001 574.3999999999999 C 566.95 582.8099999999998 563.46 590.5899999999999 559.3000000000001 598.1599999999999 C 556.8000000000001 602.7099999999998 559.58 605.9899999999999 562.6800000000001 609.1499999999999 C 571.69 618.3199999999998 571.6700000000001 618.3999999999999 562.6700000000001 627.3299999999998 C 559.2400000000001 630.7299999999998 555.8800000000001 636.0899999999998 552.0200000000001 636.5299999999999 C 549.0500000000001 636.8699999999999 545.2200000000001 631.0699999999998 542.0300000000001 627.7499999999999 C 538.3500000000001 623.9199999999998 534.5500000000001 623.7199999999999 530.1800000000001 626.3799999999999 C 524.61 629.7699999999999 518.6800000000001 632.5599999999998 512.33 633.9499999999999 C 505.45000000000005 635.4599999999999 502.81000000000006 639.0999999999999 503.05000000000007 646.1999999999999 C 503.4600000000001 658.4399999999999 503.13000000000005 658.4999999999999 490.99000000000007 658.43 C 485.93000000000006 658.4 479.55000000000007 659.91 476.20000000000005 657.43 C 473.03000000000003 655.0799999999999 475.36000000000007 648.3199999999999 475.27000000000004 643.51 C 475.19000000000005 638.62 473.20000000000005 635.71 468.39000000000004 634.47 C 461.41 632.6700000000001 454.68000000000006 630.1 448.55000000000007 626.28 C 443.57000000000005 623.17 439.7100000000001 624 435.6000000000001 628.0899999999999 C 426.1000000000001 637.56 425.9700000000001 637.43 416.5100000000001 627.9599999999999 C 406.7600000000001 618.1899999999999 406.6400000000001 618.0699999999999 416.3100000000001 608.2699999999999 C 420.2000000000001 604.3199999999998 420.8700000000001 600.5099999999999 418.0100000000001 595.8399999999999 C 414.3500000000001 589.8599999999999 411.6300000000001 583.42 410.0000000000001 576.6299999999999 C 408.6100000000001 570.8099999999998 405.2800000000001 568.8299999999999 399.5200000000001 568.8499999999999 C 386.0400000000001 568.8899999999999 386.0400000000001 568.7099999999999 386.0400000000001 555.1099999999999 C 386.0400000000001 541.3 386.0400000000001 541.1399999999999 399.86000000000007 541.06 C 405.70000000000005 541.03 408.7700000000001 538.6899999999999 410.0900000000001 532.9399999999999 C 411.5400000000001 526.5999999999999 413.99000000000007 520.4999999999999 417.49000000000007 514.9899999999999 C 420.94000000000005 509.5699999999999 420.25000000000006 505.3799999999999 415.5900000000001 500.8699999999999 C 406.4400000000001 492.01999999999987 406.5600000000001 491.7499999999999 415.7800000000001 482.7299999999999 C 419.2100000000001 479.3699999999999 422.12000000000006 473.3099999999999 426.30000000000007 473.5199999999999 C 429.82000000000005 473.68999999999994 433.18000000000006 479.13999999999993 436.4000000000001 482.44999999999993 C 439.8400000000001 485.98999999999995 443.4500000000001 486.4799999999999 447.6500000000001 483.98999999999995 C 453.8700000000001 480.30999999999995 460.4500000000001 477.36999999999995 467.4500000000001 475.66999999999996 C 473.2400000000001 474.25999999999993 475.2600000000001 470.9 475.2700000000001 465.15999999999997 C 475.2800000000001 451.66999999999996 475.4400000000001 451.66999999999996 488.9500000000001 451.66999999999996 C 502.8600000000001 451.66999999999996 503.0500000000001 451.66999999999996 503.0000000000001 465.52 C 502.98000000000013 471.37 505.0900000000001 474.54999999999995 510.8900000000001 475.87 C 517.2300000000001 477.31 523.3600000000001 479.71 528.82 483.26 C 534.59 487.02 538.84 485.83 543.4200000000001 481.03 C 551.8600000000001 472.17999999999995 552.0600000000001 472.35999999999996 560.6200000000001 480.95 C 564.0600000000002 484.40999999999997 569.6100000000001 487.53 570.3200000000002 491.5 C 571.0900000000001 495.81 564.7500000000001 498.69 561.4700000000001 502.12 C 557.8300000000002 505.92 557.4000000000001 509.55 560.1100000000001 514 C 563.7400000000001 519.97 566.4900000000001 526.4 568.1200000000001 533.2 C 569.4700000000001 538.86 572.6000000000001 541.5 578.4800000000001 541.1400000000001 C 582.6200000000001 540.8900000000001 586.8000000000002 541.0900000000001 590.9500000000002 541.0900000000001 C 591.0300000000002 541.4800000000001 591.1000000000001 541.8700000000001 591.1800000000002 542.2600000000001 C 590.01 542.89 588.9 543.74 587.64 544.13 z M 602.56 263.28 C 602.4799999999999 263.66999999999996 602.39 264.04999999999995 602.31 264.44 C 590.3599999999999 264.44 578.41 264.46 566.4599999999999 264.44 C 495.04999999999995 264.33 436.1199999999999 291.3 390.18999999999994 346.22 C 386.48999999999995 350.64000000000004 382.86999999999995 352.78000000000003 376.81999999999994 352.66 C 362.04999999999995 352.37 351.50999999999993 363.28000000000003 351.2199999999999 378.06 C 351.13999999999993 382.48 351.18999999999994 386.91 351.19999999999993 391.33 C 351.2199999999999 401.15 352.75999999999993 402.75 362.36999999999995 402.75 C 397.22999999999996 402.76 432.0899999999999 402.75 466.94999999999993 402.75 C 510.4099999999999 402.75 553.8699999999999 402.59 597.3199999999999 402.93 C 603.54 402.98 603.67 400.43 603.7099999999999 395.74 C 603.7499999999999 390.94 603.3699999999999 388.57 597.2699999999999 388.61 C 547.3199999999998 388.92 497.3599999999999 388.78000000000003 447.39999999999986 388.78000000000003 C 446.3699999999999 386.96000000000004 447.4999999999999 385.55 447.84999999999985 384.15000000000003 C 451.86999999999983 368.25000000000006 440.8199999999999 353.13000000000005 424.47999999999985 352.52000000000004 C 417.83999999999986 352.27000000000004 411.17999999999984 352.48 403.24999999999983 352.48 C 415.6999999999998 337.23 429.2699999999998 325.12 444.3799999999998 314.8 C 479.2599999999998 290.98 517.8999999999999 278.87 560.1099999999998 278.46000000000004 C 579.6299999999998 278.27000000000004 599.1499999999997 278.59000000000003 618.6699999999998 278.29 C 623.4999999999999 278.22 624.7899999999998 279.36 624.7799999999999 284.33000000000004 C 624.6099999999999 362.57000000000005 624.6099999999999 440.81000000000006 624.7799999999999 519.0600000000001 C 624.7899999999998 523.74 623.5299999999999 526.4000000000001 619.2399999999999 527.97 C 616.8599999999999 528.84 614.6899999999999 530.25 612.3999999999999 531.39 C 609.5599999999998 532.8 606.5999999999999 535.77 605.0499999999998 529.77 C 604.4399999999998 527.42 601.6299999999999 526.91 599.1699999999998 526.96 C 598.0099999999999 526.98 596.8499999999998 526.95 595.6799999999998 526.95 C 580.4999999999999 526.88 579.6099999999998 526.0500000000001 575.1799999999998 511.25000000000006 C 574.4099999999999 508.69000000000005 575.7499999999999 507.88000000000005 576.9299999999998 506.6600000000001 C 579.9899999999998 503.4800000000001 583.1399999999999 500.37000000000006 586.2799999999999 497.2600000000001 C 589.8599999999999 493.7200000000001 590.3099999999998 489.9400000000001 586.7099999999998 486.2700000000001 C 577.2599999999998 476.6400000000001 567.7299999999998 467.0900000000001 558.1499999999999 457.5900000000001 C 554.5999999999999 454.0700000000001 550.8099999999998 453.9800000000001 547.1199999999999 457.5300000000001 C 546.4499999999999 458.1700000000001 545.7999999999998 458.8400000000001 545.1299999999999 459.49000000000007 C 534.0299999999999 470.4000000000001 534.0899999999999 470.2800000000001 519.7699999999999 463.4800000000001 C 517.2199999999999 462.2700000000001 517.1599999999999 460.7700000000001 517.1799999999998 458.6500000000001 C 517.2199999999998 454.2300000000001 517.1899999999998 449.80000000000007 517.1799999999998 445.3800000000001 C 517.1799999999998 440.2800000000001 514.7199999999998 437.5700000000001 509.53999999999985 437.5700000000001 C 496.05999999999983 437.5600000000001 482.57999999999987 437.5600000000001 469.09999999999985 437.5700000000001 C 463.8899999999999 437.5800000000001 461.55999999999983 440.4500000000001 461.41999999999985 445.4400000000001 C 461.3899999999999 446.3700000000001 461.2599999999998 447.3300000000001 461.42999999999984 448.23000000000013 C 463.3899999999998 458.5600000000001 459.97999999999985 464.6900000000001 449.16999999999985 467.65000000000015 C 444.49999999999983 468.9300000000001 442.3899999999999 468.51000000000016 439.3199999999998 465.39000000000016 C 426.17999999999984 451.9900000000002 426.0999999999998 452.07000000000016 413.05999999999983 465.13000000000017 C 406.6499999999998 471.5500000000002 400.2099999999998 477.94000000000017 393.8399999999998 484.4100000000002 C 388.1299999999998 490.2100000000002 388.1999999999998 493.0200000000002 394.0099999999998 498.9800000000002 C 405.11999999999983 510.38000000000017 405.0399999999998 510.3400000000002 398.1499999999998 524.4300000000002 C 396.9699999999998 526.8500000000001 395.4399999999998 527.1100000000001 393.2299999999998 527.0700000000002 C 388.81999999999977 526.9800000000001 384.3999999999998 527.1000000000001 379.9799999999998 527.0400000000002 C 377.5199999999998 527.0100000000002 374.5799999999998 527.4100000000002 373.8999999999998 529.5800000000002 C 372.1399999999998 535.1600000000002 367.9199999999998 534.1300000000001 363.9699999999998 534.1300000000001 C 344.6799999999998 534.1500000000001 325.3899999999998 534.0400000000001 306.1099999999998 534.2400000000001 C 302.8999999999998 534.2700000000001 301.2899999999998 533.3300000000002 299.62999999999977 530.6100000000001 C 260.4699999999998 466.2600000000001 173.76999999999975 466.22000000000014 135.00999999999976 530.4800000000001 C 133.65999999999977 532.7100000000002 132.66999999999976 534.3600000000001 129.34999999999977 534.2900000000001 C 115.17999999999977 533.9800000000001 100.99999999999977 533.9800000000001 86.82999999999976 534.2500000000001 C 82.67999999999975 534.3300000000002 81.93999999999976 532.8700000000001 81.98999999999975 529.1100000000001 C 82.18999999999976 514.2100000000002 82.22999999999975 499.3000000000001 81.96999999999976 484.40000000000015 C 81.88999999999976 480.21000000000015 83.38999999999976 479.51000000000016 87.10999999999976 479.57000000000016 C 99.88999999999976 479.78000000000014 112.66999999999976 479.78000000000014 125.44999999999976 479.6100000000002 C 145.81999999999977 479.3300000000002 162.31999999999977 464.8000000000002 165.39999999999975 444.6800000000002 C 166.84999999999974 435.21000000000015 164.33999999999975 432.14000000000016 154.97999999999976 432.1600000000002 C 147.78999999999976 432.1800000000002 140.56999999999977 431.7600000000002 131.47999999999976 433.4300000000002 C 142.80999999999977 425.76000000000016 153.50999999999976 420.96000000000015 164.45999999999975 416.69000000000017 C 189.40999999999974 406.96000000000015 215.30999999999975 402.50000000000017 242.06999999999977 402.6600000000002 C 263.6799999999998 402.7900000000002 285.2999999999998 402.4500000000002 306.89999999999975 402.8300000000002 C 313.19999999999976 402.9400000000002 317.18999999999977 400.7500000000002 320.9899999999997 395.9500000000002 C 335.27999999999975 377.9100000000002 349.2999999999997 359.5800000000002 364.5499999999997 342.37000000000023 C 418.14999999999975 281.9000000000002 485.65999999999974 249.46000000000024 566.0699999999997 243.75000000000023 C 570.8499999999997 243.41000000000022 576.2099999999997 241.91000000000022 577.5699999999997 249.3900000000002 C 577.8299999999997 250.85000000000022 580.6299999999997 252.0300000000002 582.4399999999997 252.9900000000002 C 589.12 256.49 595.86 259.86 602.56 263.28 z M 419.8 366.44 C 429.65000000000003 366.45 434.94 370.46 434.82 377.78 C 434.7 385.08 429.54 388.78 419.46 388.78999999999996 C 411.82 388.79999999999995 404.18 388.78999999999996 396.53999999999996 388.78999999999996 C 387.51 388.78999999999996 378.47999999999996 388.66999999999996 369.45 388.84999999999997 C 366.28999999999996 388.90999999999997 365.17 388.23999999999995 365.03999999999996 384.72999999999996 C 364.52 370.09 367.78999999999996 366.42999999999995 382.28999999999996 366.42999999999995 C 394.79 366.44 407.3 366.43 419.8 366.44 z" stroke-linecap="round" />
</g>
		<g transform="matrix(1 0 0 1 89.26 155.05)"  >
<path style="stroke: none; stroke-width: 1; stroke-dasharray: none; stroke-linecap: butt; stroke-dashoffset: 0; stroke-linejoin: miter; stroke-miterlimit: 4; fill: rgb(0,41,63); fill-rule: nonzero; opacity: 1;" vector-effect="non-scaling-stroke"  transform=" translate(-489.24, -555.06)" d="M 489.55 499.19 C 458.75 499.07 433.62 523.97 433.49 554.74 C 433.36 585.59 458.23 610.79 488.93 610.92 C 519.71 611.05 544.88 586.0999999999999 545 555.3499999999999 C 545.12 524.5 520.26 499.31 489.55 499.19 z M 487.34 513.29 C 503.38 512.5999999999999 515.72 519.62 525.3199999999999 533.79 C 500.80999999999995 533.79 477.5199999999999 533.79 453.24999999999994 533.79 C 461.67 520.82 472.84 513.92 487.34 513.29 z M 531.13 553.4 C 531.96 576.9499999999999 512.8 596.99 489.17 596.9499999999999 C 465.56 596.92 446.43 576.7499999999999 447.35 553.2499999999999 C 447.52000000000004 548.8199999999999 449.12 547.9099999999999 453.14000000000004 547.9799999999999 C 465.19000000000005 548.2099999999999 477.25000000000006 548.06 489.30000000000007 548.06 C 501.36000000000007 548.06 513.4200000000001 548.2399999999999 525.46 547.9599999999999 C 529.73 547.88 530.98 549.14 531.13 553.4 z" stroke-linecap="round" />
</g>
		<g transform="matrix(1 0 0 1 -182.63 177.41)"  >
<path style="stroke: none; stroke-width: 1; stroke-dasharray: none; stroke-linecap: butt; stroke-dashoffset: 0; stroke-linejoin: miter; stroke-miterlimit: 4; fill: rgb(0,41,63); fill-rule: nonzero; opacity: 1;" vector-effect="non-scaling-stroke"  transform=" translate(-217.35, -577.42)" d="M 217.43 525.74 C 188.89000000000001 525.71 165.68 549.04 165.78 577.67 C 165.88 605.9 189.06 629.05 217.26 629.0899999999999 C 245.79999999999998 629.1299999999999 269.03 605.7699999999999 268.91999999999996 577.1399999999999 C 268.81 548.86 245.68 525.77 217.43 525.74 z M 216.9 615.12 C 196.23000000000002 614.92 179.53 597.79 179.72 576.96 C 179.91 556.25 197.01 539.51 217.79 539.71 C 238.45999999999998 539.9000000000001 255.17 557.0400000000001 254.97 577.85 C 254.78 598.55 237.65 615.32 216.9 615.12 z" stroke-linecap="round" />
</g>
</g>
</g>
</svg>