<?xml version="1.0" encoding="UTF-8" standalone="no" ?>
<!DOCTYPE svg PUBLIC "-//W3C//DTD SVG 1.1//EN" "http://www.w3.org/Graphics/SVG/1.1/DTD/svg11.dtd">
<svg xmlns="http://www.w3.org/2000/svg" xmlns:xlink="http://www.w3.org/1999/xlink" version="1.1" width="1080" height="1080" viewBox="0 0 1080 1080" xml:space="preserve">
<desc>Created with Fabric.js 5.2.4</desc>
<defs>
</defs>
<rect x="0" y="0" width="100%" height="100%" fill="transparent"></rect>
<g transform="matrix(1 0 0 1 540 540)" id="4a13ff8b-722c-4948-a65d-0b5cb88c8eff"  >
<rect style="stroke: none; stroke-width: 1; stroke-dasharray: none; stroke-linecap: butt; stroke-dashoffset: 0; stroke-linejoin: miter; stroke-miterlimit: 4; fill: rgb(255,255,255); fill-rule: nonzero; opacity: 1; visibility: hidden;" vector-effect="non-scaling-stroke"  x="-540" y="-540" rx="0" ry="0" width="1080" height="1080" />
</g>
<g transform="matrix(1 0 0 1 540 540)" id="9ff77a14-c407-4b38-b8d3-f3433fdd307c"  >
</g>
<g transform="matrix(1 0 0 1 540 540)"  >
<g style="" vector-effect="non-scaling-stroke"   >
		<g transform="matrix(1 0 0 1 0 0)"  >
<path style="stroke: none; stroke-width: 1; stroke-dasharray: none; stroke-linecap: butt; stroke-dashoffset: 0; stroke-linejoin: miter; stroke-miterlimit: 4; fill: rgb(229,117,38); fill-rule: nonzero; opacity: 1;" vector-effect="non-scaling-stroke"  transform=" translate(-399.99, -400)" d="M 556.95 72.96 L 517.7800000000001 74.19999999999999 L 517.9100000000001 151.17 L 477.6300000000001 221.38 L 475.4600000000001 656.0799999999999 C 449.36000000000007 676.8 431.2100000000001 625.8799999999999 431.2100000000001 625.8799999999999 L 371.3500000000001 625.7599999999999 L 358.2600000000001 643.5799999999999 C 356.6600000000001 645.7599999999999 355.1600000000001 647.9999999999999 353.6500000000001 650.2399999999999 C 344.0800000000001 664.4199999999998 336.5400000000001 659.0199999999999 324.49000000000007 646.93 L 322.36000000000007 221.37999999999994 L 282.08000000000004 151.16999999999996 L 282.21000000000004 74.19999999999996 L 243.04000000000002 72.95999999999997 L 241.82000000000002 163.21999999999997 L 250.34000000000003 184.93999999999997 L 252.69000000000003 239.86999999999998 L 286.95000000000005 291.84 L 295.54 727.03 L 324.89000000000004 727.04 L 324.59000000000003 666.67 C 335.04 687.7299999999999 390.40000000000003 689.8199999999999 395.72 690.2199999999999 C 446.23 692.18 471 675.0199999999999 475.41 663.8399999999999 L 475.09000000000003 727.04 L 504.44000000000005 727.03 L 513.0300000000001 291.84 L 547.2900000000001 239.86999999999998 L 549.6400000000001 184.93999999999997 L 558.1600000000001 163.21999999999997 L 556.95 72.96 z" stroke-linecap="round" />
</g>
		<g transform="matrix(1 0 0 1 0 0)"  >
<path style="stroke: rgb(0,41,63); stroke-width: 15; stroke-dasharray: none; stroke-linecap: butt; stroke-dashoffset: 0; stroke-linejoin: miter; stroke-miterlimit: 10; fill: none; fill-rule: nonzero; opacity: 1;" vector-effect="non-scaling-stroke"  transform=" translate(-399.99, -400)" d="M 556.95 72.96 L 517.7800000000001 74.19999999999999 L 517.9100000000001 151.17 L 477.6300000000001 221.38 L 475.4600000000001 656.0799999999999 C 449.36000000000007 676.8 431.2100000000001 625.8799999999999 431.2100000000001 625.8799999999999 L 371.3500000000001 625.7599999999999 L 358.2600000000001 643.5799999999999 C 356.6600000000001 645.7599999999999 355.1600000000001 647.9999999999999 353.6500000000001 650.2399999999999 C 344.0800000000001 664.4199999999998 336.5400000000001 659.0199999999999 324.49000000000007 646.93 L 322.36000000000007 221.37999999999994 L 282.08000000000004 151.16999999999996 L 282.21000000000004 74.19999999999996 L 243.04000000000002 72.95999999999997 L 241.82000000000002 163.21999999999997 L 250.34000000000003 184.93999999999997 L 252.69000000000003 239.86999999999998 L 286.95000000000005 291.84 L 295.54 727.03 L 324.89000000000004 727.04 L 324.59000000000003 666.67 C 335.04 687.7299999999999 390.40000000000003 689.8199999999999 395.72 690.2199999999999 C 446.23 692.18 471 675.0199999999999 475.41 663.8399999999999 L 475.09000000000003 727.04 L 504.44000000000005 727.03 L 513.0300000000001 291.84 L 547.2900000000001 239.86999999999998 L 549.6400000000001 184.93999999999997 L 558.1600000000001 163.21999999999997 L 556.95 72.96 z" stroke-linecap="round" />
</g>
</g>
</g>
</svg>