<?xml version="1.0" encoding="UTF-8" standalone="no" ?>
<!DOCTYPE svg PUBLIC "-//W3C//DTD SVG 1.1//EN" "http://www.w3.org/Graphics/SVG/1.1/DTD/svg11.dtd">
<svg xmlns="http://www.w3.org/2000/svg" xmlns:xlink="http://www.w3.org/1999/xlink" version="1.1" width="1080" height="1080" viewBox="0 0 1080 1080" xml:space="preserve">
<desc>Created with Fabric.js 5.2.4</desc>
<defs>
</defs>
<rect x="0" y="0" width="100%" height="100%" fill="transparent"></rect>
<g transform="matrix(1 0 0 1 540 540)" id="4a13ff8b-722c-4948-a65d-0b5cb88c8eff"  >
<rect style="stroke: none; stroke-width: 1; stroke-dasharray: none; stroke-linecap: butt; stroke-dashoffset: 0; stroke-linejoin: miter; stroke-miterlimit: 4; fill: rgb(255,255,255); fill-rule: nonzero; opacity: 1; visibility: hidden;" vector-effect="non-scaling-stroke"  x="-540" y="-540" rx="0" ry="0" width="1080" height="1080" />
</g>
<g transform="matrix(1 0 0 1 540 540)" id="9ff77a14-c407-4b38-b8d3-f3433fdd307c"  >
</g>
<g transform="matrix(1 0 0 1 540 540)"  >
<g style="" vector-effect="non-scaling-stroke"   >
		<g transform="matrix(1 0 0 1 -0.47 -96.4)"  >
<path style="stroke: none; stroke-width: 1; stroke-dasharray: none; stroke-linecap: butt; stroke-dashoffset: 0; stroke-linejoin: miter; stroke-miterlimit: 4; fill: rgb(229,117,38); fill-rule: nonzero; opacity: 1;" vector-effect="non-scaling-stroke"  transform=" translate(-399.52, -303.59)" d="M 188.94 258.65 C 234.26 258.65 279.58 258.7 324.9 258.56 C 328.81 258.55 330.10999999999996 259.29 330.07 263.51 C 329.84 290.76 329.95 318.02 329.84 345.27 C 329.83 348.09999999999997 330.44 350.41999999999996 332.10999999999996 352.76 C 339.62999999999994 363.28999999999996 346.38999999999993 374.43 354.55999999999995 384.42 C 363.94999999999993 395.90000000000003 368.30999999999995 408 367.17999999999995 423.06 C 366.09999999999997 437.58 375.43999999999994 449.11 389.38999999999993 453.25 C 392.69999999999993 454.23 393.5999999999999 455.47 393.5399999999999 458.72 C 393.3399999999999 469.35 393.50999999999993 479.98 393.44999999999993 490.61 C 393.41999999999996 495.22 394.69999999999993 498.96000000000004 400.0199999999999 498.89 C 405.19999999999993 498.82 406.6599999999999 495.21999999999997 406.61999999999995 490.55 C 406.53 479.92 406.68999999999994 469.29 406.53 458.66 C 406.47999999999996 455.55 407.14 454.23 410.52 453.19 C 422.83 449.4 430.38 440.94 432.56 428.12 C 433.86 420.45 432.93 412.69 433.11 404.97 C 433.17 402.41 433.51 400.16 435.09000000000003 397.94000000000005 C 445.70000000000005 382.9800000000001 456.13000000000005 367.87000000000006 466.76000000000005 352.9200000000001 C 468.54 350.4200000000001 469.35 348.00000000000006 469.34000000000003 344.94000000000005 C 469.23 318.07000000000005 469.42 291.20000000000005 469.1 264.34000000000003 C 469.04 259.24 470.65000000000003 258.54 475.22 258.55 C 519.76 258.73 564.3100000000001 258.66 608.85 258.66 C 619.44 258.66 620.62 257.52000000000004 620.62 247.19000000000003 C 620.62 204.66000000000003 620.62 162.14000000000004 620.62 119.61000000000003 C 620.62 109.61000000000003 619.3 108.29000000000002 609.29 108.29000000000002 C 539.38 108.29000000000002 469.46999999999997 108.29000000000002 399.54999999999995 108.29000000000002 C 329.24999999999994 108.29000000000002 258.94999999999993 108.29000000000002 188.64999999999995 108.30000000000003 C 180.14999999999995 108.30000000000003 178.42999999999995 110.00000000000003 178.42999999999995 118.41000000000003 C 178.41999999999996 161.71000000000004 178.41999999999996 205.01000000000002 178.42999999999995 248.31000000000003 C 178.44 257.15 179.98 258.65 188.94 258.65 z" stroke-linecap="round" />
</g>
		<g transform="matrix(1 0 0 1 0 233.95)"  >
<path style="stroke: none; stroke-width: 1; stroke-dasharray: none; stroke-linecap: butt; stroke-dashoffset: 0; stroke-linejoin: miter; stroke-miterlimit: 4; fill: rgb(229,117,38); fill-rule: nonzero; opacity: 1;" vector-effect="non-scaling-stroke"  transform=" translate(-399.99, -633.94)" d="M 646.85 585.8 C 646.84 578.15 644.95 576.29 637.22 576.29 C 582.4200000000001 576.27 527.62 576.31 472.82000000000005 576.2199999999999 C 468.85 576.2099999999999 465.90000000000003 577.3899999999999 463.1 580.2499999999999 C 452.14000000000004 591.4499999999999 440.07000000000005 601.6899999999999 430.13 613.7099999999999 C 419.55 626.5099999999999 407.46 632.2699999999999 391.02 629.68 C 387.62 629.14 384.94 628.64 382.40999999999997 626.0799999999999 C 367.33 610.79 352.02 595.7299999999999 336.92999999999995 580.4599999999999 C 334.00999999999993 577.4999999999999 330.96999999999997 576.1899999999999 326.73999999999995 576.1899999999999 C 272.13999999999993 576.31 217.52999999999997 576.26 162.91999999999996 576.27 C 154.61999999999995 576.27 153.10999999999996 577.79 153.10999999999996 586.04 C 153.09999999999997 617.54 153.09999999999997 649.04 153.10999999999996 680.54 C 153.10999999999996 690.7099999999999 154.11999999999995 691.6999999999999 164.46999999999997 691.6999999999999 C 242.89 691.6999999999999 321.30999999999995 691.6999999999999 399.74 691.6999999999999 C 478.74 691.6999999999999 557.75 691.6999999999999 636.75 691.6899999999999 C 644.94 691.6899999999999 646.83 689.9 646.84 682.01 C 646.88 649.96 646.88 617.88 646.85 585.8 z" stroke-linecap="round" />
</g>
		<g transform="matrix(1 0 0 1 -60.18 103.57)"  >
<path style="stroke: none; stroke-width: 1; stroke-dasharray: none; stroke-linecap: butt; stroke-dashoffset: 0; stroke-linejoin: miter; stroke-miterlimit: 4; fill: rgb(229,117,38); fill-rule: nonzero; opacity: 1;" vector-effect="non-scaling-stroke"  transform=" translate(-339.8, -503.57)" d="M 359.97 533.04 C 361.06 534.12 362.15000000000003 535.3 363.46000000000004 536.04 C 367.95000000000005 538.5899999999999 373.25000000000006 535.26 373.09000000000003 529.78 C 373.23 527.1999999999999 371.22 525.5699999999999 369.45000000000005 523.8 C 352.90000000000003 507.27 336.35 490.73999999999995 319.78000000000003 474.22999999999996 C 315.12 469.59 311.37 468.93999999999994 308.38000000000005 472.46999999999997 C 304.78000000000003 476.72999999999996 306.90000000000003 480.14 310.28000000000003 483.47999999999996 C 326.89 499.96 343.4 516.53 359.97 533.04 z" stroke-linecap="round" />
</g>
		<g transform="matrix(1 0 0 1 60.11 103.71)"  >
<path style="stroke: none; stroke-width: 1; stroke-dasharray: none; stroke-linecap: butt; stroke-dashoffset: 0; stroke-linejoin: miter; stroke-miterlimit: 4; fill: rgb(229,117,38); fill-rule: nonzero; opacity: 1;" vector-effect="non-scaling-stroke"  transform=" translate(-460.09, -503.7)" d="M 489.52 471.01 C 486.14 469.42 483.57 470.86 481.21999999999997 473.2 C 464.11999999999995 490.28 447.03 507.37 429.9 524.42 C 426.58 527.7199999999999 425.14 531.27 428.84999999999997 534.9499999999999 C 432.61999999999995 538.68 436.15 536.9699999999999 439.4 533.7199999999999 C 456.34999999999997 516.7599999999999 473.32 499.8399999999999 490.29999999999995 482.9099999999999 C 491.98999999999995 481.2299999999999 493.3299999999999 479.4099999999999 493.53 476.8699999999999 C 493.18 474.3 492.03 472.19 489.52 471.01 z" stroke-linecap="round" />
</g>
		<g transform="matrix(1 0 0 1 60.11 148.09)"  >
<path style="stroke: none; stroke-width: 1; stroke-dasharray: none; stroke-linecap: butt; stroke-dashoffset: 0; stroke-linejoin: miter; stroke-miterlimit: 4; fill: rgb(229,117,38); fill-rule: nonzero; opacity: 1;" vector-effect="non-scaling-stroke"  transform=" translate(-460.1, -548.09)" d="M 481.42 517.36 C 464.22 534.6 446.98 551.8 429.71000000000004 568.96 C 426.29 572.36 425.33000000000004 576.01 429.02000000000004 579.5 C 432.59000000000003 582.87 436.06000000000006 581.3 439.15000000000003 578.21 C 456.25000000000006 561.14 473.37 544.1 490.50000000000006 527.07 C 492.05000000000007 525.5300000000001 493.20000000000005 523.8100000000001 493.5400000000001 521.5500000000001 C 493.4200000000001 518.8800000000001 492.2200000000001 516.6300000000001 489.81000000000006 515.5000000000001 C 486.7 514.05 483.91 514.86 481.42 517.36 z" stroke-linecap="round" />
</g>
		<g transform="matrix(1 0 0 1 -60.09 148.12)"  >
<path style="stroke: none; stroke-width: 1; stroke-dasharray: none; stroke-linecap: butt; stroke-dashoffset: 0; stroke-linejoin: miter; stroke-miterlimit: 4; fill: rgb(229,117,38); fill-rule: nonzero; opacity: 1;" vector-effect="non-scaling-stroke"  transform=" translate(-339.9, -548.11)" d="M 360.97 578.4 C 364.16 581.6 367.63000000000005 582.6999999999999 371.08000000000004 579.31 C 374.46000000000004 575.9799999999999 373.71000000000004 572.3699999999999 370.50000000000006 569.17 C 353.27000000000004 551.9699999999999 336.0300000000001 534.79 318.82000000000005 517.5799999999999 C 317.26000000000005 516.02 315.6 514.8199999999999 313.33000000000004 514.8399999999999 C 310.50000000000006 514.78 308.43000000000006 516.0699999999999 307.23 518.5199999999999 C 305.64000000000004 521.7799999999999 306.88 524.4199999999998 309.28000000000003 526.8099999999998 C 326.53 543.98 343.77 561.17 360.97 578.4 z" stroke-linecap="round" />
</g>
		<g transform="matrix(1 0 0 1 -0.47 -216.53)"  >
<path style="stroke: none; stroke-width: 1; stroke-dasharray: none; stroke-linecap: butt; stroke-dashoffset: 0; stroke-linejoin: miter; stroke-miterlimit: 4; fill: rgb(229,117,38); fill-rule: nonzero; opacity: 1;" vector-effect="non-scaling-stroke"  transform=" translate(-399.52, -183.46)" d="M 399.43 229.8 C 424.99 229.81 446.02 208.82000000000002 445.94 183.39000000000001 C 445.86 157.95000000000002 424.69 136.99 399.22 137.13000000000002 C 373.91 137.27 353.15000000000003 158.04000000000002 353.1 183.31000000000003 C 353.03 208.92 373.84 229.79 399.43 229.8 z M 399.72 150.63 C 418.19000000000005 150.74 432.72 165.44 432.56000000000006 183.88 C 432.40000000000003 202.2 417.40000000000003 217.01999999999998 399.19000000000005 216.82999999999998 C 380.9800000000001 216.64 365.99000000000007 201.44 366.21000000000004 183.39 C 366.44 165.04 381.3 150.52 399.72 150.63 z" stroke-linecap="round" />
</g>
		<g transform="matrix(1 0 0 1 -0.48 -216.54)"  >
<path style="stroke: none; stroke-width: 1; stroke-dasharray: none; stroke-linecap: butt; stroke-dashoffset: 0; stroke-linejoin: miter; stroke-miterlimit: 4; fill: rgb(229,117,38); fill-rule: nonzero; opacity: 1;" vector-effect="non-scaling-stroke"  transform=" translate(-399.51, -183.45)" d="M 399.31 207.75 C 412.74 207.82 423.75 197.01 423.85 183.64 C 423.95000000000005 170.35 412.99 159.26999999999998 399.63 159.16 C 386.26 159.04999999999998 375.24 169.93 375.17 183.31 C 375.1 196.73 385.92 207.68 399.31 207.75 z M 399.3 172.54 C 405.55 172.45 410.35 177.10999999999999 410.42 183.32999999999998 C 410.49 189.45999999999998 405.69 194.46999999999997 399.62 194.57999999999998 C 393.72 194.69 388.44 189.57999999999998 388.33 183.66 C 388.22 177.69 393.21 172.63 399.3 172.54 z" stroke-linecap="round" />
</g>
		<g transform="matrix(1 0 0 1 -0.47 -96.4)"  >
<path style="stroke: none; stroke-width: 1; stroke-dasharray: none; stroke-linecap: butt; stroke-dashoffset: 0; stroke-linejoin: miter; stroke-miterlimit: 4; fill: rgb(0,41,63); fill-rule: nonzero; opacity: 1;" vector-effect="non-scaling-stroke"  transform=" translate(-399.52, -303.59)" d="M 188.94 258.65 C 234.26 258.65 279.58 258.7 324.9 258.56 C 328.81 258.55 330.10999999999996 259.29 330.07 263.51 C 329.84 290.76 329.95 318.02 329.84 345.27 C 329.83 348.09999999999997 330.44 350.41999999999996 332.10999999999996 352.76 C 339.62999999999994 363.28999999999996 346.38999999999993 374.43 354.55999999999995 384.42 C 363.94999999999993 395.90000000000003 368.30999999999995 408 367.17999999999995 423.06 C 366.09999999999997 437.58 375.43999999999994 449.11 389.38999999999993 453.25 C 392.69999999999993 454.23 393.5999999999999 455.47 393.5399999999999 458.72 C 393.3399999999999 469.35 393.50999999999993 479.98 393.44999999999993 490.61 C 393.41999999999996 495.22 394.69999999999993 498.96000000000004 400.0199999999999 498.89 C 405.19999999999993 498.82 406.6599999999999 495.21999999999997 406.61999999999995 490.55 C 406.53 479.92 406.68999999999994 469.29 406.53 458.66 C 406.47999999999996 455.55 407.14 454.23 410.52 453.19 C 422.83 449.4 430.38 440.94 432.56 428.12 C 433.86 420.45 432.93 412.69 433.11 404.97 C 433.17 402.41 433.51 400.16 435.09000000000003 397.94000000000005 C 445.70000000000005 382.9800000000001 456.13000000000005 367.87000000000006 466.76000000000005 352.9200000000001 C 468.54 350.4200000000001 469.35 348.00000000000006 469.34000000000003 344.94000000000005 C 469.23 318.07000000000005 469.42 291.20000000000005 469.1 264.34000000000003 C 469.04 259.24 470.65000000000003 258.54 475.22 258.55 C 519.76 258.73 564.3100000000001 258.66 608.85 258.66 C 619.44 258.66 620.62 257.52000000000004 620.62 247.19000000000003 C 620.62 204.66000000000003 620.62 162.14000000000004 620.62 119.61000000000003 C 620.62 109.61000000000003 619.3 108.29000000000002 609.29 108.29000000000002 C 539.38 108.29000000000002 469.46999999999997 108.29000000000002 399.54999999999995 108.29000000000002 C 329.24999999999994 108.29000000000002 258.94999999999993 108.29000000000002 188.64999999999995 108.30000000000003 C 180.14999999999995 108.30000000000003 178.42999999999995 110.00000000000003 178.42999999999995 118.41000000000003 C 178.41999999999996 161.71000000000004 178.41999999999996 205.01000000000002 178.42999999999995 248.31000000000003 C 178.44 257.15 179.98 258.65 188.94 258.65 z M 469.14 125.98 C 469.12 122.23 470.31 121.60000000000001 473.71999999999997 121.62 C 495.40999999999997 121.77000000000001 517.1 121.7 538.79 121.7 C 559.9 121.7 581.01 121.8 602.12 121.61 C 606.19 121.57 607.72 122.19 607.69 126.83 C 607.46 164.51999999999998 607.5 202.20999999999998 607.6500000000001 239.91 C 607.6700000000001 243.96 607.0600000000001 245.53 602.4100000000001 245.51 C 559.6100000000001 245.31 516.8100000000001 245.35 474.0100000000001 245.47 C 470.3700000000001 245.48 469.1200000000001 244.75 469.1400000000001 240.8 C 469.3 202.52 469.29 164.25 469.14 125.98 z M 419.65 424.05 C 419.15 433.94 411.71 441.1 402.15999999999997 441.17 C 388.85999999999996 441.26 380.86999999999995 435.37 380.07 424.48 C 379.68 419.11 380.08 413.69 379.90999999999997 408.3 C 379.82 405.59000000000003 381.09 405.11 383.40999999999997 405.15000000000003 C 389.01 405.25000000000006 394.60999999999996 405.18 400.21 405.18 C 405.62 405.18 411.03 405.28000000000003 416.42999999999995 405.14 C 418.92999999999995 405.08 419.86999999999995 405.95 419.79999999999995 408.45 C 419.65 413.64 419.91 418.86 419.65 424.05 z M 425.27 389.13 C 423.64 391.53 421.81 392.21 419.03999999999996 392.18 C 405.89 392.05 392.73999999999995 392.1 379.59 392.14 C 377.4 392.15 375.65 392.01 374.19 389.86 C 366.18 378.1 357.99 366.47 349.51 354.28000000000003 C 382.95 354.28000000000003 415.82 354.28000000000003 449.44 354.28000000000003 C 441.07 366.31 433.08 377.65 425.27 389.13 z M 348.95 121.59 C 382.45 121.81 415.96 121.81 449.46 121.59 C 454.33 121.56 455.90999999999997 122.4 455.85999999999996 127.73 C 455.55999999999995 162.13 455.71 196.54000000000002 455.71 230.95 C 455.71 265.55 455.62 300.14 455.81 334.74 C 455.84 339.37 454.92 340.95 449.89 340.91 C 416.19 340.67 382.49 340.70000000000005 348.79999999999995 340.88000000000005 C 344.3299999999999 340.90000000000003 342.87999999999994 339.91 342.93999999999994 335.18000000000006 C 343.29999999999995 307.36000000000007 343.42999999999995 279.5300000000001 343.41999999999996 251.71000000000006 C 343.4 210.35000000000008 343.27 169.00000000000006 342.93999999999994 127.64000000000007 C 342.91 122.83 344.11 121.55 348.95 121.59 z M 191.47 126.38 C 191.46 122.61999999999999 192.4 121.57 196.22 121.61 C 217.91 121.8 239.6 121.7 261.28 121.7 C 282.58 121.7 303.88 121.78 325.17999999999995 121.62 C 328.78999999999996 121.59 330.0799999999999 122.28 330.05999999999995 126.26 C 329.88999999999993 164.33 329.90999999999997 202.41000000000003 330.04999999999995 240.48000000000002 C 330.05999999999995 244.23000000000002 329.11999999999995 245.27 325.29999999999995 245.26000000000002 C 282.30999999999995 245.12000000000003 239.31999999999994 245.13000000000002 196.32999999999996 245.25000000000003 C 192.71999999999994 245.26000000000002 191.43999999999997 244.58000000000004 191.44999999999996 240.60000000000002 C 191.62 202.53 191.61 164.45 191.47 126.38 z" stroke-linecap="round" />
</g>
		<g transform="matrix(1 0 0 1 0 233.95)"  >
<path style="stroke: none; stroke-width: 1; stroke-dasharray: none; stroke-linecap: butt; stroke-dashoffset: 0; stroke-linejoin: miter; stroke-miterlimit: 4; fill: rgb(0,41,63); fill-rule: nonzero; opacity: 1;" vector-effect="non-scaling-stroke"  transform=" translate(-399.99, -633.94)" d="M 646.85 585.8 C 646.84 578.15 644.95 576.29 637.22 576.29 C 582.4200000000001 576.27 527.62 576.31 472.82000000000005 576.2199999999999 C 468.85 576.2099999999999 465.90000000000003 577.3899999999999 463.1 580.2499999999999 C 452.14000000000004 591.4499999999999 440.07000000000005 601.6899999999999 430.13 613.7099999999999 C 419.55 626.5099999999999 407.46 632.2699999999999 391.02 629.68 C 387.62 629.14 384.94 628.64 382.40999999999997 626.0799999999999 C 367.33 610.79 352.02 595.7299999999999 336.92999999999995 580.4599999999999 C 334.00999999999993 577.4999999999999 330.96999999999997 576.1899999999999 326.73999999999995 576.1899999999999 C 272.13999999999993 576.31 217.52999999999997 576.26 162.91999999999996 576.27 C 154.61999999999995 576.27 153.10999999999996 577.79 153.10999999999996 586.04 C 153.09999999999997 617.54 153.09999999999997 649.04 153.10999999999996 680.54 C 153.10999999999996 690.7099999999999 154.11999999999995 691.6999999999999 164.46999999999997 691.6999999999999 C 242.89 691.6999999999999 321.30999999999995 691.6999999999999 399.74 691.6999999999999 C 478.74 691.6999999999999 557.75 691.6999999999999 636.75 691.6899999999999 C 644.94 691.6899999999999 646.83 689.9 646.84 682.01 C 646.88 649.96 646.88 617.88 646.85 585.8 z M 627.63 678.78 C 551.71 678.6 475.78 678.66 399.86 678.66 C 324.13 678.66 248.4 678.6 172.67000000000002 678.79 C 167.27 678.8 166.04000000000002 677.3499999999999 166.10000000000002 672.14 C 166.38000000000002 646.24 166.32000000000002 620.3299999999999 166.13000000000002 594.43 C 166.10000000000002 590.43 167.06000000000003 589.27 171.19000000000003 589.28 C 221.74 589.43 272.29 589.4 322.85 589.31 C 325.99 589.3 328.21000000000004 590.1899999999999 330.43 592.43 C 345.54 607.6899999999999 360.89 622.7199999999999 375.93 638.05 C 379.34000000000003 641.53 382.87 642.99 387.7 642.8199999999999 C 396.21 642.51 404.75 642.55 413.26 642.81 C 417.48 642.9399999999999 420.58 641.55 423.52 638.5899999999999 C 438.63 623.3299999999999 453.93 608.2499999999999 469.03999999999996 592.9899999999999 C 471.49999999999994 590.4999999999999 473.89 589.2699999999999 477.55999999999995 589.2799999999999 C 527.7199999999999 589.4199999999998 577.89 589.4499999999998 628.05 589.2499999999999 C 632.8499999999999 589.2299999999999 633.5899999999999 590.7699999999999 633.56 595.0299999999999 C 633.3699999999999 620.9299999999998 633.3399999999999 646.8399999999999 633.5899999999999 672.7399999999999 C 633.61 677.5 632.56 678.8 627.63 678.78 z" stroke-linecap="round" />
</g>
		<g transform="matrix(1 0 0 1 -60.18 103.57)"  >
<path style="stroke: none; stroke-width: 1; stroke-dasharray: none; stroke-linecap: butt; stroke-dashoffset: 0; stroke-linejoin: miter; stroke-miterlimit: 4; fill: rgb(0,41,63); fill-rule: nonzero; opacity: 1;" vector-effect="non-scaling-stroke"  transform=" translate(-339.8, -503.57)" d="M 359.97 533.04 C 361.06 534.12 362.15000000000003 535.3 363.46000000000004 536.04 C 367.95000000000005 538.5899999999999 373.25000000000006 535.26 373.09000000000003 529.78 C 373.23 527.1999999999999 371.22 525.5699999999999 369.45000000000005 523.8 C 352.90000000000003 507.27 336.35 490.73999999999995 319.78000000000003 474.22999999999996 C 315.12 469.59 311.37 468.93999999999994 308.38000000000005 472.46999999999997 C 304.78000000000003 476.72999999999996 306.90000000000003 480.14 310.28000000000003 483.47999999999996 C 326.89 499.96 343.4 516.53 359.97 533.04 z" stroke-linecap="round" />
</g>
		<g transform="matrix(1 0 0 1 60.11 103.71)"  >
<path style="stroke: none; stroke-width: 1; stroke-dasharray: none; stroke-linecap: butt; stroke-dashoffset: 0; stroke-linejoin: miter; stroke-miterlimit: 4; fill: rgb(0,41,63); fill-rule: nonzero; opacity: 1;" vector-effect="non-scaling-stroke"  transform=" translate(-460.09, -503.7)" d="M 489.52 471.01 C 486.14 469.42 483.57 470.86 481.21999999999997 473.2 C 464.11999999999995 490.28 447.03 507.37 429.9 524.42 C 426.58 527.7199999999999 425.14 531.27 428.84999999999997 534.9499999999999 C 432.61999999999995 538.68 436.15 536.9699999999999 439.4 533.7199999999999 C 456.34999999999997 516.7599999999999 473.32 499.8399999999999 490.29999999999995 482.9099999999999 C 491.98999999999995 481.2299999999999 493.3299999999999 479.4099999999999 493.53 476.8699999999999 C 493.18 474.3 492.03 472.19 489.52 471.01 z" stroke-linecap="round" />
</g>
		<g transform="matrix(1 0 0 1 60.11 148.09)"  >
<path style="stroke: none; stroke-width: 1; stroke-dasharray: none; stroke-linecap: butt; stroke-dashoffset: 0; stroke-linejoin: miter; stroke-miterlimit: 4; fill: rgb(0,41,63); fill-rule: nonzero; opacity: 1;" vector-effect="non-scaling-stroke"  transform=" translate(-460.1, -548.09)" d="M 481.42 517.36 C 464.22 534.6 446.98 551.8 429.71000000000004 568.96 C 426.29 572.36 425.33000000000004 576.01 429.02000000000004 579.5 C 432.59000000000003 582.87 436.06000000000006 581.3 439.15000000000003 578.21 C 456.25000000000006 561.14 473.37 544.1 490.50000000000006 527.07 C 492.05000000000007 525.5300000000001 493.20000000000005 523.8100000000001 493.5400000000001 521.5500000000001 C 493.4200000000001 518.8800000000001 492.2200000000001 516.6300000000001 489.81000000000006 515.5000000000001 C 486.7 514.05 483.91 514.86 481.42 517.36 z" stroke-linecap="round" />
</g>
		<g transform="matrix(1 0 0 1 -60.09 148.12)"  >
<path style="stroke: none; stroke-width: 1; stroke-dasharray: none; stroke-linecap: butt; stroke-dashoffset: 0; stroke-linejoin: miter; stroke-miterlimit: 4; fill: rgb(0,41,63); fill-rule: nonzero; opacity: 1;" vector-effect="non-scaling-stroke"  transform=" translate(-339.9, -548.11)" d="M 360.97 578.4 C 364.16 581.6 367.63000000000005 582.6999999999999 371.08000000000004 579.31 C 374.46000000000004 575.9799999999999 373.71000000000004 572.3699999999999 370.50000000000006 569.17 C 353.27000000000004 551.9699999999999 336.0300000000001 534.79 318.82000000000005 517.5799999999999 C 317.26000000000005 516.02 315.6 514.8199999999999 313.33000000000004 514.8399999999999 C 310.50000000000006 514.78 308.43000000000006 516.0699999999999 307.23 518.5199999999999 C 305.64000000000004 521.7799999999999 306.88 524.4199999999998 309.28000000000003 526.8099999999998 C 326.53 543.98 343.77 561.17 360.97 578.4 z" stroke-linecap="round" />
</g>
		<g transform="matrix(1 0 0 1 -0.47 -216.53)"  >
<path style="stroke: none; stroke-width: 1; stroke-dasharray: none; stroke-linecap: butt; stroke-dashoffset: 0; stroke-linejoin: miter; stroke-miterlimit: 4; fill: rgb(0,41,63); fill-rule: nonzero; opacity: 1;" vector-effect="non-scaling-stroke"  transform=" translate(-399.52, -183.46)" d="M 399.43 229.8 C 424.99 229.81 446.02 208.82000000000002 445.94 183.39000000000001 C 445.86 157.95000000000002 424.69 136.99 399.22 137.13000000000002 C 373.91 137.27 353.15000000000003 158.04000000000002 353.1 183.31000000000003 C 353.03 208.92 373.84 229.79 399.43 229.8 z M 399.72 150.63 C 418.19000000000005 150.74 432.72 165.44 432.56000000000006 183.88 C 432.40000000000003 202.2 417.40000000000003 217.01999999999998 399.19000000000005 216.82999999999998 C 380.9800000000001 216.64 365.99000000000007 201.44 366.21000000000004 183.39 C 366.44 165.04 381.3 150.52 399.72 150.63 z" stroke-linecap="round" />
</g>
		<g transform="matrix(1 0 0 1 -0.48 -216.54)"  >
<path style="stroke: none; stroke-width: 1; stroke-dasharray: none; stroke-linecap: butt; stroke-dashoffset: 0; stroke-linejoin: miter; stroke-miterlimit: 4; fill: rgb(0,41,63); fill-rule: nonzero; opacity: 1;" vector-effect="non-scaling-stroke"  transform=" translate(-399.51, -183.45)" d="M 399.31 207.75 C 412.74 207.82 423.75 197.01 423.85 183.64 C 423.95000000000005 170.35 412.99 159.26999999999998 399.63 159.16 C 386.26 159.04999999999998 375.24 169.93 375.17 183.31 C 375.1 196.73 385.92 207.68 399.31 207.75 z M 399.3 172.54 C 405.55 172.45 410.35 177.10999999999999 410.42 183.32999999999998 C 410.49 189.45999999999998 405.69 194.46999999999997 399.62 194.57999999999998 C 393.72 194.69 388.44 189.57999999999998 388.33 183.66 C 388.22 177.69 393.21 172.63 399.3 172.54 z" stroke-linecap="round" />
</g>
</g>
</g>
</svg>