<svg version="1.1" id="Camada_1" xmlns="http://www.w3.org/2000/svg" x="0" y="0" viewBox="0 0 800 800" style="enable-background:new 0 0 800 800" xml:space="preserve"><style>.st0{fill:#e57526}.st1{fill:#00293f}</style><switch><g><path class="st0" d="M785.57 616.74c-1.28-26.64-.91-53.36-.92-80.05 0-7.22-2.29-11.88-9.02-15.45-15.15-8.04-29.7-17.2-44.76-25.41-5.01-2.73-5.53-4.78-2.8-9.81 15.86-29.26 23.03-60.69 22.46-93.95-.17-10.13-2.73-20.02-3-30.09-.72-26.29-1.02-52.59-1.52-78.89-.15-7.99-2.37-15.19-9.29-19.92-11.96-8.16-23.81-16.56-36.23-23.98-23.57-14.08-47.57-27.42-71.25-41.31-7.99-4.69-16.43-6.89-25.57-7.05-9.81-.17-19.29 2.23-28.93 3.43-6.56.82-12.96 2.95-19.79 1.16-25.87-6.8-52.15-11.17-78.8-13.52-64.39-5.67-127.61.03-189.34 19.48-17.55 5.53-33.27 3.85-49.22-5.59-38.38-22.73-77.23-44.68-115.93-66.88-9.34-5.36-17.17-.91-17.56 9.96-.3 8.19-.38 16.39-.43 24.59-.07 11.5-.02 23-.02 34.36-3.3.31-4.42-.85-5.7-1.59-9.76-5.59-19.46-11.29-29.28-16.77-8.11-4.52-13.87-1.05-13.89 8.26-.04 16.97 0 33.94-.03 50.91 0 1.68.75 3.94-.62 4.94-6.4 4.63-4.46 10.28-2.17 15.88 1.35 3.3.01 4.73-2.76 6.2-6.74 3.57-13.41 7.27-19.94 11.21-6.29 3.8-11.84 8.35-13.7 16.06-3.35 13.9.76 26.21 10.42 35.64 10.31 10.07 21.54 13.17 35.25 4.85 6.68-4.05 13.69-7.59 20.22-11.86 3.66-2.39 6.27-2.55 9.31.71 3.25 3.49 7.67 4.59 11.34 1.53 7.52-6.28 14.25-4.93 21.24.54 1.78 1.39 3.87 2.46 5.95 3.4 2.99 1.35 3.5 3.19 2.7 6.38-1.75 7.03-2.55 14.26-2.57 21.52-.07 32.41-.09 64.83 0 97.24.04 14.87 2.08 29.96 9.62 42.51 9.27 15.42 10.02 31.41 9.3 48.19-.01.19.02.38 0 .57-1.59 13.2 4.94 21.54 15.94 27.7 21.28 11.93 42.66 23.72 63.46 36.46 14.89 9.13 30.2 11.26 47.12 8.3 12.6-2.2 25.08-5.06 38.36-1.69 41.61 10.56 84.02 14.64 126.96 13.91 39.68-.68 78.69-5.75 117.04-15.92 6.76-1.79 13.47-3.81 20.41-5.78.62 9.99 3.32 18.84 9.03 26.54 8.91 12.02 22.76 15 35.59 7.85 3-1.67 6.01-3.32 9.01-4.99 10.86-6.01 10.93-6.1 20.21 2.15 4.2 3.74 8.36 4.42 12.78.79 2-1.64 3.61-1.43 5.59-.05 1.87 1.31 3.96 2.29 5.94 3.44 16.34 9.44 32.64 18.96 49.04 28.31 9.21 5.25 17.5.53 17.9-10.01.06-1.71-.09-3.43-.1-5.14-.01-13.33-.01-26.66-.01-40.31.35 0 .79-.13 1.07.02 7.78 4.04 15.9 7.55 23.23 12.29 12.66 8.24 19.38 3.65 18.66-11.27zM302.98 320.81c60.27-18.83 121.92-22.67 184.44-15.36 19.72 2.31 39.17 6.07 58.31 11.34 13.01 3.58 25.75.66 38.56-1.2.56-.08 1.13-.22 1.68-.37 12.25-3.44 22.8-.95 33.82 5.99 23.85 15.04 48.63 28.61 73.06 42.72 2.12 1.22 4.08 2.26 3.25 4.65-2.62 16.91-9.2 31.56-19.08 44.73-3.88 5.17-8.01 10.22-12.53 14.84-7.9 8.09-11.68 17.35-11.39 28.8.45 17.91.01 35.84.19 53.76.05 4.57-.55 6.05-5.08 3.12-5.59-3.63-11.72-6.43-17.26-10.12-19.02-12.68-39.32-13.17-60.29-6.5-41.93 13.34-84.93 19.7-128.84 20.67-44.29.98-87.94-3.61-130.77-15.01-10.53-2.8-20.41.46-30.56 1.54-7.94.85-15.71 3.21-23.81 2.68-6.02-.39-11.48-2.35-16.69-5.38-22.74-13.22-45.56-26.32-68.33-39.49-7.66-4.43-7.5-4.45-3.82-12.13 8.28-17.29 18.04-33.56 31.69-47.24 6.89-6.91 9.39-15.4 9.34-24.96-.11-21.16-.04-42.33-.03-63.49 0-5.94.21-6.2 5.31-2.91 28.08 18.05 57.65 19.06 88.83 9.32z"/><path class="st0" d="M146.34 462.46c3.57-.85.42-4.15 2.08-5.7-1.59 1.57.38 4.44-2.08 5.7zM640.9 556.32c.76 3.81 4.19.59 5.79 2.2-1.42-2.06-4.4-.03-5.79-2.2zM137.09 240.57c.29-.68.58-1.37.87-2.05-1.96-.03-1.46.99-.87 2.05zM225.14 517.98c-12.69-7.34-25.33-14.78-38.16-21.88-6.24-3.45-12.13-.02-12.43 7.11-.3 7.41-.07 14.84-.07 22.26 0 7.04.09 14.09-.04 21.12-.07 4.05 1.53 6.85 5.05 8.85 12.09 6.86 24.08 13.9 36.19 20.73 7.8 4.4 13.79 1.06 13.89-7.81.16-13.9.03-27.81.05-41.71.01-3.7-1.19-6.76-4.48-8.67zm-11.86 37.89c-7.5-4.3-13.88-8.04-20.35-11.64-1.81-1.01-2.15-2.39-2.14-4.23.05-7.22.02-14.45.02-22.73 7.46 4.28 14.31 8.18 21.13 12.14 1.07.62 1.35 1.77 1.35 2.98-.01 7.38-.01 14.77-.01 23.48zM624.02 299.28c12.25 6.96 24.37 14.14 36.65 21.04 7.03 3.95 13.19.38 13.28-7.7.16-14.09.01-28.18.07-42.27.02-4.02-1.6-6.9-5.07-8.9-12.38-7.11-24.68-14.37-37.14-21.35-6.8-3.81-12.72-.27-12.91 7.54-.17 7.04-.03 14.09-.04 21.13 0 7.05.11 14.09-.04 21.13-.09 4.27 1.47 7.26 5.2 9.38zm11.15-38.29c7.4 4.26 13.81 7.99 20.25 11.63 1.71.97 2.32 2.29 2.3 4.2-.07 6.29-.14 12.59.03 18.88.09 3.49-1.18 3.37-3.62 1.94-5.42-3.2-10.87-6.33-16.37-9.39-1.88-1.05-2.67-2.36-2.63-4.56.11-7.22.04-14.45.04-22.7z"/><g><path class="st1" d="M785.57 616.74c-1.28-26.64-.91-53.36-.92-80.05 0-7.22-2.29-11.88-9.02-15.45-15.15-8.04-29.7-17.2-44.76-25.41-5.01-2.73-5.53-4.78-2.8-9.81 15.86-29.26 23.03-60.69 22.46-93.95-.17-10.13-2.73-20.02-3-30.09-.72-26.29-1.02-52.59-1.52-78.89-.15-7.99-2.37-15.19-9.29-19.92-11.96-8.16-23.81-16.56-36.23-23.98-23.57-14.08-47.57-27.42-71.25-41.31-7.99-4.69-16.43-6.89-25.57-7.05-9.81-.17-19.29 2.23-28.93 3.43-6.56.82-12.96 2.95-19.79 1.16-25.87-6.8-52.15-11.17-78.8-13.52-64.39-5.67-127.61.03-189.34 19.48-17.55 5.53-33.27 3.85-49.22-5.59-38.38-22.73-77.23-44.68-115.93-66.88-9.34-5.36-17.17-.91-17.56 9.96-.3 8.19-.38 16.39-.43 24.59-.07 11.5-.02 23-.02 34.36-3.3.31-4.42-.85-5.7-1.59-9.76-5.59-19.46-11.29-29.28-16.77-8.11-4.52-13.87-1.05-13.89 8.26-.04 16.97 0 33.94-.03 50.91 0 1.68.75 3.94-.62 4.94-6.4 4.63-4.46 10.28-2.17 15.88 1.35 3.3.01 4.73-2.76 6.2-6.74 3.57-13.41 7.27-19.94 11.21-6.29 3.8-11.84 8.35-13.7 16.06-3.35 13.9.76 26.21 10.42 35.64 10.31 10.07 21.54 13.17 35.25 4.85 6.68-4.05 13.69-7.59 20.22-11.86 3.66-2.39 6.27-2.55 9.31.71 3.25 3.49 7.67 4.59 11.34 1.53 7.52-6.28 14.25-4.93 21.24.54 1.78 1.39 3.87 2.46 5.95 3.4 2.99 1.35 3.5 3.19 2.7 6.38-1.75 7.03-2.55 14.26-2.57 21.52-.07 32.41-.09 64.83 0 97.24.04 14.87 2.08 29.96 9.62 42.51 9.27 15.42 10.02 31.41 9.3 48.19-.01.19.02.38 0 .57-1.59 13.2 4.94 21.54 15.94 27.7 21.28 11.93 42.66 23.72 63.46 36.46 14.89 9.13 30.2 11.26 47.12 8.3 12.6-2.2 25.08-5.06 38.36-1.69 41.61 10.56 84.02 14.64 126.96 13.91 39.68-.68 78.69-5.75 117.04-15.92 6.76-1.79 13.47-3.81 20.41-5.78.62 9.99 3.32 18.84 9.03 26.54 8.91 12.02 22.76 15 35.59 7.85 3-1.67 6.01-3.32 9.01-4.99 10.86-6.01 10.93-6.1 20.21 2.15 4.2 3.74 8.36 4.42 12.78.79 2-1.64 3.61-1.43 5.59-.05 1.87 1.31 3.96 2.29 5.94 3.44 16.34 9.44 32.64 18.96 49.04 28.31 9.21 5.25 17.5.53 17.9-10.01.06-1.71-.09-3.43-.1-5.14-.01-13.33-.01-26.66-.01-40.31.35 0 .79-.13 1.07.02 7.78 4.04 15.9 7.55 23.23 12.29 12.66 8.24 19.38 3.65 18.66-11.27zm-54.54-297.12c0 11.76.26 23.53-.07 35.28-.37 13.21 2.98 26.05 3.13 39.22.34 30.58-6.88 59.15-21.26 86.04-1.4 2.61-2.49 3.81-5.56 1.93-8.93-5.47-18.07-10.58-27.04-15.99a29.818 29.818 0 0 1-6.19-5.01c-5.58-5.92-5.82-11.5-.67-17.85 4.44-5.47 9.37-10.53 13.74-16.05 15.14-19.12 24.8-40.48 25.95-65.18.16-3.35 1.66-6.22 2.85-9.21 4.4-11.12 8.86-22.22 13.29-33.32.6.07 1.21.11 1.83.14zM572.02 211.29c8.12-1.08 16.17-2.68 24.28-3.77 9.13-1.23 17.62.34 25.77 5.18 20.97 12.46 42.34 24.24 63.27 36.77 13.56 8.12 26.63 17.04 39.86 25.69 2.32 1.52 4.87 2.96 2.78 6.78-10.84 19.76-17.5 41.32-26.18 62.01-1.66 3.97-2.69 4.77-6.74 2.38-26.09-15.41-52.44-30.39-78.56-45.76-5.93-3.49-12.02-4.57-18.6-3.64-8.49 1.2-17.01 2.35-25.42 4-4.39.86-5.09-.65-5.04-4.57.2-13.15.08-26.3.08-39.46 0-13.34.12-26.69-.08-40.03-.04-3.54.98-5.1 4.58-5.58zm-301.77 13.32c0-1.8-.01-3.34 2.49-3.58 14.95-1.4 28.7-7.52 43.11-11.04 58.08-14.18 116.75-17.31 176.02-10 18.35 2.26 36.52 5.63 54.48 10.12 3.94.98 5.07 2.64 4.99 6.6-.26 13.34-.1 26.69-.1 40.03 0 13.15-.21 26.31.11 39.46.11 4.62-1.44 4.78-5.16 3.8-38.58-10.19-77.9-14.68-117.73-14.42-46.02.31-91.16 6.76-135.09 20.85-6.18 1.98-12.47 3.41-18.97 3.98-2.73.24-4.22-.08-4.21-3.44.11-27.45.07-54.9.06-82.36zm32.73 96.2c60.27-18.83 121.92-22.67 184.44-15.36 19.72 2.31 39.17 6.07 58.31 11.34 13.01 3.58 25.75.66 38.56-1.2.56-.08 1.13-.22 1.68-.37 12.25-3.44 22.8-.95 33.82 5.99 23.85 15.04 48.63 28.61 73.06 42.72 2.12 1.22 4.08 2.26 3.25 4.65-2.62 16.91-9.2 31.56-19.08 44.73-3.88 5.17-8.01 10.22-12.53 14.84-7.9 8.09-11.68 17.35-11.39 28.8.45 17.91.01 35.84.19 53.76.05 4.57-.55 6.05-5.08 3.12-5.59-3.63-11.72-6.43-17.26-10.12-19.02-12.68-39.32-13.17-60.29-6.5-41.93 13.34-84.93 19.7-128.84 20.67-44.29.98-87.94-3.61-130.77-15.01-10.53-2.8-20.41.46-30.56 1.54-7.94.85-15.71 3.21-23.81 2.68-6.02-.39-11.48-2.35-16.69-5.38-22.74-13.22-45.56-26.32-68.33-39.49-7.66-4.43-7.5-4.45-3.82-12.13 8.28-17.29 18.04-33.56 31.69-47.24 6.89-6.91 9.39-15.4 9.34-24.96-.11-21.16-.04-42.33-.03-63.49 0-5.94.21-6.2 5.31-2.91 28.08 18.05 57.65 19.06 88.83 9.32zm-182.9-168.28c.06-4.66 1.05-5.17 5.04-2.85 30.34 17.62 60.72 35.17 91.2 52.53 11.38 6.48 22.04 14.53 35.21 17.43 3.05.67 2.43 2.96 2.43 4.95.03 13.35.02 26.7.01 40.05 0 13.54-.13 27.08.08 40.62.06 3.92-1.36 4.49-4.73 3.78-14.57-3.03-26.28-11.91-38.96-18.8-1.59-.86-1.72-2.47-1.78-3.97-.46-11.75-6.87-19.86-16.07-26.24-2.06-1.43-3.91-2.86-4.82-5.4-2.77-7.74-9.24-11.92-15.87-15.78-16.31-9.49-32.66-18.94-49.12-28.18-3.17-1.78-3.99-3.86-3.87-7.27.57-16.96 1.03-33.92 1.25-50.87zm48.66 116.55c-3.06 3.19-5.52 9.21-9.42 8.65-2.75-.4-4.69-6.76-6.88-10.53-5.15-8.86-10.23-17.75-15.35-26.63-1.08-.74-2.24-1.91-1.45-3 .81-1.13 1.87-.22 2.33.95 9.67 5.57 19.49 10.89 28.96 16.79 7.51 4.67 7.76 7.56 1.81 13.77zm-97.75-65.34c-.01-2.3.14-3.93 3.07-2.22 9.67 5.63 19.37 11.18 30.19 17.4-10.76 5.47-20.3 10.23-29.75 15.16-2.97 1.55-3.56.59-3.53-2.32.1-9.34.06-18.68.02-28.02zM45.94 321.13c-10.59-1.58-13.77-11.08-15.23-19.33-.54-3.05.87-4.24 3.98-2.58 6.77 3.62 12.3 14.25 11.25 21.91zm49.65-26.68c-10.08 5.76-20.12 11.58-30.11 17.49-2.26 1.33-3.19 1.09-3.91-1.58-2.3-8.45-6.65-15.74-13.35-21.46-2.52-2.15-1.57-3.1.78-4.4 9.82-5.44 19.6-10.95 29.3-16.59 1.91-1.11 3.44-1.09 5.32-.26 6.78 2.97 14.44 14.62 14.41 22.07.06 2.03-.48 3.61-2.44 4.73zm18.73 3.37c-.92-27.74-11.84-43.4-32.69-47.59-.44-2 1.46-1.98 2.41-2.48 8.59-4.5 17.29-8.8 25.86-13.35 2.4-1.27 3.82-1.56 5.4 1.23 8.25 14.56 16.66 29.03 25.11 43.48 1.26 2.16.92 3.25-1.23 4.45-8.1 4.54-16.12 9.23-24.86 14.26zm27.67 8.49c-4.28 8.31-4.28 8.31-12.97 2.06 5.25-3.04 10.28-5.95 15.3-8.85.24.25.48.5.72.76-1.01 2-2.02 4.02-3.05 6.03zm14.26 130.52c-2.73 6.59-8.24 12.1-7.83 19.93.64 4.28.54 8.54-.12 13.67-2.16-2.87-2.31-5.35-1.96-7.96-1.23-15.16-.86-30.33-.8-46.88 4.35 6.05 7.91 11.07 11.54 16.03 1.53 2.08-.14 3.53-.83 5.21zm-3.14-115.36c6.78-16.95 17.97-30.79 30.17-43.99 1.72-1.86 2.92-1.99 4.55-.08 2.67 3.12 4.43 6.45 4.39 10.78-.14 15.42-.06 30.84-.05 46.26 0 15.42-.04 30.84.03 46.26.02 3.63-1.07 6.7-3.42 9.4-6.98 8.05-14.42 15.72-20.2 24.75-1.95 3.04-2.9.89-3.96-.7-19.3-28.97-24.73-59.63-11.51-92.68zM501.28 607.7c-40.38 5.85-80.92 6.54-121.49 2.38-24.29-2.49-48.29-6.84-71.9-13.17-7.35-1.97-14.35.49-21.49 1.26-10.39 1.12-20.55 4.27-31.18 3.34-5.04-.44-9.66-2.01-14.02-4.53-23.43-13.55-46.84-27.13-70.34-40.55-4.18-2.39-6.39-5.17-6.33-10.34.25-22.63.11-45.27.11-67.96 2.46-.26 3.85 1.26 5.41 2.16 20.49 11.77 41.05 23.44 61.38 35.49 11.74 6.96 24.18 8.84 37.42 6.94 9.43-1.35 18.89-2.61 28.26-4.32 3.73-.68 7.14-.3 10.66.6 58.24 14.88 117.22 18.95 176.99 12.55 31.57-3.38 62.51-9.57 92.75-19.22 15.55-4.96 30.29-4.08 44.34 5.04 7.98 5.18 16.44 9.61 25.74 14.99-12.58 7.95-24.28 15.38-36.01 22.76-10.45 6.57-10.75 7.01-5.94 18.56 1.4 3.35-.42 3.74-2.6 4.8-32.21 15.68-66.52 24.11-101.76 29.22zm108.27 21.63c-10.79-2.24-13.5-11.03-15.23-18.89-.28-1.26-.13-2.77 1.11-3.61 1.13-.77 2.13.14 3.1.66 6.59 3.5 11.81 13.71 11.02 21.84zm49-26.59c-10.04 5.42-19.99 11.01-29.96 16.57-1.52.85-2.73 1.32-3.39-.96-2.71-9.38-7.97-17.15-15.84-23.71 11.47-6.6 22.46-12.93 33.46-19.23 2.21-1.26 4.12.01 5.82 1.14 7.22 4.78 11.29 11.65 12.81 20.08.48 2.65-.24 4.67-2.9 6.11zm17.07 6.45c4.65-10.83 2.13-20.79-3.01-30.07-5.69-10.29-13.58-18.38-25.92-20.59-3.19 0-6.39-.14-9.94 1.68.8-2.79 2.38-3.45 4.16-3.89 6.24-4.02 12.53-7.94 18.67-12.1 2.16-1.46 3.39-1.49 5.11.68 11.58 14.64 23.3 29.17 34.97 43.74 1.04 1.29 2.45 2.44.16 4.08-7.27 5.22-14.44 10.6-21.68 15.86-.54.4-1.39.36-2.52.61zm49.57 43.23c-12.07-6.95-23.93-13.74-35.76-20.59-8.29-4.8-8.27-4.83-.59-10.52 9.34-6.93 18.72-13.81 28.01-20.81 5.89-4.44 6.39-8.73 1.79-14.54-5.53-7-11.17-13.93-16.09-21.92 7.15 4.14 14.3 8.28 21.44 12.44 1.37.8 1.31 2.19 1.32 3.54.19 23.44.39 46.89.55 70.33.02.49-.3.98-.67 2.07zm43.37-42.28c-8.63-4.57-16.96-9-25.32-13.38-2-1.05-1.57-2.85-1.58-4.49-.06-5.52-.27-11.06-.01-16.57.27-5.86-2.26-9.54-7.28-12.39-19.71-11.18-39.22-22.71-58.96-33.84-4.35-2.45-6.11-5.25-5.96-10.34.38-13.03.13-26.09.13-39.86 20.18 11.62 39.59 22.8 58.99 33.99 12.04 6.95 24.05 13.95 36.12 20.85 2.11 1.2 3.52 2.31 3.54 5.15.16 22.84.52 45.68.79 68.52-.01.52-.2 1.04-.46 2.36z"/><path class="st1" d="M146.34 462.46c3.57-.85.42-4.15 2.08-5.7-1.59 1.57.38 4.44-2.08 5.7zM640.9 556.32c.76 3.81 4.19.59 5.79 2.2-1.42-2.06-4.4-.03-5.79-2.2zM137.09 240.57c.29-.68.58-1.37.87-2.05-1.96-.03-1.46.99-.87 2.05zM225.14 517.98c-12.69-7.34-25.33-14.78-38.16-21.88-6.24-3.45-12.13-.02-12.43 7.11-.3 7.41-.07 14.84-.07 22.26 0 7.04.09 14.09-.04 21.12-.07 4.05 1.53 6.85 5.05 8.85 12.09 6.86 24.08 13.9 36.19 20.73 7.8 4.4 13.79 1.06 13.89-7.81.16-13.9.03-27.81.05-41.71.01-3.7-1.19-6.76-4.48-8.67zm-11.86 37.89c-7.5-4.3-13.88-8.04-20.35-11.64-1.81-1.01-2.15-2.39-2.14-4.23.05-7.22.02-14.45.02-22.73 7.46 4.28 14.31 8.18 21.13 12.14 1.07.62 1.35 1.77 1.35 2.98-.01 7.38-.01 14.77-.01 23.48zM624.02 299.28c12.25 6.96 24.37 14.14 36.65 21.04 7.03 3.95 13.19.38 13.28-7.7.16-14.09.01-28.18.07-42.27.02-4.02-1.6-6.9-5.07-8.9-12.38-7.11-24.68-14.37-37.14-21.35-6.8-3.81-12.72-.27-12.91 7.54-.17 7.04-.03 14.09-.04 21.13 0 7.05.11 14.09-.04 21.13-.09 4.27 1.47 7.26 5.2 9.38zm11.15-38.29c7.4 4.26 13.81 7.99 20.25 11.63 1.71.97 2.32 2.29 2.3 4.2-.07 6.29-.14 12.59.03 18.88.09 3.49-1.18 3.37-3.62 1.94-5.42-3.2-10.87-6.33-16.37-9.39-1.88-1.05-2.67-2.36-2.63-4.56.11-7.22.04-14.45.04-22.7z"/></g></g></switch></svg>