<svg version="1.1" id="Camada_1" xmlns="http://www.w3.org/2000/svg" x="0" y="0" viewBox="0 0 800 800" style="enable-background:new 0 0 800 800" xml:space="preserve"><style>.st0{fill:#e57526}.st2{fill:none;stroke:#00293f;stroke-width:15;stroke-miterlimit:10}</style><switch><g><path class="st0" d="M373.22 473.05c-3.34-3.83-4.86-7.81-5.21-12.74-.88-12.59-5.75-23.63-14.28-32.85-6.89-7.44-14.1-14.58-21.4-21.62-10.14-9.78-22.17-15.85-36.39-16.61-4.22-.23-7.3-1.64-10.38-4.39-9.23-8.23-20.15-13.01-32.51-13.54-11.77-.5-23.58-.46-35.37-.17-13.51.33-25.35 5.34-35.34 14.43-2.6 2.36-5.27 3.4-8.79 3.6-11.86.65-22.52 4.71-31.81 12.22-9.21 7.44-17.04 16.3-25.41 24.6-7.19 7.13-12.76 15.65-14.15 25.63-1.52 10.87-4.67 20.5-11.93 28.87-4.65 5.36-4.79 12.94-8.18 19v47.2c3.3 7.44 4.52 15.96 9.92 22.27 5.56 6.51 9.06 13.2 9.15 22.1.05 4.91 2.38 9.92 4.78 14.58 7.99 15.51 21.56 26.01 33.79 37.64 9.59 9.13 21.45 13.78 34.81 14.01 2.92.05 5.06 1.15 7.12 3.06 11.64 10.78 25.59 15.47 41.3 15.39 8.49-.04 16.97.07 25.46-.04 12.33-.17 23.86-3.57 33.49-11.17 5.73-4.52 11-7.78 18.68-7.73 5.18.03 10.41-2.22 15.29-4.61 15.1-7.41 25.26-20.53 36.75-32.03 9.5-9.5 14.73-21.34 15.48-34.88.26-4.56 1.94-8.07 4.93-11.54 8.49-9.85 13.17-21.4 13.43-34.48.21-10.55.18-21.11.02-31.67-.2-13.08-4.7-24.72-13.25-34.53zm-43.74 51.97c-1.42 53.09-45.24 95.26-97.21 93.55-53.91-1.78-94.62-45.33-93.05-99.57 1.45-50.18 46.05-92.52 95.97-91.11 53.82 1.52 95.69 44.66 94.29 97.13z"/><path class="st0" d="M717.84 379.36c-1.78-14.5-12.84-25.87-27.36-28.01-8.25-1.21-16.53-.47-24.8-.6-2.85-.04-4.53-.24-4.53-3.91-.01-36.01-.27-72.02-.26-108.04 0-6.82 3.49-11.63 10.23-13.95 5.16-1.78 10.43-2.29 15.83-2.54 9.92-.46 16.7-7.35 16.53-16.43-.18-8.96-7.53-15.71-17.32-15.55-4.53.07-9.11.41-13.58 1.17-20.79 3.51-35.95 13.95-42.17 35.05-2.7 9.15-1.17 18.45-1.11 27.73.19 30.01-.06 60.03.2 90.04.04 5.09-1.16 6.56-6.39 6.54-50.09-.2-100.18-.18-150.27-.01-4.17.01-6.12-1.19-7.74-5.04-16.16-38.63-32.37-77.23-48.88-115.71-9.92-23.11-18.24-46.96-30.54-68.99-13.57-24.31-33.42-37.35-62.43-36.84-47.8.84-95.63.23-143.44.23-6.01 0-12.02.39-17.79 2.02-27.23 7.71-42.62 28.4-42.65 57.36-.05 65.82-.02 131.65.03 197.47 0 1.5-.78 3.25 1.48 5.26 1.13-1.48 2.14-3.04 3.37-4.39 13.17-14.37 29.17-22.84 48.98-23.06 2.71-.03 4.05-1.71 5.67-3.21 8.86-8.22 19.16-13.64 31.08-15.68 15-2.57 30.15-1.05 45.23-1.15 16.64-.1 31.06 5.96 43.16 17.36 1.92 1.81 3.85 2.61 6.53 2.7 15.67.54 29.52 5.96 40.96 16.73 8.89 8.36 17.51 17.03 25.93 25.87 10.98 11.53 16.77 25.42 17.15 41.39.07 2.92.97 5.02 2.96 7.1 8.62 9.06 14.16 19.84 16.34 32.13 2.04 11.47 1.17 23.13 1.02 34.7-.06 4.68.94 6.26 6.01 6.21 29.39-.27 58.78-.15 88.18-.09 1.7 0 3.63-.78 5.22.68-36.94 42.69-26.77 99.31 7.27 129.18 34.83 30.56 86.47 30.07 121.48-2.02 32.34-29.64 41.87-84.79 4.56-127.93 1.57-.41 2.55-.71 3.54-.92 21.78-4.65 37.62-14.19 43.3-38.68 7.45-32.1 18.29-63.42 27.62-95.08.86-2.94 1.8-5.83 1.4-9.09zm-324.65-67.05c-36.83-.13-73.66-.08-110.49-.08v-.31c-36.41 0-72.83-.1-109.24.12-4.75.03-5.71-1.28-5.68-5.82.2-34.76.06-69.52.13-104.28.05-24.72 15.63-40.3 40.28-40.33 31.45-.05 62.91.51 94.34-.2 19.75-.45 33.26 8.22 42.24 24.83 9.53 17.62 16.09 36.6 23.99 54.96 9.45 21.97 18.4 44.15 27.84 66.12 1.9 4.41.92 5-3.41 4.99zm224.78 273.38c-.67 23.74-19.96 42.35-43.31 41.76-23.15-.58-42.23-20.34-41.57-43.02.69-23.62 20.08-42.2 43.46-41.65 23.28.55 42.06 20 41.42 42.91z"/><path class="st0" d="M235.75 470.89c-28.91-.91-53.22 21.75-53.79 51.59-.55 28.6 21.69 52.46 51.61 53.13 28.47.77 52.32-22.31 53.32-51.58.95-27.92-22.45-52.24-51.14-53.14z"/><g><path class="st2" d="M373.22 473.05c-3.34-3.83-4.86-7.81-5.21-12.74-.88-12.59-5.75-23.63-14.28-32.85-6.89-7.44-14.1-14.58-21.4-21.62-10.14-9.78-22.17-15.85-36.39-16.61-4.22-.23-7.3-1.64-10.38-4.39-9.23-8.23-20.15-13.01-32.51-13.54-11.77-.5-23.58-.46-35.37-.17-13.51.33-25.35 5.34-35.34 14.43-2.6 2.36-5.27 3.4-8.79 3.6-11.86.65-22.52 4.71-31.81 12.22-9.21 7.44-17.04 16.3-25.41 24.6-7.19 7.13-12.76 15.65-14.15 25.63-1.52 10.87-4.67 20.5-11.93 28.87-4.65 5.36-4.79 12.94-8.18 19v47.2c3.3 7.44 4.52 15.96 9.92 22.27 5.56 6.51 9.06 13.2 9.15 22.1.05 4.91 2.38 9.92 4.78 14.58 7.99 15.51 21.56 26.01 33.79 37.64 9.59 9.13 21.45 13.78 34.81 14.01 2.92.05 5.06 1.15 7.12 3.06 11.64 10.78 25.59 15.47 41.3 15.39 8.49-.04 16.97.07 25.46-.04 12.33-.17 23.86-3.57 33.49-11.17 5.73-4.52 11-7.78 18.68-7.73 5.18.03 10.41-2.22 15.29-4.61 15.1-7.41 25.26-20.53 36.75-32.03 9.5-9.5 14.73-21.34 15.48-34.88.26-4.56 1.94-8.07 4.93-11.54 8.49-9.85 13.17-21.4 13.43-34.48.21-10.55.18-21.11.02-31.67-.2-13.08-4.7-24.72-13.25-34.53zm-43.74 51.97c-1.42 53.09-45.24 95.26-97.21 93.55-53.91-1.78-94.62-45.33-93.05-99.57 1.45-50.18 46.05-92.52 95.97-91.11 53.82 1.52 95.69 44.66 94.29 97.13z"/><path class="st2" d="M717.84 379.36c-1.78-14.5-12.84-25.87-27.36-28.01-8.25-1.21-16.53-.47-24.8-.6-2.85-.04-4.53-.24-4.53-3.91-.01-36.01-.27-72.02-.26-108.04 0-6.82 3.49-11.63 10.23-13.95 5.16-1.78 10.43-2.29 15.83-2.54 9.92-.46 16.7-7.35 16.53-16.43-.18-8.96-7.53-15.71-17.32-15.55-4.53.07-9.11.41-13.58 1.17-20.79 3.51-35.95 13.95-42.17 35.05-2.7 9.15-1.17 18.45-1.11 27.73.19 30.01-.06 60.03.2 90.04.04 5.09-1.16 6.56-6.39 6.54-50.09-.2-100.18-.18-150.27-.01-4.17.01-6.12-1.19-7.74-5.04-16.16-38.63-32.37-77.23-48.88-115.71-9.92-23.11-18.24-46.96-30.54-68.99-13.57-24.31-33.42-37.35-62.43-36.84-47.8.84-95.63.23-143.44.23-6.01 0-12.02.39-17.79 2.02-27.23 7.71-42.62 28.4-42.65 57.36-.05 65.82-.02 131.65.03 197.47 0 1.5-.78 3.25 1.48 5.26 1.13-1.48 2.14-3.04 3.37-4.39 13.17-14.37 29.17-22.84 48.98-23.06 2.71-.03 4.05-1.71 5.67-3.21 8.86-8.22 19.16-13.64 31.08-15.68 15-2.57 30.15-1.05 45.23-1.15 16.64-.1 31.06 5.96 43.16 17.36 1.92 1.81 3.85 2.61 6.53 2.7 15.67.54 29.52 5.96 40.96 16.73 8.89 8.36 17.51 17.03 25.93 25.87 10.98 11.53 16.77 25.42 17.15 41.39.07 2.92.97 5.02 2.96 7.1 8.62 9.06 14.16 19.84 16.34 32.13 2.04 11.47 1.17 23.13 1.02 34.7-.06 4.68.94 6.26 6.01 6.21 29.39-.27 58.78-.15 88.18-.09 1.7 0 3.63-.78 5.22.68-36.94 42.69-26.77 99.31 7.27 129.18 34.83 30.56 86.47 30.07 121.48-2.02 32.34-29.64 41.87-84.79 4.56-127.93 1.57-.41 2.55-.71 3.54-.92 21.78-4.65 37.62-14.19 43.3-38.68 7.45-32.1 18.29-63.42 27.62-95.08.86-2.94 1.8-5.83 1.4-9.09zm-324.65-67.05c-36.83-.13-73.66-.08-110.49-.08v-.31c-36.41 0-72.83-.1-109.24.12-4.75.03-5.71-1.28-5.68-5.82.2-34.76.06-69.52.13-104.28.05-24.72 15.63-40.3 40.28-40.33 31.45-.05 62.91.51 94.34-.2 19.75-.45 33.26 8.22 42.24 24.83 9.53 17.62 16.09 36.6 23.99 54.96 9.45 21.97 18.4 44.15 27.84 66.12 1.9 4.41.92 5-3.41 4.99zm224.78 273.38c-.67 23.74-19.96 42.35-43.31 41.76-23.15-.58-42.23-20.34-41.57-43.02.69-23.62 20.08-42.2 43.46-41.65 23.28.55 42.06 20 41.42 42.91z"/><path class="st2" d="M235.75 470.89c-28.91-.91-53.22 21.75-53.79 51.59-.55 28.6 21.69 52.46 51.61 53.13 28.47.77 52.32-22.31 53.32-51.58.95-27.92-22.45-52.24-51.14-53.14z"/></g></g></switch></svg>