<svg version="1.1" id="Camada_1" xmlns="http://www.w3.org/2000/svg" x="0" y="0" viewBox="0 0 800 800" style="enable-background:new 0 0 800 800" xml:space="preserve"><style>.st0{fill:#e57526}.st1{fill:#00293f}</style><switch><g><path class="st0" d="M682.81 464.93c-3.62-1.71-4.92-4.42-4.91-8.28.04-8.84.21-17.69-.06-26.53-.28-9.18-3.61-17.42-11.69-21.92-6.69-3.73-7.98-8.49-7.97-15.44.18-84.99.07-169.98.17-254.97.01-12.8-2.08-20.15-19.95-20.11-158.64.33-317.28.19-475.92.19-2.12 0-4.23-.04-6.35.04-7.94.31-12.39 4.31-13.51 12.16-.41 2.86-.31 5.76-.31 8.64-.01 39.03 0 78.07 0 117.1 0 46.53-.02 93.07.03 139.6.01 4.64-.43 8.48-5.3 11.03-9.98 5.24-14.23 14.13-14.33 25.17-.07 7.69-.21 15.39.04 23.07.17 5.14-1.26 8.63-6.25 11.03-8.39 4.03-12.25 11.05-12.21 20.49.13 31.15.11 62.3.01 93.45-.03 8.2 3.29 14.44 9.78 19.18 3.98 2.91 8.44 4.67 13.36 4.88 4.17.17 5.66 2.17 5.64 6.19-.07 14.42-.05 28.84-.01 43.26.01 4.15-1.75 5.89-5.88 5.85-4.41-.04-8.86-.37-13.23.52-6.79 1.38-10.07 5.63-9.58 12.23.48 6.41 4 9.82 10.85 10.4 2.88.24 5.77.13 8.65.13h553.23c2.12 0 4.23.03 6.35-.03 7.78-.24 9.69-1.61 12.24-8.73v-5.77c-3.49-6.2-9.14-7.05-15.63-6.93-13.97.27-13.97.08-13.97-13.7v-40.79c0-2.27-.55-4.64 3.23-4.44 13.5.72 21.77-6.24 26.37-18.38V481.98c-.8-8.31-5.66-13.64-12.89-17.05zm-203.85-97.54c-.08-7.84-3.44-11.48-11.17-11.49-44.99-.1-89.99-.1-134.98 0-7.74.02-11.07 3.65-11.14 11.51-.1 10.96-.21 21.92.07 32.88.1 3.93-1.19 4.74-4.87 4.72-29.8-.14-59.61-.14-89.41 0-3.52.02-4.54-.9-4.54-4.49.11-65.95.11-131.9 0-197.85-.01-3.5.84-4.55 4.45-4.54 30 .15 59.99.16 89.99-.01 3.77-.02 4.42 1.25 4.35 4.62-.2 10.19-.19 20.38-.01 30.57.06 3.15-.65 4.78-4.08 4.24-.75-.12-1.54-.01-2.3-.02-4.04-.02-8.7 1.22-11.94-.39-3.55-1.76-.83-6.88-1.74-10.46-1.34-5.25-5.15-8.86-9.91-8.7-5.2.17-9.25 3.96-9.36 9.78-.26 13.07-.26 26.15-.03 39.21.11 6 3.87 9.6 9.19 9.82 5.53.23 9.34-3.33 10.28-9.48.49-3.19-1.46-7.47.93-9.34 2.7-2.11 7.03-.64 10.64-.69 8.24-.11 8.25-.03 8.25 8.11 0 6.54-.07 13.08.02 19.61.11 8.1 3.44 11.47 11.64 11.62 7.5.14 15.01.33 22.49-.08 4.53-.25 5.48 1.33 5.29 5.52-.34 7.48-.17 14.99-.08 22.49.1 7.66 3.52 11.43 11.24 11.51 18.65.2 37.3.19 55.95.01 7.99-.08 11.32-3.83 11.39-11.94.07-7.88.15-15.77-.05-23.65-.08-3.08.97-3.95 3.95-3.88 7.88.17 15.77.15 23.65.03 8.46-.13 11.74-3.5 11.82-12.03.08-7.69.15-15.39-.04-23.07-.08-3.14.68-4.79 4.11-4.29.94.14 1.92.01 2.88.02 3.84.03 8.3-1.15 11.37.41 3.47 1.77.79 6.65 1.53 10.11 1.25 5.84 4.75 9.19 10.11 9.03 5.33-.16 9.18-3.76 9.3-9.71.25-13.07.24-26.15.01-39.22-.1-5.83-4.08-9.65-9.26-9.89-4.92-.23-9.12 3.58-10.09 9.16-.07.38-.09.76-.18 1.14-.68 3.03 1.66 8.13-1.3 8.82-5.46 1.28-11.45.46-17.2.19-1.84-.09-1.19-2.12-1.19-3.34-.05-10.77.07-21.54-.09-32.3-.04-2.9 1.05-3.5 3.7-3.49 30.38.07 60.76.14 91.14-.05 4.42-.03 3.84 2.42 3.84 5.1-.01 32.88-.01 65.76-.01 98.64 0 32.49-.09 64.99.11 97.48.03 4.52-1.13 5.74-5.69 5.71-29.23-.22-58.45-.2-87.68-.01-4.23.03-5.62-.87-5.46-5.33.39-10.78.23-21.56.11-32.32zm103.06 293.63c-60.57-.14-121.13-.1-181.7-.1-60.37 0-120.75-.05-181.12.11-4.59.01-6.16-.77-6.04-5.79.38-16.14.22-32.3.08-48.45-.03-3.4.33-4.95 4.49-4.94 121.71.13 243.42.13 365.13 0 4.09 0 4.56 1.45 4.53 4.91-.15 16.34-.26 32.69.06 49.03.07 4.49-1.28 5.24-5.43 5.23z"/><path class="st0" d="M282.98 503.65c-16.39-.48-30.01 12.46-30.33 28.82-.32 16.17 13 29.89 29.25 30.12 15.67.22 29.18-12.76 29.61-28.46.46-16.69-11.99-29.99-28.53-30.48zm-1 39.18c-5.01-.1-9.56-4.69-9.64-9.7-.08-5.09 4.24-9.57 9.4-9.76 5.54-.2 10.05 4.04 10.12 9.53.06 5.36-4.58 10.04-9.88 9.93zM518.66 503.6c-16.2-.11-29.4 12.8-29.59 28.93-.19 16.39 12.88 29.86 29.19 30.06 15.84.2 29.4-13.08 29.7-29.09.31-16.27-12.93-29.78-29.3-29.9zm-.49 39.18c-5.19-.19-9.44-4.6-9.42-9.79.01-5.48 4.5-9.79 10.03-9.64 5.16.14 9.51 4.57 9.5 9.67-.02 5.28-4.86 9.96-10.11 9.76zM203.72 503.61c-16.48-.19-29.69 12.87-29.71 29.35-.02 16.35 13.45 29.84 29.6 29.63 16-.2 29.26-13.56 29.31-29.53.04-16.04-13.07-29.26-29.2-29.45zm-.33 39.21c-5.1 0-9.56-4.37-9.69-9.52-.15-5.52 4.17-9.95 9.69-9.95 5.18 0 9.61 4.23 9.8 9.38.19 5.17-4.58 10.08-9.8 10.09zM598.04 503.65c-16.38-.46-29.98 12.46-30.34 28.84-.35 15.9 12.49 29.33 28.74 30.06 15.72.71 29.67-12.46 30.15-28.45.49-16.65-12.01-29.98-28.55-30.45zm-.69 39.15c-5.23.08-10.04-4.73-9.94-9.95.1-5.11 4.52-9.46 9.68-9.52 5.53-.06 9.9 4.31 9.82 9.83-.07 5.21-4.38 9.56-9.56 9.64zM438.55 503.68c-16.25.61-28.78 14.02-28.22 30.19.56 16.2 14.16 29.24 29.94 28.7 16.16-.55 29.29-14.07 29-29.85-.3-16.62-14.11-29.67-30.72-29.04zm.69 39.08c-5.22-.29-9.26-4.65-9.18-9.92.08-5.58 4.48-9.71 10.1-9.48 5.2.21 9.41 4.65 9.3 9.82-.1 5.34-4.94 9.87-10.22 9.58zM360.44 503.62c-16.1.28-29.29 13.7-29.08 29.58.21 16.01 13.53 29.29 29.48 29.38 16.19.09 29.61-13.47 29.48-29.77-.14-16.47-13.45-29.47-29.88-29.19zm.62 39.16c-5.29.1-9.97-4.58-9.89-9.89.08-5.43 4.66-9.71 10.17-9.51 5.33.2 9.29 4.4 9.22 9.78-.07 5.22-4.32 9.53-9.5 9.62z"/><g><path class="st1" d="M682.81 464.93c-3.62-1.71-4.92-4.42-4.91-8.28.04-8.84.21-17.69-.06-26.53-.28-9.18-3.61-17.42-11.69-21.92-6.69-3.73-7.98-8.49-7.97-15.44.18-84.99.07-169.98.17-254.97.01-12.8-2.08-20.15-19.95-20.11-158.64.33-317.28.19-475.92.19-2.12 0-4.23-.04-6.35.04-7.94.31-12.39 4.31-13.51 12.16-.41 2.86-.31 5.76-.31 8.64-.01 39.03 0 78.07 0 117.1 0 46.53-.02 93.07.03 139.6.01 4.64-.43 8.48-5.3 11.03-9.98 5.24-14.23 14.13-14.33 25.17-.07 7.69-.21 15.39.04 23.07.17 5.14-1.26 8.63-6.25 11.03-8.39 4.03-12.25 11.05-12.21 20.49.13 31.15.11 62.3.01 93.45-.03 8.2 3.29 14.44 9.78 19.18 3.98 2.91 8.44 4.67 13.36 4.88 4.17.17 5.66 2.17 5.64 6.19-.07 14.42-.05 28.84-.01 43.26.01 4.15-1.75 5.89-5.88 5.85-4.41-.04-8.86-.37-13.23.52-6.79 1.38-10.07 5.63-9.58 12.23.48 6.41 4 9.82 10.85 10.4 2.88.24 5.77.13 8.65.13h553.23c2.12 0 4.23.03 6.35-.03 7.78-.24 9.69-1.61 12.24-8.73v-5.77c-3.49-6.2-9.14-7.05-15.63-6.93-13.97.27-13.97.08-13.97-13.7v-40.79c0-2.27-.55-4.64 3.23-4.44 13.5.72 21.77-6.24 26.37-18.38V481.98c-.8-8.31-5.66-13.64-12.89-17.05zM169.57 139.25c76.9-.01 153.8-.01 230.71-.01 76.71 0 153.42.07 230.13-.14 5.45-.01 6.43 1.59 6.42 6.64-.16 84.2-.18 168.41.04 252.61.02 5.81-1.67 6.97-7 6.7-9.01-.46-18.08-.42-27.1 0-4.7.22-5.55-1.37-5.55-5.72.14-62.1.1-124.19.1-186.29 0-6.92.02-13.84-.01-20.76-.05-10.44-3.35-13.72-13.85-13.72-116.12-.01-232.24 0-348.37 0-6.54 0-13.07-.06-19.61.01-8.28.09-11.95 3.64-12.16 11.92-.16 6.34-.03 12.69-.03 19.03 0 63.25-.04 126.5.09 189.75.01 4.24-.67 6-5.48 5.79-9.79-.43-19.61-.24-29.41-.07-3.24.06-4.69-.4-4.69-4.27.12-85.74.15-171.49-.04-257.23-.01-5.3 2.93-4.24 5.81-4.24zm309.39 228.14c-.08-7.84-3.44-11.48-11.17-11.49-44.99-.1-89.99-.1-134.98 0-7.74.02-11.07 3.65-11.14 11.51-.1 10.96-.21 21.92.07 32.88.1 3.93-1.19 4.74-4.87 4.72-29.8-.14-59.61-.14-89.41 0-3.52.02-4.54-.9-4.54-4.49.11-65.95.11-131.9 0-197.85-.01-3.5.84-4.55 4.45-4.54 30 .15 59.99.16 89.99-.01 3.77-.02 4.42 1.25 4.35 4.62-.2 10.19-.19 20.38-.01 30.57.06 3.15-.65 4.78-4.08 4.24-.75-.12-1.54-.01-2.3-.02-4.04-.02-8.7 1.22-11.94-.39-3.55-1.76-.83-6.88-1.74-10.46-1.34-5.25-5.15-8.86-9.91-8.7-5.2.17-9.25 3.96-9.36 9.78-.26 13.07-.26 26.15-.03 39.21.11 6 3.87 9.6 9.19 9.82 5.53.23 9.34-3.33 10.28-9.48.49-3.19-1.46-7.47.93-9.34 2.7-2.11 7.03-.64 10.64-.69 8.24-.11 8.25-.03 8.25 8.11 0 6.54-.07 13.08.02 19.61.11 8.1 3.44 11.47 11.64 11.62 7.5.14 15.01.33 22.49-.08 4.53-.25 5.48 1.33 5.29 5.52-.34 7.48-.17 14.99-.08 22.49.1 7.66 3.52 11.43 11.24 11.51 18.65.2 37.3.19 55.95.01 7.99-.08 11.32-3.83 11.39-11.94.07-7.88.15-15.77-.05-23.65-.08-3.08.97-3.95 3.95-3.88 7.88.17 15.77.15 23.65.03 8.46-.13 11.74-3.5 11.82-12.03.08-7.69.15-15.39-.04-23.07-.08-3.14.68-4.79 4.11-4.29.94.14 1.92.01 2.88.02 3.84.03 8.3-1.15 11.37.41 3.47 1.77.79 6.65 1.53 10.11 1.25 5.84 4.75 9.19 10.11 9.03 5.33-.16 9.18-3.76 9.3-9.71.25-13.07.24-26.15.01-39.22-.1-5.83-4.08-9.65-9.26-9.89-4.92-.23-9.12 3.58-10.09 9.16-.07.38-.09.76-.18 1.14-.68 3.03 1.66 8.13-1.3 8.82-5.46 1.28-11.45.46-17.2.19-1.84-.09-1.19-2.12-1.19-3.34-.05-10.77.07-21.54-.09-32.3-.04-2.9 1.05-3.5 3.7-3.49 30.38.07 60.76.14 91.14-.05 4.42-.03 3.84 2.42 3.84 5.1-.01 32.88-.01 65.76-.01 98.64 0 32.49-.09 64.99.11 97.48.03 4.52-1.13 5.74-5.69 5.71-29.23-.22-58.45-.2-87.68-.01-4.23.03-5.62-.87-5.46-5.33.39-10.78.23-21.56.11-32.32zm-137.69 11.63c-.07-2.8.84-3.53 3.58-3.52 37.06.08 74.12.07 111.18.01 2.44 0 3.36.62 3.31 3.2-.15 7.68-.24 15.37.03 23.04.13 3.89-2.25 3.17-4.46 3.17-18.24.01-36.49 0-54.73 0-18.05 0-36.1-.1-54.15.08-3.66.04-4.98-.78-4.79-4.67.33-7.09.21-14.21.03-21.31zm-.07-175.75c-.06-4.6 1.48-5.18 5.5-5.16 35.73.15 71.47.15 107.2 0 4-.02 5.57.52 5.51 5.15-.29 22.86-.29 45.72 0 68.58.06 4.64-1.49 5.21-5.5 5.17-17.87-.21-35.73-.09-53.6-.09-17.87 0-35.74-.11-53.6.09-3.99.04-5.58-.49-5.52-5.15.3-22.86.29-45.73.01-68.59zm77.89 112.04c-2.57 3.19-9.3.75-14.21 1.03-1.53.09-3.07.01-4.61.01-5.38 0-10.77-.16-16.14.06-2.83.11-3.44-.82-3.56-3.56-.67-16.23-.75-16.23 15.16-16.23 6.73 0 13.46.18 20.18-.08 3.39-.13 4.32 1.06 4.11 4.26-.33 4.98 1.54 11.44-.93 14.51zM144.1 457.57c.45-8.63.22-17.3.09-25.95-.08-4.87 2.09-7.15 6.91-7.02 1.15.03 2.31 0 3.46 0h491.4c9.91 0 10.42.51 10.42 10.37v21.34c0 7.72 0 7.72-7.44 7.72H400.36c-83.25 0-166.49-.05-249.74.13-5.32.03-6.79-1.36-6.52-6.59zm49.6 199.18c.03 3.16-.66 4.33-4.07 4.26-10.55-.22-21.12-.2-31.67-.01-3.1.06-3.85-.94-3.79-3.9.18-8.63.07-17.28.07-25.91 0-8.25.15-16.51-.08-24.76-.09-3.36.55-4.67 4.31-4.56 10.36.29 20.73.23 31.09.03 3.28-.06 4.17.94 4.14 4.18-.15 16.88-.15 33.77 0 50.67zm388.32 4.27c-60.57-.14-121.13-.1-181.7-.1-60.37 0-120.75-.05-181.12.11-4.59.01-6.16-.77-6.04-5.79.38-16.14.22-32.3.08-48.45-.03-3.4.33-4.95 4.49-4.94 121.71.13 243.42.13 365.13 0 4.09 0 4.56 1.45 4.53 4.91-.15 16.34-.26 32.69.06 49.03.07 4.49-1.28 5.24-5.43 5.23zm64.43-3.85c.03 3.06-.86 3.88-3.86 3.83-10.56-.18-21.12-.21-31.67.01-3.49.07-4.06-1.29-3.99-4.33.17-8.44.06-16.89.06-25.34s.16-16.9-.08-25.34c-.09-3.35 1.02-4.16 4.21-4.11 10.36.19 20.73.17 31.1 0 3.09-.05 4.28.59 4.25 4.02-.19 17.09-.17 34.18-.02 51.26zm20.88-74.87H133.76c-8.83 0-9.19-.35-9.2-8.96 0-27.3-.01-54.61.01-81.91 0-6.9.69-7.62 7.55-7.62 178.82-.01 357.64-.01 536.46 0 6.8 0 7.46.72 7.46 7.71.01 27.3.01 54.61 0 81.91 0 8.42-.44 8.87-8.71 8.87z"/><path class="st1" d="M282.98 503.65c-16.39-.48-30.01 12.46-30.33 28.82-.32 16.17 13 29.89 29.25 30.12 15.67.22 29.18-12.76 29.61-28.46.46-16.69-11.99-29.99-28.53-30.48zm-1 39.18c-5.01-.1-9.56-4.69-9.64-9.7-.08-5.09 4.24-9.57 9.4-9.76 5.54-.2 10.05 4.04 10.12 9.53.06 5.36-4.58 10.04-9.88 9.93zM518.66 503.6c-16.2-.11-29.4 12.8-29.59 28.93-.19 16.39 12.88 29.86 29.19 30.06 15.84.2 29.4-13.08 29.7-29.09.31-16.27-12.93-29.78-29.3-29.9zm-.49 39.18c-5.19-.19-9.44-4.6-9.42-9.79.01-5.48 4.5-9.79 10.03-9.64 5.16.14 9.51 4.57 9.5 9.67-.02 5.28-4.86 9.96-10.11 9.76zM203.72 503.61c-16.48-.19-29.69 12.87-29.71 29.35-.02 16.35 13.45 29.84 29.6 29.63 16-.2 29.26-13.56 29.31-29.53.04-16.04-13.07-29.26-29.2-29.45zm-.33 39.21c-5.1 0-9.56-4.37-9.69-9.52-.15-5.52 4.17-9.95 9.69-9.95 5.18 0 9.61 4.23 9.8 9.38.19 5.17-4.58 10.08-9.8 10.09zM598.04 503.65c-16.38-.46-29.98 12.46-30.34 28.84-.35 15.9 12.49 29.33 28.74 30.06 15.72.71 29.67-12.46 30.15-28.45.49-16.65-12.01-29.98-28.55-30.45zm-.69 39.15c-5.23.08-10.04-4.73-9.94-9.95.1-5.11 4.52-9.46 9.68-9.52 5.53-.06 9.9 4.31 9.82 9.83-.07 5.21-4.38 9.56-9.56 9.64zM438.55 503.68c-16.25.61-28.78 14.02-28.22 30.19.56 16.2 14.16 29.24 29.94 28.7 16.16-.55 29.29-14.07 29-29.85-.3-16.62-14.11-29.67-30.72-29.04zm.69 39.08c-5.22-.29-9.26-4.65-9.18-9.92.08-5.58 4.48-9.71 10.1-9.48 5.2.21 9.41 4.65 9.3 9.82-.1 5.34-4.94 9.87-10.22 9.58zM360.44 503.62c-16.1.28-29.29 13.7-29.08 29.58.21 16.01 13.53 29.29 29.48 29.38 16.19.09 29.61-13.47 29.48-29.77-.14-16.47-13.45-29.47-29.88-29.19zm.62 39.16c-5.29.1-9.97-4.58-9.89-9.89.08-5.43 4.66-9.71 10.17-9.51 5.33.2 9.29 4.4 9.22 9.78-.07 5.22-4.32 9.53-9.5 9.62z"/></g></g></switch></svg>