<svg version="1.1" id="Camada_1" xmlns="http://www.w3.org/2000/svg" x="0" y="0" viewBox="0 0 800 800" style="enable-background:new 0 0 800 800" xml:space="preserve"><style>.st1{fill:#00293f}</style><switch><g><path d="M717.72 272.15c10.25-5.48 20.65-10.66 31-15.93 3.37-1.71 6.56-3.52 8.23-7.15v-93.61c-16.57-8.64-33.1-17.35-49.71-25.9-8.31-4.28-12.78-1.44-12.84 8.06-.08 12.57-1.01 25.25.26 37.69 1.23 12.02-3.12 17.82-13.81 23.04-10.14 4.96-18.41 7.12-27.78-.11-2.34-1.81-5.22-3.06-8.03-4.1-4.99-1.84-6.81-4.82-6.61-10.44.51-14.42.17-28.86.17-43.3 0-13.55-3.36-15.68-15.16-9.61-13.19 6.79-26.26 13.81-39.62 20.24-5.8 2.79-8.2 6.42-8.09 12.96.34 20.02.02 40.04.21 60.07.04 3.98-.6 5.41-5.14 5.65-88.39 4.69-161.92 40.33-220.07 107.24-13.41 15.43-25.85 31.72-38.53 47.78-2.41 3.05-4.88 4.18-8.71 4.15-20.91-.18-41.82.01-62.73-.12-13.28-.08-26.49.97-39.51 3.32-51.66 9.32-94.57 34.27-129.49 73.38-2.68 3-3.75 6.04-3.7 10.02.18 14.67.07 29.34.07 44 0 14.51 0 14.51-14.7 14.63-8.42.06-10.38 1.9-10.39 10.08-.04 22.12-.03 44.24 0 66.36.01 8.21 2 10.17 10.3 10.18 24.63.03 49.26.14 73.89-.12 4.28-.05 6.31 1.29 8.53 4.91 18.31 29.68 44.93 46.14 79.83 46.69 36.33.58 64.08-15.84 83.42-46.62 1.5-2.39 2.1-5.07 6.34-5.02 26.72.31 53.44.23 80.16.09 3.14-.02 4.98 1.21 7.01 3.32 8.7 9.06 17.56 17.96 26.43 26.85 5.45 5.47 8.4 5.42 14.03-.08 2.83-2.76 5.59-5.59 8.36-8.41 1.35-1.38 2.38-2.01 4.73-1.17 15.03 5.4 15.07 5.28 15.19 20.86.01.7.01 1.4 0 2.1-.1 5.41 2.47 8.29 7.94 8.3 13.24.03 26.49.02 39.73 0 5.46-.01 8.03-2.95 8.09-8.27.04-3.96.2-7.93-.05-11.87-.21-3.44 1.13-4.75 4.2-6.66 10.08-6.25 17.72-4.54 24.06 5.14.37.57.95 1.02 1.46 1.49 3.67 3.35 7.44 3.63 11.06.04 3.68-3.65 7.35-7.32 11.01-10.98l26.84 13.77s1.7.99 4.41 2.12c8.72 4.28 17.24 9 25.92 13.38 7.95 4.01 12.43 1.17 12.47-7.89.06-11.86.12-23.72.05-35.58.17-3.79.14-7.97-.13-12.61-.06-4.06 1.13-6.23 4.87-7.89 7.81-3.46 15.39-10.38 23.07-10.39 7.68-.01 15.28 6.87 23.08 10.35 3.67 1.64 5.03 3.71 4.96 7.84-.26 16.06-.15 32.13-.09 48.19.04 9.02 4.6 12.07 12.42 8.13 14.9-7.49 29.69-15.23 44.57-22.77 2.36-1.19 3.98-3.06 5.74-4.87v-90.82c-1.08-4.18-4.03-6.49-7.74-8.31-9.81-4.81-19.39-10.12-29.38-14.51-7.15-3.15-9.99-7.58-9.78-15.54.51-19.31.17-38.64.17-57.96 0-56.81.06-113.61-.09-170.42 0-6.28 1.78-10.28 7.6-13.39zM124.7 465.6c-10.18.14-20.37.03-30.63.03 7.68-11.09 35.59-20.63 56.36-19.18-4.59 12.63-13.19 18.98-25.73 19.15zm465-226.8c-.1-.51-.16-1.05-.16-1.69l.16 1.69zM419.46 388.79c-7.64.01-15.28 0-22.92 0-9.03 0-18.06-.12-27.09.06-3.16.06-4.28-.61-4.41-4.12-.52-14.64 2.75-18.3 17.25-18.3 12.5 0 25.01-.01 37.51 0 9.85.01 15.14 4.02 15.02 11.34-.12 7.31-5.28 11.01-15.36 11.02zm253.71-171.16c9.16-4.98 18.38-9.88 27.82-14.28l-27.82 14.28z" style="fill:#e57526"/><path class="st1" d="M717.72 272.15c10.25-5.48 20.65-10.66 31-15.93 3.37-1.71 6.56-3.52 8.23-7.15v-93.61c-16.57-8.64-33.1-17.35-49.71-25.9-8.31-4.28-12.78-1.44-12.84 8.06-.08 12.57-1.01 25.25.26 37.69 1.23 12.02-3.12 17.82-13.81 23.04-10.14 4.96-18.41 7.12-27.78-.11-2.34-1.81-5.22-3.06-8.03-4.1-4.99-1.84-6.81-4.82-6.61-10.44.51-14.42.17-28.86.17-43.3 0-13.55-3.36-15.68-15.16-9.61-13.19 6.79-26.26 13.81-39.62 20.24-5.8 2.79-8.2 6.42-8.09 12.96.34 20.02.02 40.04.21 60.07.04 3.98-.6 5.41-5.13 5.65-88.39 4.69-161.92 40.33-220.07 107.24-13.41 15.43-25.85 31.72-38.53 47.78-2.41 3.05-4.88 4.18-8.71 4.15-20.91-.18-41.82.01-62.73-.12-13.28-.08-26.49.97-39.51 3.32-51.66 9.32-94.57 34.27-129.49 73.38-2.68 3-3.75 6.04-3.7 10.02.18 14.67.07 29.34.07 44 0 14.51 0 14.51-14.7 14.63-8.42.06-10.38 1.9-10.39 10.08-.04 22.12-.03 44.24 0 66.36.01 8.21 2 10.17 10.3 10.18 24.63.03 49.26.14 73.89-.12 4.28-.05 6.31 1.29 8.53 4.91 18.31 29.68 44.93 46.14 79.83 46.69 36.33.58 64.09-15.84 83.42-46.62 1.5-2.39 2.1-5.07 6.34-5.02 26.72.31 53.44.23 80.16.09 3.14-.02 4.98 1.21 7.01 3.32 8.7 9.06 17.56 17.96 26.43 26.85 5.45 5.47 8.4 5.42 14.03-.08 2.83-2.76 5.59-5.59 8.36-8.41 1.35-1.38 2.38-2.01 4.73-1.17 15.03 5.4 15.07 5.28 15.19 20.86.01.7.01 1.4 0 2.1-.1 5.41 2.47 8.29 7.94 8.3 13.24.03 26.49.02 39.73 0 5.46-.01 8.03-2.95 8.09-8.27.04-3.96.2-7.93-.05-11.87-.21-3.44 1.13-4.75 4.2-6.66 10.08-6.25 17.72-4.54 24.06 5.14.37.57.95 1.02 1.46 1.49 3.67 3.35 7.44 3.63 11.06.04 9.57-9.5 19.1-19.05 28.59-28.63 3.36-3.39 3.29-7.07.13-10.5-3.15-3.42-6.56-6.59-9.79-9.93-1.06-1.09-3.26-2.27-1.97-3.93 4.28-5.5 2.48-14.88 11.42-17.48 2.57-.75 3.5-3.52 3.48-6.31-.03-3.73.3-7.48-.07-11.17-.42-4.13 1.23-6.15 4.9-7.92 12.31-5.93 24.35-12.43 36.65-18.41 5.19-2.53 7.47-5.88 7.45-11.91-.17-84.05-.16-168.1-.02-252.15.01-5.66-1.92-8.99-6.97-11.46-12.7-6.2-25.17-12.87-37.8-19.21-2.71-1.36-4.25-2.7-4.22-6.17.19-23.05.09-46.1.11-69.15 0-1.79-.54-3.82 1.61-4.92 10.84-5.52 21.68-11.03 33.31-16.94 0 16.05.16 30.92-.09 45.77-.09 5.34 1.76 8.69 6.57 11.02 9.8 4.74 19.55 9.61 29.07 14.87 4.64 2.56 8.55 2.3 13.04-.14 9.16-4.98 18.37-9.88 27.82-14.28 5.39-2.51 7.49-5.97 7.36-11.92-.33-14.8-.11-29.61-.11-45.44 10.74 5.47 20.53 10.64 30.5 15.43 3.45 1.66 4.49 3.73 4.46 7.51-.2 22.35-.2 44.7 0 67.05.03 3.82-1.14 5.79-4.55 7.46-12.48 6.12-24.72 12.72-37.21 18.82-4.95 2.42-7.25 5.58-7.24 11.33.14 84.28.13 168.57.01 252.85-.01 5.35 1.85 8.59 6.66 10.95 12.48 6.11 24.69 12.79 37.2 18.83 3.96 1.91 5.17 4.22 5.12 8.51-.24 19.55-.71 39.14.15 58.66.43 9.67-1.89 15.38-11.38 18.8-8.03 2.89-15.39 7.64-23.74 11.92 0-16.54-.14-31.67.08-46.79.07-4.85-1.76-7.78-6.01-9.88-10.17-5.04-20.26-10.25-30.29-15.57-3.86-2.05-7.34-2-11.18.04-9.4 5.02-18.77 10.15-28.44 14.6-5.95 2.73-8.1 6.57-7.93 13.03.38 14.52.12 29.05.12 44.45-8.19-4.16-15.57-7.49-22.52-11.56-5.98-3.5-5.76 1.99-7.3 4.56-1.59 2.65-4.75 5.47.87 8.1 10.28 4.81 20.19 10.38 30.33 15.5 7.95 4.01 12.43 1.17 12.47-7.89.08-16.06.16-32.13-.08-48.19-.06-4.06 1.13-6.23 4.87-7.89 7.81-3.46 15.39-10.38 23.07-10.39 7.68-.01 15.28 6.87 23.08 10.35 3.67 1.64 5.03 3.71 4.96 7.84-.26 16.06-.15 32.13-.09 48.19.04 9.02 4.6 12.07 12.42 8.13 14.91-7.49 29.69-15.23 44.57-22.77 2.36-1.19 3.98-3.06 5.74-4.87v-90.82c-1.08-4.18-4.03-6.49-7.74-8.31-9.81-4.81-19.39-10.12-29.38-14.51-7.15-3.15-9.99-7.58-9.78-15.54.51-19.31.17-38.64.17-57.96 0-56.81.06-113.61-.09-170.42-.01-6.28 1.77-10.28 7.59-13.39zm-567.29 174.3c-4.59 12.63-13.18 18.97-25.73 19.15-10.18.14-20.37.03-30.63.03 7.68-11.08 35.59-20.63 56.36-19.18zm-32.95 160.38c-9.05-.24-18.12-.08-27.18-.08-9.29 0-18.59-.18-27.88.08-3.97.11-5.65-.49-5.55-5.15.33-16.29.28-32.59.02-48.88-.07-4.21 1.46-4.85 5.16-4.81 18.58.17 37.17.22 55.76-.03 4.2-.05 4.85 1.46 4.81 5.17-.18 16.29-.23 32.59.03 48.88.05 4.22-1.47 4.92-5.17 4.82zm99.22 51.62c-44.18-.24-80.31-36.87-80.21-81.34.1-44.6 36.83-80.98 81.52-80.73 44.22.24 80.32 36.85 80.21 81.34-.12 44.63-36.81 80.97-81.52 80.73zm177.66-51.72c-13 .07-25.99.02-38.99.02-12.76 0-25.53-.15-38.29.09-3.89.07-5.06-.96-5.01-4.96.23-16.28.21-32.56.01-48.83-.05-3.81.8-5.14 4.88-5.08 16.71.24 33.42.3 50.12-.03 4.66-.09 5.28 1.61 5.12 5.57-.29 6.96-.05 13.95-.09 20.93-.03 5.81 2.89 8.52 8.58 8.46.7-.01 1.39 0 2.09 0 15.86.1 15.86.1 20.58 15.44 1.15 3.72-3.68 8.36-9 8.39zm193.28-62.6c-9.97 3.1-14.04 9.69-12.16 20.03.47 2.58.2 5.03-3.01 6.06-1.89.61-2.98 2.39-3.43 4.18-2.09 8.41-5.58 16.19-9.74 23.76-2.5 4.55.28 7.83 3.38 10.99 9.01 9.17 8.99 9.25-.01 18.18-3.43 3.4-6.79 8.76-10.65 9.2-2.97.34-6.8-5.46-9.99-8.78-3.68-3.83-7.48-4.03-11.85-1.37-5.57 3.39-11.5 6.18-17.85 7.57-6.88 1.51-9.52 5.15-9.28 12.25.41 12.24.08 12.3-12.06 12.23-5.06-.03-11.44 1.48-14.79-1-3.17-2.35-.84-9.11-.93-13.92-.08-4.89-2.07-7.8-6.88-9.04-6.98-1.8-13.71-4.37-19.84-8.19-4.98-3.11-8.84-2.28-12.95 1.81-9.5 9.47-9.63 9.34-19.09-.13-9.75-9.77-9.87-9.89-.2-19.69 3.89-3.95 4.56-7.76 1.7-12.43-3.66-5.98-6.38-12.42-8.01-19.21-1.39-5.82-4.72-7.8-10.48-7.78-13.48.04-13.48-.14-13.48-13.74 0-13.81 0-13.97 13.82-14.05 5.84-.03 8.91-2.37 10.23-8.12 1.45-6.34 3.9-12.44 7.4-17.95 3.45-5.42 2.76-9.61-1.9-14.12-9.15-8.85-9.03-9.12.19-18.14 3.43-3.36 6.34-9.42 10.52-9.21 3.52.17 6.88 5.62 10.1 8.93 3.44 3.54 7.05 4.03 11.25 1.54 6.22-3.68 12.8-6.62 19.8-8.32 5.79-1.41 7.81-4.77 7.82-10.51.01-13.49.17-13.49 13.68-13.49 13.91 0 14.1 0 14.05 13.85-.02 5.85 2.09 9.03 7.89 10.35 6.34 1.44 12.47 3.84 17.93 7.39 5.77 3.76 10.02 2.57 14.6-2.23 8.44-8.85 8.64-8.67 17.2-.08 3.44 3.46 8.99 6.58 9.7 10.55.77 4.31-5.57 7.19-8.85 10.62-3.64 3.8-4.07 7.43-1.36 11.88 3.63 5.97 6.38 12.4 8.01 19.2 1.35 5.66 4.48 8.3 10.36 7.94 4.14-.25 8.32-.05 12.47-.05.08.39.15.78.23 1.17-1.17.63-2.28 1.48-3.54 1.87zm14.92-280.85c-.08.39-.17.77-.25 1.16-11.95 0-23.9.02-35.85 0-71.41-.11-130.34 26.86-176.27 81.78-3.7 4.42-7.32 6.56-13.37 6.44-14.77-.29-25.31 10.62-25.6 25.4-.08 4.42-.03 8.85-.02 13.27.02 9.82 1.56 11.42 11.17 11.42 34.86.01 69.72 0 104.58 0 43.46 0 86.92-.16 130.37.18 6.22.05 6.35-2.5 6.39-7.19.04-4.8-.34-7.17-6.44-7.13-49.95.31-99.91.17-149.87.17-1.03-1.82.1-3.23.45-4.63 4.02-15.9-7.03-31.02-23.37-31.63-6.64-.25-13.3-.04-21.23-.04 12.45-15.25 26.02-27.36 41.13-37.68 34.88-23.82 73.52-35.93 115.73-36.34 19.52-.19 39.04.13 58.56-.17 4.83-.07 6.12 1.07 6.11 6.04-.17 78.24-.17 156.48 0 234.73.01 4.68-1.25 7.34-5.54 8.91-2.38.87-4.55 2.28-6.84 3.42-2.84 1.41-5.8 4.38-7.35-1.62-.61-2.35-3.42-2.86-5.88-2.81-1.16.02-2.32-.01-3.49-.01-15.18-.07-16.07-.9-20.5-15.7-.77-2.56.57-3.37 1.75-4.59 3.06-3.18 6.21-6.29 9.35-9.4 3.58-3.54 4.03-7.32.43-10.99-9.45-9.63-18.98-19.18-28.56-28.68-3.55-3.52-7.34-3.61-11.03-.06-.67.64-1.32 1.31-1.99 1.96-11.1 10.91-11.04 10.79-25.36 3.99-2.55-1.21-2.61-2.71-2.59-4.83.04-4.42.01-8.85 0-13.27 0-5.1-2.46-7.81-7.64-7.81-13.48-.01-26.96-.01-40.44 0-5.21.01-7.54 2.88-7.68 7.87-.03.93-.16 1.89.01 2.79 1.96 10.33-1.45 16.46-12.26 19.42-4.67 1.28-6.78.86-9.85-2.26-13.14-13.4-13.22-13.32-26.26-.26-6.41 6.42-12.85 12.81-19.22 19.28-5.71 5.8-5.64 8.61.17 14.57 11.11 11.4 11.03 11.36 4.14 25.45-1.18 2.42-2.71 2.68-4.92 2.64-4.41-.09-8.83.03-13.25-.03-2.46-.03-5.4.37-6.08 2.54-1.76 5.58-5.98 4.55-9.93 4.55-19.29.02-38.58-.09-57.86.11-3.21.03-4.82-.91-6.48-3.63-39.16-64.35-125.86-64.39-164.62-.13-1.35 2.23-2.34 3.88-5.66 3.81-14.17-.31-28.35-.31-42.52-.04-4.15.08-4.89-1.38-4.84-5.14.2-14.9.24-29.81-.02-44.71-.08-4.19 1.42-4.89 5.14-4.83 12.78.21 25.56.21 38.34.04 20.37-.28 36.87-14.81 39.95-34.93 1.45-9.47-1.06-12.54-10.42-12.52-7.19.02-14.41-.4-23.5 1.27 11.33-7.67 22.03-12.47 32.98-16.74 24.95-9.73 50.85-14.19 77.61-14.03 21.61.13 43.23-.21 64.83.17 6.3.11 10.29-2.08 14.09-6.88 14.29-18.04 28.31-36.37 43.56-53.58 53.6-60.47 121.11-92.91 201.52-98.62 4.78-.34 10.14-1.84 11.5 5.64.26 1.46 3.06 2.64 4.87 3.6 6.68 3.5 13.42 6.87 20.12 10.29zM419.8 366.44c9.85.01 15.14 4.02 15.02 11.34-.12 7.3-5.28 11-15.36 11.01-7.64.01-15.28 0-22.92 0-9.03 0-18.06-.12-27.09.06-3.16.06-4.28-.61-4.41-4.12-.52-14.64 2.75-18.3 17.25-18.3 12.5.01 25.01 0 37.51.01z"/><path class="st1" d="M489.55 499.19c-30.8-.12-55.93 24.78-56.06 55.55-.13 30.85 24.74 56.05 55.44 56.18 30.78.13 55.95-24.82 56.07-55.57.12-30.85-24.74-56.04-55.45-56.16zm-2.21 14.1c16.04-.69 28.38 6.33 37.98 20.5h-72.07c8.42-12.97 19.59-19.87 34.09-20.5zm43.79 40.11c.83 23.55-18.33 43.59-41.96 43.55-23.61-.03-42.74-20.2-41.82-43.7.17-4.43 1.77-5.34 5.79-5.27 12.05.23 24.11.08 36.16.08 12.06 0 24.12.18 36.16-.1 4.27-.08 5.52 1.18 5.67 5.44zM217.43 525.74c-28.54-.03-51.75 23.3-51.65 51.93.1 28.23 23.28 51.38 51.48 51.42 28.54.04 51.77-23.32 51.66-51.95-.11-28.28-23.24-51.37-51.49-51.4zm-.53 89.38c-20.67-.2-37.37-17.33-37.18-38.16.19-20.71 17.29-37.45 38.07-37.25 20.67.19 37.38 17.33 37.18 38.14-.19 20.7-17.32 37.47-38.07 37.27z"/></g></switch></svg>