<svg version="1.1" id="Camada_1" xmlns="http://www.w3.org/2000/svg" x="0" y="0" viewBox="0 0 800 800" style="enable-background:new 0 0 800 800" xml:space="preserve"><style></style><switch><g><path d="m556.95 72.96-39.17 1.24.13 76.97-40.28 70.21-2.17 434.7c-26.1 20.72-44.25-30.2-44.25-30.2l-59.86-.12-13.09 17.82c-1.6 2.18-3.1 4.42-4.61 6.66-9.57 14.18-17.11 8.78-29.16-3.31l-2.13-425.55-40.28-70.21.13-76.97-39.17-1.24-1.22 90.26 8.52 21.72 2.35 54.93 34.26 51.97 8.59 435.19 29.35.01-.3-60.37c10.45 21.06 65.81 23.15 71.13 23.55 50.51 1.96 75.28-15.2 79.69-26.38l-.32 63.2 29.35-.01 8.59-435.19 34.26-51.97 2.35-54.93 8.52-21.72-1.21-90.26z" style="fill:#e57526"/><path d="m556.95 72.96-39.17 1.24.13 76.97-40.28 70.21-2.17 434.7c-26.1 20.72-44.25-30.2-44.25-30.2l-59.86-.12-13.09 17.82c-1.6 2.18-3.1 4.42-4.61 6.66-9.57 14.18-17.11 8.78-29.16-3.31l-2.13-425.55-40.28-70.21.13-76.97-39.17-1.24-1.22 90.26 8.52 21.72 2.35 54.93 34.26 51.97 8.59 435.19 29.35.01-.3-60.37c10.45 21.06 65.81 23.15 71.13 23.55 50.51 1.96 75.28-15.2 79.69-26.38l-.32 63.2 29.35-.01 8.59-435.19 34.26-51.97 2.35-54.93 8.52-21.72-1.21-90.26z" style="fill:none;stroke:#00293f;stroke-width:15;stroke-miterlimit:10"/></g></switch></svg>