<svg version="1.1" id="Camada_1" xmlns="http://www.w3.org/2000/svg" x="0" y="0" viewBox="0 0 800 800" style="enable-background:new 0 0 800 800" xml:space="preserve"><style>.st0{fill:#e57526}.st1{fill:#00293f}</style><switch><g><path class="st0" d="M188.94 258.65c45.32 0 90.64.05 135.96-.09 3.91-.01 5.21.73 5.17 4.95-.23 27.25-.12 54.51-.23 81.76-.01 2.83.6 5.15 2.27 7.49 7.52 10.53 14.28 21.67 22.45 31.66 9.39 11.48 13.75 23.58 12.62 38.64-1.08 14.52 8.26 26.05 22.21 30.19 3.31.98 4.21 2.22 4.15 5.47-.2 10.63-.03 21.26-.09 31.89-.03 4.61 1.25 8.35 6.57 8.28 5.18-.07 6.64-3.67 6.6-8.34-.09-10.63.07-21.26-.09-31.89-.05-3.11.61-4.43 3.99-5.47 12.31-3.79 19.86-12.25 22.04-25.07 1.3-7.67.37-15.43.55-23.15.06-2.56.4-4.81 1.98-7.03 10.61-14.96 21.04-30.07 31.67-45.02 1.78-2.5 2.59-4.92 2.58-7.98-.11-26.87.08-53.74-.24-80.6-.06-5.1 1.55-5.8 6.12-5.79 44.54.18 89.09.11 133.63.11 10.59 0 11.77-1.14 11.77-11.47V119.61c0-10-1.32-11.32-11.33-11.32H399.55c-70.3 0-140.6 0-210.9.01-8.5 0-10.22 1.7-10.22 10.11-.01 43.3-.01 86.6 0 129.9.01 8.84 1.55 10.34 10.51 10.34zM646.85 585.8c-.01-7.65-1.9-9.51-9.63-9.51-54.8-.02-109.6.02-164.4-.07-3.97-.01-6.92 1.17-9.72 4.03-10.96 11.2-23.03 21.44-32.97 33.46-10.58 12.8-22.67 18.56-39.11 15.97-3.4-.54-6.08-1.04-8.61-3.6-15.08-15.29-30.39-30.35-45.48-45.62-2.92-2.96-5.96-4.27-10.19-4.27-54.6.12-109.21.07-163.82.08-8.3 0-9.81 1.52-9.81 9.77-.01 31.5-.01 63 0 94.5 0 10.17 1.01 11.16 11.36 11.16h235.27c79 0 158.01 0 237.01-.01 8.19 0 10.08-1.79 10.09-9.68.04-32.05.04-64.13.01-96.21zM359.97 533.04c1.09 1.08 2.18 2.26 3.49 3 4.49 2.55 9.79-.78 9.63-6.26.14-2.58-1.87-4.21-3.64-5.98-16.55-16.53-33.1-33.06-49.67-49.57-4.66-4.64-8.41-5.29-11.4-1.76-3.6 4.26-1.48 7.67 1.9 11.01 16.61 16.48 33.12 33.05 49.69 49.56zM489.52 471.01c-3.38-1.59-5.95-.15-8.3 2.19-17.1 17.08-34.19 34.17-51.32 51.22-3.32 3.3-4.76 6.85-1.05 10.53 3.77 3.73 7.3 2.02 10.55-1.23 16.95-16.96 33.92-33.88 50.9-50.81 1.69-1.68 3.03-3.5 3.23-6.04-.35-2.57-1.5-4.68-4.01-5.86z"/><path class="st0" d="M481.42 517.36c-17.2 17.24-34.44 34.44-51.71 51.6-3.42 3.4-4.38 7.05-.69 10.54 3.57 3.37 7.04 1.8 10.13-1.29 17.1-17.07 34.22-34.11 51.35-51.14 1.55-1.54 2.7-3.26 3.04-5.52-.12-2.67-1.32-4.92-3.73-6.05-3.11-1.45-5.9-.64-8.39 1.86zM360.97 578.4c3.19 3.2 6.66 4.3 10.11.91 3.38-3.33 2.63-6.94-.58-10.14-17.23-17.2-34.47-34.38-51.68-51.59-1.56-1.56-3.22-2.76-5.49-2.74-2.83-.06-4.9 1.23-6.1 3.68-1.59 3.26-.35 5.9 2.05 8.29 17.25 17.17 34.49 34.36 51.69 51.59zM399.43 229.8c25.56.01 46.59-20.98 46.51-46.41-.08-25.44-21.25-46.4-46.72-46.26-25.31.14-46.07 20.91-46.12 46.18-.07 25.61 20.74 46.48 46.33 46.49zm.29-79.17c18.47.11 33 14.81 32.84 33.25-.16 18.32-15.16 33.14-33.37 32.95-18.21-.19-33.2-15.39-32.98-33.44.23-18.35 15.09-32.87 33.51-32.76z"/><path class="st0" d="M399.31 207.75c13.43.07 24.44-10.74 24.54-24.11.1-13.29-10.86-24.37-24.22-24.48-13.37-.11-24.39 10.77-24.46 24.15-.07 13.42 10.75 24.37 24.14 24.44zm-.01-35.21c6.25-.09 11.05 4.57 11.12 10.79.07 6.13-4.73 11.14-10.8 11.25-5.9.11-11.18-5-11.29-10.92-.11-5.97 4.88-11.03 10.97-11.12z"/><g><path class="st1" d="M188.94 258.65c45.32 0 90.64.05 135.96-.09 3.91-.01 5.21.73 5.17 4.95-.23 27.25-.12 54.51-.23 81.76-.01 2.83.6 5.15 2.27 7.49 7.52 10.53 14.28 21.67 22.45 31.66 9.39 11.48 13.75 23.58 12.62 38.64-1.08 14.52 8.26 26.05 22.21 30.19 3.31.98 4.21 2.22 4.15 5.47-.2 10.63-.03 21.26-.09 31.89-.03 4.61 1.25 8.35 6.57 8.28 5.18-.07 6.64-3.67 6.6-8.34-.09-10.63.07-21.26-.09-31.89-.05-3.11.61-4.43 3.99-5.47 12.31-3.79 19.86-12.25 22.04-25.07 1.3-7.67.37-15.43.55-23.15.06-2.56.4-4.81 1.98-7.03 10.61-14.96 21.04-30.07 31.67-45.02 1.78-2.5 2.59-4.92 2.58-7.98-.11-26.87.08-53.74-.24-80.6-.06-5.1 1.55-5.8 6.12-5.79 44.54.18 89.09.11 133.63.11 10.59 0 11.77-1.14 11.77-11.47V119.61c0-10-1.32-11.32-11.33-11.32H399.55c-70.3 0-140.6 0-210.9.01-8.5 0-10.22 1.7-10.22 10.11-.01 43.3-.01 86.6 0 129.9.01 8.84 1.55 10.34 10.51 10.34zm280.2-132.67c-.02-3.75 1.17-4.38 4.58-4.36 21.69.15 43.38.08 65.07.08 21.11 0 42.22.1 63.33-.09 4.07-.04 5.6.58 5.57 5.22-.23 37.69-.19 75.38-.04 113.08.02 4.05-.59 5.62-5.24 5.6-42.8-.2-85.6-.16-128.4-.04-3.64.01-4.89-.72-4.87-4.67.16-38.28.15-76.55 0-114.82zm-49.49 298.07c-.5 9.89-7.94 17.05-17.49 17.12-13.3.09-21.29-5.8-22.09-16.69-.39-5.37.01-10.79-.16-16.18-.09-2.71 1.18-3.19 3.5-3.15 5.6.1 11.2.03 16.8.03 5.41 0 10.82.1 16.22-.04 2.5-.06 3.44.81 3.37 3.31-.15 5.19.11 10.41-.15 15.6zm5.62-34.92c-1.63 2.4-3.46 3.08-6.23 3.05-13.15-.13-26.3-.08-39.45-.04-2.19.01-3.94-.13-5.4-2.28-8.01-11.76-16.2-23.39-24.68-35.58h99.93c-8.37 12.03-16.36 23.37-24.17 34.85zm-76.32-267.54c33.5.22 67.01.22 100.51 0 4.87-.03 6.45.81 6.4 6.14-.3 34.4-.15 68.81-.15 103.22 0 34.6-.09 69.19.1 103.79.03 4.63-.89 6.21-5.92 6.17-33.7-.24-67.4-.21-101.09-.03-4.47.02-5.92-.97-5.86-5.7.36-27.82.49-55.65.48-83.47-.02-41.36-.15-82.71-.48-124.07-.03-4.81 1.17-6.09 6.01-6.05zm-157.48 4.79c-.01-3.76.93-4.81 4.75-4.77 21.69.19 43.38.09 65.06.09 21.3 0 42.6.08 63.9-.08 3.61-.03 4.9.66 4.88 4.64-.17 38.07-.15 76.15-.01 114.22.01 3.75-.93 4.79-4.75 4.78-42.99-.14-85.98-.13-128.97-.01-3.61.01-4.89-.67-4.88-4.65.17-38.07.16-76.15.02-114.22zM646.85 585.8c-.01-7.65-1.9-9.51-9.63-9.51-54.8-.02-109.6.02-164.4-.07-3.97-.01-6.92 1.17-9.72 4.03-10.96 11.2-23.03 21.44-32.97 33.46-10.58 12.8-22.67 18.56-39.11 15.97-3.4-.54-6.08-1.04-8.61-3.6-15.08-15.29-30.39-30.35-45.48-45.62-2.92-2.96-5.96-4.27-10.19-4.27-54.6.12-109.21.07-163.82.08-8.3 0-9.81 1.52-9.81 9.77-.01 31.5-.01 63 0 94.5 0 10.17 1.01 11.16 11.36 11.16h235.27c79 0 158.01 0 237.01-.01 8.19 0 10.08-1.79 10.09-9.68.04-32.05.04-64.13.01-96.21zm-19.22 92.98c-75.92-.18-151.85-.12-227.77-.12-75.73 0-151.46-.06-227.19.13-5.4.01-6.63-1.44-6.57-6.65.28-25.9.22-51.81.03-77.71-.03-4 .93-5.16 5.06-5.15 50.55.15 101.1.12 151.66.03 3.14-.01 5.36.88 7.58 3.12 15.11 15.26 30.46 30.29 45.5 45.62 3.41 3.48 6.94 4.94 11.77 4.77 8.51-.31 17.05-.27 25.56-.01 4.22.13 7.32-1.26 10.26-4.22 15.11-15.26 30.41-30.34 45.52-45.6 2.46-2.49 4.85-3.72 8.52-3.71 50.16.14 100.33.17 150.49-.03 4.8-.02 5.54 1.52 5.51 5.78-.19 25.9-.22 51.81.03 77.71.02 4.76-1.03 6.06-5.96 6.04zM359.97 533.04c1.09 1.08 2.18 2.26 3.49 3 4.49 2.55 9.79-.78 9.63-6.26.14-2.58-1.87-4.21-3.64-5.98-16.55-16.53-33.1-33.06-49.67-49.57-4.66-4.64-8.41-5.29-11.4-1.76-3.6 4.26-1.48 7.67 1.9 11.01 16.61 16.48 33.12 33.05 49.69 49.56zM489.52 471.01c-3.38-1.59-5.95-.15-8.3 2.19-17.1 17.08-34.19 34.17-51.32 51.22-3.32 3.3-4.76 6.85-1.05 10.53 3.77 3.73 7.3 2.02 10.55-1.23 16.95-16.96 33.92-33.88 50.9-50.81 1.69-1.68 3.03-3.5 3.23-6.04-.35-2.57-1.5-4.68-4.01-5.86z"/><path class="st1" d="M481.42 517.36c-17.2 17.24-34.44 34.44-51.71 51.6-3.42 3.4-4.38 7.05-.69 10.54 3.57 3.37 7.04 1.8 10.13-1.29 17.1-17.07 34.22-34.11 51.35-51.14 1.55-1.54 2.7-3.26 3.04-5.52-.12-2.67-1.32-4.92-3.73-6.05-3.11-1.45-5.9-.64-8.39 1.86zM360.97 578.4c3.19 3.2 6.66 4.3 10.11.91 3.38-3.33 2.63-6.94-.58-10.14-17.23-17.2-34.47-34.38-51.68-51.59-1.56-1.56-3.22-2.76-5.49-2.74-2.83-.06-4.9 1.23-6.1 3.68-1.59 3.26-.35 5.9 2.05 8.29 17.25 17.17 34.49 34.36 51.69 51.59zM399.43 229.8c25.56.01 46.59-20.98 46.51-46.41-.08-25.44-21.25-46.4-46.72-46.26-25.31.14-46.07 20.91-46.12 46.18-.07 25.61 20.74 46.48 46.33 46.49zm.29-79.17c18.47.11 33 14.81 32.84 33.25-.16 18.32-15.16 33.14-33.37 32.95-18.21-.19-33.2-15.39-32.98-33.44.23-18.35 15.09-32.87 33.51-32.76z"/><path class="st1" d="M399.31 207.75c13.43.07 24.44-10.74 24.54-24.11.1-13.29-10.86-24.37-24.22-24.48-13.37-.11-24.39 10.77-24.46 24.15-.07 13.42 10.75 24.37 24.14 24.44zm-.01-35.21c6.25-.09 11.05 4.57 11.12 10.79.07 6.13-4.73 11.14-10.8 11.25-5.9.11-11.18-5-11.29-10.92-.11-5.97 4.88-11.03 10.97-11.12z"/></g></g></switch></svg>